<svg width="224" height="39" viewBox="0 0 224 39" fill="none" xmlns="http://www.w3.org/2000/svg">
<path d="M5.72 1.04V14.192H0.92V1.04H5.72ZM18.569 0.415998V33.536C18.569 34.88 18.793 35.792 19.241 36.272C19.721 36.752 20.521 36.992 21.641 36.992V38C21.033 37.968 20.121 37.936 18.905 37.904C17.689 37.84 16.457 37.808 15.209 37.808C13.961 37.808 12.697 37.84 11.417 37.904C10.169 37.936 9.225 37.968 8.585 38V36.992C9.705 36.992 10.489 36.752 10.937 36.272C11.417 35.792 11.657 34.88 11.657 33.536V6.176C11.657 4.736 11.433 3.68 10.985 3.008C10.569 2.304 9.769 1.952 8.585 1.952V0.943999C9.609 1.04 10.601 1.088 11.561 1.088C12.873 1.088 14.121 1.04 15.305 0.943999C16.489 0.815999 17.577 0.639998 18.569 0.415998ZM35.5985 12.512C37.9345 12.512 39.9825 12.944 41.7425 13.808C43.5025 14.672 44.8785 16.064 45.8705 17.984C46.8625 19.904 47.3585 22.448 47.3585 25.616C47.3585 28.784 46.8625 31.328 45.8705 33.248C44.8785 35.136 43.5025 36.512 41.7425 37.376C39.9825 38.24 37.9345 38.672 35.5985 38.672C33.3265 38.672 31.2945 38.24 29.5025 37.376C27.7425 36.512 26.3505 35.136 25.3265 33.248C24.3345 31.328 23.8385 28.784 23.8385 25.616C23.8385 22.448 24.3345 19.904 25.3265 17.984C26.3505 16.064 27.7425 14.672 29.5025 13.808C31.2945 12.944 33.3265 12.512 35.5985 12.512ZM35.5985 13.472C34.3185 13.472 33.2465 14.432 32.3825 16.352C31.5185 18.24 31.0865 21.328 31.0865 25.616C31.0865 29.904 31.5185 32.992 32.3825 34.88C33.2465 36.768 34.3185 37.712 35.5985 37.712C36.9105 37.712 37.9825 36.768 38.8145 34.88C39.6785 32.992 40.1105 29.904 40.1105 25.616C40.1105 21.328 39.6785 18.24 38.8145 16.352C37.9825 14.432 36.9105 13.472 35.5985 13.472ZM63.6031 8.48H34.8031V5.552H63.6031V8.48ZM62.7391 12.512C65.0751 12.512 67.1231 12.944 68.8831 13.808C70.6431 14.672 72.0191 16.064 73.0111 17.984C74.0031 19.904 74.4991 22.448 74.4991 25.616C74.4991 28.784 74.0031 31.328 73.0111 33.248C72.0191 35.136 70.6431 36.512 68.8831 37.376C67.1231 38.24 65.0751 38.672 62.7391 38.672C60.4671 38.672 58.4351 38.24 56.6431 37.376C54.8831 36.512 53.4911 35.136 52.4671 33.248C51.4751 31.328 50.9791 28.784 50.9791 25.616C50.9791 22.448 51.4751 19.904 52.4671 17.984C53.4911 16.064 54.8831 14.672 56.6431 13.808C58.4351 12.944 60.4671 12.512 62.7391 12.512ZM62.7391 13.472C61.4591 13.472 60.3871 14.432 59.5231 16.352C58.6591 18.24 58.2271 21.328 58.2271 25.616C58.2271 29.904 58.6591 32.992 59.5231 34.88C60.3871 36.768 61.4591 37.712 62.7391 37.712C64.0511 37.712 65.1231 36.768 65.9551 34.88C66.8191 32.992 67.2511 29.904 67.2511 25.616C67.2511 21.328 66.8191 18.24 65.9551 16.352C65.1231 14.432 64.0511 13.472 62.7391 13.472ZM94.9198 12.512C96.2638 12.512 97.3518 12.688 98.1838 13.04C99.0158 13.36 99.6878 13.808 100.2 14.384C100.712 14.992 101.08 15.792 101.304 16.784C101.528 17.744 101.64 19.024 101.64 20.624V33.536C101.64 34.88 101.848 35.792 102.264 36.272C102.68 36.752 103.4 36.992 104.424 36.992V38C103.848 37.968 102.968 37.936 101.784 37.904C100.632 37.84 99.4958 37.808 98.3758 37.808C97.2238 37.808 96.0878 37.84 94.9678 37.904C93.8478 37.936 92.9998 37.968 92.4238 38V36.992C93.2878 36.992 93.8798 36.752 94.1998 36.272C94.5518 35.792 94.7278 34.88 94.7278 33.536V18.608C94.7278 17.808 94.6638 17.12 94.5358 16.544C94.4078 15.936 94.1518 15.472 93.7678 15.152C93.4158 14.8 92.8718 14.624 92.1358 14.624C91.3038 14.624 90.5358 14.864 89.8318 15.344C89.1278 15.824 88.5518 16.496 88.1038 17.36C87.6878 18.192 87.4798 19.136 87.4798 20.192V33.536C87.4798 34.88 87.6558 35.792 88.0078 36.272C88.3598 36.752 88.9518 36.992 89.7838 36.992V38C89.2717 37.968 88.4718 37.936 87.3838 37.904C86.3278 37.84 85.2398 37.808 84.1198 37.808C82.9038 37.808 81.6558 37.84 80.3758 37.904C79.0958 37.936 78.1358 37.968 77.4958 38V36.992C78.6158 36.992 79.3998 36.752 79.8478 36.272C80.3278 35.792 80.5678 34.88 80.5678 33.536V18.416C80.5678 16.976 80.3438 15.92 79.8958 15.248C79.4798 14.544 78.6798 14.192 77.4958 14.192V13.184C78.5198 13.28 79.5118 13.328 80.4718 13.328C81.8158 13.328 83.0638 13.28 84.2158 13.184C85.3998 13.056 86.4878 12.88 87.4798 12.656V16.976C88.2478 15.376 89.2878 14.24 90.5998 13.568C91.9118 12.864 93.3518 12.512 94.9198 12.512ZM109.368 12.512C110.712 12.512 111.8 12.688 112.632 13.04C113.464 13.36 114.136 13.808 114.648 14.384C115.16 14.992 115.528 15.792 115.752 16.784C115.976 17.744 116.088 19.024 116.088 20.624V33.536C116.088 34.88 116.312 35.792 116.76 36.272C117.24 36.752 118.04 36.992 119.16 36.992V38C118.552 37.968 117.64 37.936 116.424 37.904C115.208 37.84 114.008 37.808 112.824 37.808C111.672 37.808 110.536 37.84 109.416 37.904C108.296 37.936 107.448 37.968 106.872 38V36.992C107.736 36.992 108.328 36.752 108.648 36.272C109 35.792 109.176 34.88 109.176 33.536V18.608C109.176 17.808 109.096 17.12 108.936 16.544C108.808 15.936 108.536 15.472 108.12 15.152C107.736 14.8 107.128 14.624 106.296 14.624C105.464 14.624 104.696 14.88 103.992 15.392C103.288 15.904 102.712 16.592 102.264 17.456C101.848 18.32 101.624 19.28 101.592 20.336L101.352 17.408C102.216 15.488 103.352 14.192 104.76 13.52C106.2 12.848 107.736 12.512 109.368 12.512ZM133.237 38.672C129.397 38.672 126.485 37.52 124.501 35.216C122.517 32.912 121.541 29.424 121.573 24.752H140.101L140.197 25.664H128.869C128.805 29.536 129.173 32.512 129.973 34.592C130.773 36.672 131.893 37.712 133.333 37.712C134.741 37.712 135.845 36.736 136.645 34.784C137.445 32.832 137.845 29.984 137.845 26.24C137.845 22.176 137.285 19.136 136.165 17.12C135.045 15.072 133.413 14.048 131.269 14.048C130.053 14.048 128.933 14.384 127.909 15.056C126.917 15.696 126.101 16.592 125.461 17.744C124.853 18.896 124.517 20.224 124.453 21.728H123.349C123.349 20.064 123.333 18.672 123.301 17.552C123.301 16.432 123.285 15.504 123.253 14.768C123.221 14.032 123.173 13.408 123.109 12.896H124.213C124.309 13.664 124.437 14.208 124.597 14.528C124.757 14.848 124.981 15.008 125.269 15.008C125.461 15.008 125.685 14.96 125.941 14.864C126.197 14.736 126.549 14.528 126.997 14.24C128.053 13.6 129.077 13.152 130.069 12.896C131.061 12.64 132.149 12.512 133.333 12.512C137.077 12.512 139.973 13.6 142.021 15.776C144.069 17.92 145.093 21.184 145.093 25.568C145.093 29.792 144.117 33.04 142.165 35.312C140.245 37.552 137.269 38.672 133.237 38.672ZM165.899 12.512C167.243 12.512 168.331 12.688 169.163 13.04C170.027 13.36 170.699 13.808 171.179 14.384C171.691 14.992 172.059 15.776 172.283 16.736C172.539 17.696 172.667 18.992 172.667 20.624V33.536C172.667 34.88 172.891 35.792 173.339 36.272C173.819 36.752 174.619 36.992 175.739 36.992V38C175.131 37.968 174.219 37.936 173.003 37.904C171.787 37.84 170.587 37.808 169.403 37.808C168.187 37.808 166.987 37.84 165.803 37.904C164.651 37.936 163.771 37.968 163.163 38V36.992C164.123 36.992 164.795 36.752 165.179 36.272C165.563 35.792 165.755 34.88 165.755 33.536V18.608C165.755 17.808 165.675 17.12 165.515 16.544C165.355 15.936 165.067 15.472 164.651 15.152C164.235 14.8 163.611 14.624 162.779 14.624C161.915 14.624 161.115 14.864 160.379 15.344C159.675 15.824 159.099 16.496 158.651 17.36C158.235 18.192 158.027 19.136 158.027 20.192V33.536C158.027 34.88 158.219 35.792 158.603 36.272C159.019 36.752 159.691 36.992 160.619 36.992V38C160.043 37.968 159.195 37.936 158.075 37.904C156.987 37.84 155.851 37.808 154.667 37.808C153.451 37.808 152.203 37.84 150.923 37.904C149.643 37.936 148.683 37.968 148.043 38V36.992C149.163 36.992 149.947 36.752 150.395 36.272C150.875 35.792 151.115 34.88 151.115 33.536V18.416C151.115 16.976 150.891 15.92 150.443 15.248C150.027 14.544 149.227 14.192 148.043 14.192V13.184C149.067 13.28 150.059 13.328 151.019 13.328C152.363 13.328 153.611 13.28 154.763 13.184C155.947 13.056 157.035 12.88 158.027 12.656V16.976C158.827 15.344 159.915 14.192 161.291 13.52C162.667 12.848 164.203 12.512 165.899 12.512ZM189.815 38.672C185.975 38.672 183.063 37.52 181.079 35.216C179.095 32.912 178.119 29.424 178.151 24.752H196.679L196.775 25.664H185.447C185.383 29.536 185.751 32.512 186.551 34.592C187.351 36.672 188.471 37.712 189.911 37.712C191.319 37.712 192.423 36.736 193.223 34.784C194.023 32.832 194.423 29.984 194.423 26.24C194.423 22.176 193.863 19.136 192.743 17.12C191.623 15.072 189.991 14.048 187.847 14.048C186.631 14.048 185.511 14.384 184.487 15.056C183.495 15.696 182.679 16.592 182.039 17.744C181.431 18.896 181.095 20.224 181.031 21.728H179.927C179.927 20.064 179.911 18.672 179.879 17.552C179.879 16.432 179.863 15.504 179.831 14.768C179.799 14.032 179.751 13.408 179.687 12.896H180.791C180.887 13.664 181.015 14.208 181.175 14.528C181.335 14.848 181.559 15.008 181.847 15.008C182.039 15.008 182.263 14.96 182.519 14.864C182.775 14.736 183.127 14.528 183.575 14.24C184.631 13.6 185.655 13.152 186.647 12.896C187.639 12.64 188.727 12.512 189.911 12.512C193.655 12.512 196.551 13.6 198.599 15.776C200.647 17.92 201.671 21.184 201.671 25.568C201.671 29.792 200.695 33.04 198.743 35.312C196.823 37.552 193.847 38.672 189.815 38.672ZM214.125 12.512C215.469 12.512 216.637 12.688 217.629 13.04C218.653 13.36 219.389 13.68 219.837 14C220.925 14.736 221.597 14.256 221.853 12.56H222.861C222.797 13.456 222.749 14.56 222.717 15.872C222.685 17.152 222.669 18.864 222.669 21.008H221.661C221.501 19.824 221.197 18.656 220.749 17.504C220.301 16.352 219.645 15.408 218.781 14.672C217.949 13.936 216.861 13.568 215.517 13.568C214.589 13.568 213.805 13.84 213.165 14.384C212.525 14.896 212.205 15.648 212.205 16.64C212.205 17.6 212.493 18.448 213.069 19.184C213.645 19.888 214.381 20.576 215.277 21.248C216.205 21.888 217.165 22.576 218.157 23.312C219.213 24.112 220.173 24.912 221.037 25.712C221.901 26.48 222.589 27.328 223.101 28.256C223.613 29.184 223.869 30.288 223.869 31.568C223.869 33.008 223.453 34.272 222.621 35.36C221.789 36.416 220.685 37.232 219.309 37.808C217.965 38.384 216.461 38.672 214.797 38.672C213.837 38.672 212.973 38.576 212.205 38.384C211.469 38.192 210.829 37.952 210.285 37.664C209.869 37.472 209.469 37.296 209.085 37.136C208.733 36.944 208.397 36.784 208.077 36.656C207.757 36.56 207.469 36.672 207.213 36.992C206.989 37.312 206.813 37.76 206.685 38.336H205.677C205.741 37.312 205.789 36.064 205.821 34.592C205.853 33.12 205.869 31.168 205.869 28.736H206.877C207.069 30.464 207.421 32 207.933 33.344C208.445 34.656 209.133 35.696 209.997 36.464C210.893 37.2 212.013 37.568 213.357 37.568C213.901 37.568 214.429 37.456 214.941 37.232C215.453 37.008 215.869 36.64 216.189 36.128C216.541 35.616 216.717 34.96 216.717 34.16C216.717 32.752 216.253 31.584 215.325 30.656C214.429 29.728 213.277 28.72 211.869 27.632C210.845 26.8 209.869 25.984 208.941 25.184C208.045 24.352 207.309 23.456 206.733 22.496C206.157 21.504 205.869 20.384 205.869 19.136C205.869 17.696 206.253 16.48 207.021 15.488C207.789 14.496 208.797 13.76 210.045 13.28C211.325 12.768 212.685 12.512 214.125 12.512Z" fill="white"/>
</svg>
