<svg width="18" height="18" viewBox="0 0 18 18" fill="none" xmlns="http://www.w3.org/2000/svg">
<path d="M0.666016 14.8337C0.666016 16.2503 1.74935 17.3337 3.16602 17.3337H14.8327C16.2493 17.3337 17.3327 16.2503 17.3327 14.8337V8.16699H0.666016V14.8337ZM14.8327 2.33366H13.166V1.50033C13.166 1.00033 12.8327 0.666992 12.3327 0.666992C11.8327 0.666992 11.4993 1.00033 11.4993 1.50033V2.33366H6.49935V1.50033C6.49935 1.00033 6.16602 0.666992 5.66602 0.666992C5.16602 0.666992 4.83268 1.00033 4.83268 1.50033V2.33366H3.16602C1.74935 2.33366 0.666016 3.41699 0.666016 4.83366V6.50033H17.3327V4.83366C17.3327 3.41699 16.2493 2.33366 14.8327 2.33366Z" fill="#9F9F9F"/>
</svg>
