<svg width="19" height="18" viewBox="0 0 19 18" fill="none" xmlns="http://www.w3.org/2000/svg">
<path d="M9.59284 7.81113C7.43634 7.81113 6.99934 4.71513 6.99934 4.71513C6.74284 3.10413 7.52184 1.28613 9.56434 1.28613C11.6163 1.28613 12.3953 3.10413 12.1388 4.71513C12.1388 4.71513 11.7493 7.81113 9.59284 7.81113ZM9.59284 10.1241L12.1768 8.48613C14.4473 8.48613 16.4708 10.5831 16.4708 12.5631V14.8041C16.4708 14.8041 13.0033 15.8211 9.59284 15.8211C6.12534 15.8211 2.71484 14.8041 2.71484 14.8041V12.5631C2.71484 10.5381 4.55784 8.53113 6.96134 8.53113L9.59284 10.1241Z" fill="#9F9F9F"/>
</svg>
