<svg width="31" height="31" viewBox="0 0 31 31" fill="none" xmlns="http://www.w3.org/2000/svg">
<path d="M15.4993 14.3371C11.9808 14.3371 11.2678 9.00511 11.2678 9.00511C10.8493 6.23061 12.1203 3.09961 15.4528 3.09961C18.8008 3.09961 20.0718 6.23061 19.6533 9.00511C19.6533 9.00511 19.0178 14.3371 15.4993 14.3371ZM15.4993 18.3206L19.7153 15.4996C23.4198 15.4996 26.7213 19.1111 26.7213 22.5211V26.3806C26.7213 26.3806 21.0638 28.1321 15.4993 28.1321C9.84184 28.1321 4.27734 26.3806 4.27734 26.3806V22.5211C4.27734 19.0336 7.28434 15.5771 11.2058 15.5771L15.4993 18.3206Z" fill="#9F9F9F"/>
</svg>
