<svg width="50" height="49" viewBox="0 0 50 49" fill="none" xmlns="http://www.w3.org/2000/svg">
<path d="M41.0714 0H8.21428C3.67766 0 0 3.65634 0 8.16667V40.8333C0 45.3437 3.67766 49 8.21428 49H41.0714C45.6081 49 49.2857 45.3437 49.2857 40.8333V8.16667C49.2857 3.65634 45.6081 0 41.0714 0Z" fill="#F2ECBE"/>
<path d="M27.777 20.4593C27.777 20.9804 27.6759 21.4322 27.4722 21.8151C27.2693 22.1979 26.986 22.5116 26.6221 22.7561C26.2582 22.9954 25.831 23.1629 25.339 23.2586V23.3224C26.2697 23.4394 26.9671 23.7371 27.4328 24.2156C27.9027 24.6942 28.1384 25.3215 28.1384 26.0978C28.1384 26.7731 27.9782 27.3712 27.6571 27.8922C27.3416 28.4133 26.8545 28.8227 26.1974 29.1204C25.5443 29.4129 24.7073 29.5591 23.6863 29.5591C23.0661 29.5591 22.4911 29.5086 21.9613 29.4076C21.4372 29.3118 20.9345 29.1497 20.4531 28.9211V27.6769C20.9402 27.9162 21.4692 28.1049 22.0418 28.2432C22.6143 28.376 23.1671 28.4425 23.7027 28.4425C24.7722 28.4425 25.5443 28.2325 26.0208 27.8124C26.4964 27.3871 26.7346 26.8076 26.7346 26.0738C26.7346 25.5687 26.6007 25.162 26.3337 24.8537C26.0717 24.54 25.6914 24.3113 25.1944 24.1678C24.7024 24.019 24.1085 23.9445 23.4136 23.9445H22.2422V22.812H23.4218C24.0576 22.812 24.5981 22.719 25.0416 22.5329C25.486 22.3467 25.8228 22.0862 26.0528 21.7513C26.2877 21.411 26.406 21.0096 26.406 20.5471C26.406 19.9569 26.2081 19.5023 25.8121 19.1832C25.4162 18.8589 24.879 18.6967 24.1997 18.6967C23.7824 18.6967 23.4029 18.7393 23.0603 18.8244C22.7186 18.9094 22.3974 19.0264 22.0976 19.1753C21.7986 19.3242 21.4988 19.4969 21.1998 19.6936L20.5254 18.7845C20.9534 18.4548 21.475 18.1704 22.0902 17.9311C22.7047 17.6919 23.4029 17.5723 24.1832 17.5723C25.3817 17.5723 26.2803 17.8434 26.8792 18.3857C27.478 18.928 27.777 19.6192 27.777 20.4593Z" fill="black"/>
</svg>
