<svg width="110" height="67" viewBox="0 0 110 67" fill="none" xmlns="http://www.w3.org/2000/svg">
<path d="M98.1189 0H11.7229C5.60556 0 0.646484 4.93033 0.646484 11.0122V55.061C0.646484 61.1428 5.60556 66.0732 11.7229 66.0732H98.1189C104.236 66.0732 109.195 61.1428 109.195 55.061V11.0122C109.195 4.93033 104.236 0 98.1189 0Z" fill="#F2ECBE"/>
<path d="M40.2359 39.6438H39.1116V24.9215H33.9844V23.9213H45.3632V24.9215H40.2359V39.6438ZM48.5321 27.9541V39.6438H47.44V27.9541H48.5321ZM48.0027 23.631C48.2763 23.631 48.479 23.7134 48.6086 23.8783C48.7381 24.036 48.8035 24.2511 48.8035 24.5235C48.8035 24.7959 48.7381 25.011 48.6086 25.1688C48.479 25.3265 48.2763 25.4054 48.0027 25.4054C47.7435 25.4054 47.5485 25.3265 47.4189 25.1688C47.2882 25.011 47.224 24.7959 47.224 24.5235C47.224 24.2511 47.2882 24.036 47.4189 23.8783C47.5485 23.7134 47.7435 23.631 48.0027 23.631ZM56.9159 27.7283C57.9183 27.7283 58.7512 27.9613 59.4147 28.4273C60.0848 28.8932 60.5821 29.5314 60.9067 30.3415C61.239 31.1516 61.4051 32.0801 61.4051 33.1268V33.9118H52.9139C52.9139 35.5179 53.285 36.7509 54.0271 37.6113C54.777 38.4715 55.8481 38.9018 57.2404 38.9018C57.9681 38.9018 58.5995 38.8444 59.1334 38.7297C59.6739 38.6078 60.272 38.4035 60.9289 38.1167V39.1169C60.3518 39.375 59.7747 39.5613 59.1976 39.6761C58.6205 39.798 57.9581 39.8589 57.2072 39.8589C56.0176 39.8589 55.0196 39.6152 54.211 39.1275C53.4113 38.6329 52.8054 37.9375 52.3945 37.0413C51.9902 36.1451 51.7886 35.0984 51.7886 33.9012C51.7886 32.7325 51.9835 31.6822 52.3723 30.7501C52.7689 29.8182 53.3459 29.0833 54.1036 28.5456C54.8678 28.0007 55.8049 27.7283 56.9159 27.7283ZM56.9048 28.6639C55.7794 28.6639 54.8678 29.0366 54.1678 29.7823C53.4755 30.5207 53.0679 31.5889 52.9461 32.987H60.2687C60.2687 32.1338 60.1457 31.381 59.901 30.7287C59.6562 30.0762 59.284 29.5708 58.7867 29.2123C58.2971 28.8467 57.669 28.6639 56.9048 28.6639ZM59.6517 26.298H58.9495C58.5596 26.0327 58.1664 25.7209 57.7698 25.3623C57.3733 24.9967 57.0023 24.6275 56.6556 24.2547C56.3022 24.6275 55.9245 24.9967 55.5202 25.3623C55.1237 25.7209 54.7305 26.0327 54.3417 26.298H53.6384V26.1151C53.9053 25.8785 54.19 25.6025 54.4924 25.2871C54.7958 24.9644 55.0916 24.6311 55.3796 24.287C55.6753 23.9428 55.9245 23.6238 56.1261 23.3298H57.1861C57.3955 23.6238 57.6403 23.9428 57.9216 24.287C58.203 24.6311 58.4954 24.9644 58.7977 25.2871C59.1001 25.6025 59.3859 25.8785 59.6517 26.1151V26.298ZM58.852 24.018C59.1688 23.6667 59.4502 23.3083 59.696 22.9427C59.9408 22.5698 60.1712 22.1756 60.3883 21.7598H61.5347V21.964C61.26 22.3655 60.9499 22.7599 60.6043 23.147C60.2576 23.527 59.8943 23.8783 59.5122 24.201H58.852V24.018ZM69.852 27.7283C71.3673 27.7283 72.5391 28.2337 73.3676 29.2445C74.205 30.2555 74.6226 31.7467 74.6226 33.7182C74.6226 35.0375 74.4243 36.1559 74.0278 37.0735C73.6313 37.984 73.0653 38.6759 72.3298 39.1491C71.601 39.6223 70.7248 39.8589 69.7014 39.8589C68.9947 39.8589 68.3777 39.7549 67.8516 39.547C67.3321 39.3319 66.899 39.0452 66.5535 38.6867C66.2068 38.321 65.9409 37.9195 65.7526 37.4822H65.6773C65.6983 37.8909 65.7172 38.3175 65.7316 38.7619C65.746 39.2065 65.7526 39.6258 65.7526 40.0202V44.8166H64.6494V27.9541H65.5588L65.6884 30.2877H65.7526C65.9476 29.8433 66.2211 29.4238 66.5745 29.0295C66.9278 28.6352 67.3753 28.3197 67.9158 28.0832C68.4575 27.8465 69.1021 27.7283 69.852 27.7283ZM69.7124 28.6853C68.8252 28.6853 68.0853 28.8789 67.4949 29.2661C66.9101 29.646 66.4737 30.2052 66.1857 30.9437C65.9044 31.675 65.7604 32.5712 65.7526 33.6322V33.815C65.7526 34.955 65.8933 35.9049 66.1746 36.6649C66.4637 37.4177 66.8924 37.9805 67.4617 38.3533C68.0388 38.7261 68.7532 38.9125 69.6039 38.9125C70.4402 38.9125 71.1468 38.7082 71.7239 38.2995C72.301 37.8909 72.7407 37.2994 73.0431 36.5251C73.3466 35.7508 73.4972 34.8116 73.4972 33.7076C73.4972 32.0658 73.1804 30.8183 72.5458 29.9651C71.9188 29.1119 70.974 28.6853 69.7124 28.6853Z" fill="black"/>
</svg>
