<svg width="67" height="67" viewBox="0 0 67 67" fill="none" xmlns="http://www.w3.org/2000/svg">
<path d="M55.9309 0H11.6252C5.5079 0 0.548828 4.93033 0.548828 11.0122V55.061C0.548828 61.1428 5.5079 66.0732 11.6252 66.0732H55.9309C62.0482 66.0732 67.0073 61.1428 67.0073 55.061V11.0122C67.0073 4.93033 62.0482 0 55.9309 0Z" fill="#F2ECBE"/>
<path d="M38.5877 39.6436H28.2246V38.1488L32.4547 33.8794C33.24 33.0908 33.9002 32.3882 34.434 31.7717C34.9746 31.1551 35.3855 30.5492 35.6668 29.9542C35.9482 29.3519 36.0889 28.6923 36.0889 27.9754C36.0889 27.0864 35.8219 26.4089 35.288 25.9429C34.7619 25.4697 34.0663 25.2332 33.2012 25.2332C32.4436 25.2332 31.7724 25.3621 31.1887 25.6202C30.6049 25.8784 30.0057 26.244 29.3932 26.7172L28.4306 25.5128C28.8482 25.1615 29.3035 24.8496 29.793 24.5772C30.2915 24.3047 30.8209 24.0897 31.3836 23.9319C31.9529 23.7742 32.5588 23.6953 33.2012 23.6953C34.1737 23.6953 35.0144 23.8638 35.7211 24.2008C36.4278 24.5377 36.9717 25.0181 37.3549 25.6418C37.7437 26.2656 37.9386 27.0076 37.9386 27.8678C37.9386 28.6995 37.7725 29.4739 37.4413 30.1907C37.109 30.9005 36.6438 31.6067 36.0457 32.3093C35.4475 33.0048 34.7475 33.7432 33.9467 34.5247L30.5075 37.9338V38.009H38.5877V39.6436Z" fill="black"/>
</svg>
