<svg width="67" height="67" viewBox="0 0 67 67" fill="none" xmlns="http://www.w3.org/2000/svg">
<path d="M55.382 0H11.0764C4.95908 0 0 4.93033 0 11.0122V55.061C0 61.1428 4.95908 66.0732 11.0764 66.0732H55.382C61.4994 66.0732 66.4584 61.1428 66.4584 55.061V11.0122C66.4584 4.93033 61.4994 0 55.382 0Z" fill="#F1CF87"/>
<path d="M37.6835 39.6443H35.9312V28.5031C35.9312 28.0801 35.9312 27.718 35.9312 27.4169C35.9384 27.1086 35.9456 26.829 35.9528 26.5781C35.9672 26.32 35.9852 26.0584 36.0068 25.7931C35.7833 26.0225 35.5742 26.2196 35.3795 26.3845C35.1847 26.5422 34.9432 26.7393 34.6547 26.976L32.8483 28.4171L31.9072 27.2019L36.1907 23.9219H37.6835V39.6443Z" fill="black"/>
</svg>
