<svg width="81" height="49" viewBox="0 0 81 49" fill="none" xmlns="http://www.w3.org/2000/svg">
<path d="M72.7857 0H8.71429C4.17766 0 0.5 3.65634 0.5 8.16667V40.8333C0.5 45.3437 4.17766 49 8.71429 49H72.7857C77.3223 49 81 45.3437 81 40.8333V8.16667C81 3.65634 77.3223 0 72.7857 0Z" fill="#F2ECBE"/>
<path d="M29.8588 29.3995H29.025V18.4815H25.2227V17.7398H33.6612V18.4815H29.8588V29.3995ZM36.0113 20.7305V29.3995H35.2014V20.7305H36.0113ZM35.6187 17.5244C35.8216 17.5244 35.9719 17.5856 36.068 17.7078C36.1641 17.8248 36.2125 17.9843 36.2125 18.1863C36.2125 18.3884 36.1641 18.5478 36.068 18.6649C35.9719 18.7818 35.8216 18.8403 35.6187 18.8403C35.4264 18.8403 35.2819 18.7818 35.1858 18.6649C35.0888 18.5478 35.0412 18.3884 35.0412 18.1863C35.0412 17.9843 35.0888 17.8248 35.1858 17.7078C35.2819 17.5856 35.4264 17.5244 35.6187 17.5244ZM42.2287 20.563C42.9721 20.563 43.5898 20.7358 44.0818 21.0814C44.5788 21.4269 44.9476 21.9002 45.1883 22.5009C45.4347 23.1017 45.558 23.7903 45.558 24.5665V25.1487H39.2609C39.2609 26.3397 39.536 27.2542 40.0864 27.8922C40.6425 28.5302 41.4368 28.8493 42.4694 28.8493C43.0091 28.8493 43.4773 28.8067 43.8732 28.7216C44.2741 28.6312 44.7176 28.4797 45.2047 28.2671V29.0088C44.7768 29.2002 44.3488 29.3384 43.9208 29.4235C43.4929 29.5139 43.0017 29.559 42.4447 29.559C41.5625 29.559 40.8224 29.3783 40.2228 29.0167C39.6297 28.6499 39.1804 28.1341 38.8756 27.4695C38.5758 26.8049 38.4263 26.0287 38.4263 25.1408C38.4263 24.2741 38.5709 23.4952 38.8592 22.804C39.1533 22.1128 39.5812 21.5679 40.1431 21.1691C40.7099 20.765 41.4048 20.563 42.2287 20.563ZM42.2205 21.2568C41.3859 21.2568 40.7099 21.5333 40.1907 22.0862C39.6773 22.6339 39.3751 23.426 39.2847 24.4629H44.7152C44.7152 23.8301 44.624 23.2719 44.4424 22.7881C44.2609 22.3042 43.9849 21.9294 43.6161 21.6635C43.253 21.3924 42.7873 21.2568 42.2205 21.2568ZM44.2576 19.5023H43.7368C43.4477 19.3055 43.1561 19.0743 42.862 18.8084C42.5679 18.5372 42.2928 18.2634 42.0357 17.987C41.7736 18.2634 41.4935 18.5372 41.1937 18.8084C40.8996 19.0743 40.608 19.3055 40.3197 19.5023H39.7981V19.3666C39.9961 19.1912 40.2072 18.9865 40.4314 18.7526C40.6565 18.5133 40.8758 18.2661 41.0894 18.0109C41.3087 17.7557 41.4935 17.5191 41.643 17.301H42.4291C42.5844 17.5191 42.7659 17.7557 42.9746 18.0109C43.1832 18.2661 43.4001 18.5133 43.6243 18.7526C43.8486 18.9865 44.0605 19.1912 44.2576 19.3666V19.5023ZM43.6646 17.8115C43.8995 17.5509 44.1081 17.2851 44.2905 17.014C44.472 16.7375 44.6429 16.4451 44.8039 16.1367H45.6541V16.2882C45.4503 16.586 45.2204 16.8784 44.9641 17.1655C44.707 17.4473 44.4375 17.7078 44.1541 17.9471H43.6646V17.8115ZM51.8222 20.563C52.9459 20.563 53.8149 20.9378 54.4294 21.6874C55.0504 22.4371 55.36 23.5431 55.36 25.0051C55.36 25.9835 55.213 26.8129 54.9189 27.4935C54.6249 28.1687 54.2051 28.6818 53.6597 29.0327C53.1192 29.3836 52.4694 29.559 51.7104 29.559C51.1864 29.559 50.7288 29.482 50.3387 29.3278C49.9534 29.1683 49.6322 28.9556 49.376 28.6898C49.1189 28.4186 48.9217 28.1208 48.782 27.7965H48.7262C48.7418 28.0996 48.7558 28.416 48.7665 28.7456C48.7771 29.0753 48.782 29.3862 48.782 29.6787V33.2357H47.9639V20.7305H48.6383L48.7344 22.4611H48.782C48.9266 22.1315 49.1295 21.8204 49.3916 21.5279C49.6536 21.2356 49.9854 21.0016 50.3863 20.8262C50.788 20.6507 51.2661 20.563 51.8222 20.563ZM51.7187 21.2727C51.0607 21.2727 50.512 21.4163 50.0742 21.7034C49.6404 21.9852 49.3168 22.3999 49.1032 22.9476C48.8946 23.4899 48.7878 24.1545 48.782 24.9414V25.0769C48.782 25.9223 48.8864 26.6268 49.095 27.1904C49.3094 27.7487 49.6273 28.1661 50.0495 28.4425C50.4775 28.719 51.0073 28.8572 51.6382 28.8572C52.2584 28.8572 52.7824 28.7057 53.2104 28.4026C53.6384 28.0996 53.9644 27.6609 54.1887 27.0867C54.4138 26.5125 54.5255 25.816 54.5255 24.9972C54.5255 23.7797 54.2905 22.8545 53.8199 22.2218C53.3549 21.5891 52.6543 21.2727 51.7187 21.2727Z" fill="black"/>
</svg>
