<svg width="50" height="49" viewBox="0 0 50 49" fill="none" xmlns="http://www.w3.org/2000/svg">
<path d="M41.0714 0H8.21428C3.67766 0 0 3.65634 0 8.16667V40.8333C0 45.3437 3.67766 49 8.21428 49H41.0714C45.6081 49 49.2857 45.3437 49.2857 40.8333V8.16667C49.2857 3.65634 45.6081 0 41.0714 0Z" fill="#F1CF87"/>
<path d="M28.2087 29.3996H20.5234V28.291L23.6605 25.1248C24.2429 24.54 24.7324 24.019 25.1284 23.5617C25.5292 23.1044 25.834 22.6551 26.0426 22.2139C26.2513 21.7672 26.3556 21.2781 26.3556 20.7464C26.3556 20.0871 26.1576 19.5847 25.7617 19.2391C25.3715 18.8882 24.8556 18.7127 24.2141 18.7127C23.6523 18.7127 23.1545 18.8084 22.7216 18.9998C22.2887 19.1912 21.8443 19.4624 21.39 19.8133L20.6762 18.9201C20.9859 18.6596 21.3235 18.4283 21.6866 18.2263C22.0562 18.0242 22.4489 17.8647 22.8661 17.7477C23.2884 17.6307 23.7377 17.5723 24.2141 17.5723C24.9353 17.5723 25.5588 17.6972 26.0829 17.9471C26.6069 18.197 27.0103 18.5532 27.2945 19.0158C27.5828 19.4784 27.7274 20.0286 27.7274 20.6666C27.7274 21.2834 27.6042 21.8576 27.3586 22.3893C27.1121 22.9156 26.7671 23.4394 26.3235 23.9604C25.88 24.4762 25.3608 25.0238 24.7669 25.6034L22.2164 28.1315V28.1873H28.2087V29.3996Z" fill="black"/>
</svg>
