<svg width="67" height="67" viewBox="0 0 67 67" fill="none" xmlns="http://www.w3.org/2000/svg">
<path d="M55.4797 0H11.1741C5.05673 0 0.0976562 4.93033 0.0976562 11.0122V55.061C0.0976562 61.1428 5.05673 66.0732 11.1741 66.0732H55.4797C61.597 66.0732 66.5561 61.1428 66.5561 55.061V11.0122C66.5561 4.93033 61.597 0 55.4797 0Z" fill="#F2ECBE"/>
<path d="M37.5515 27.5882C37.5515 28.2909 37.4153 28.9002 37.1406 29.4165C36.867 29.9326 36.4849 30.3557 35.9942 30.6854C35.5035 31.0081 34.9275 31.2339 34.264 31.363V31.449C35.519 31.6067 36.4594 32.0082 37.0874 32.6534C37.721 33.2987 38.0389 34.1447 38.0389 35.1914C38.0389 36.102 37.8229 36.9085 37.3898 37.6111C36.9645 38.3137 36.3076 38.8657 35.4215 39.2672C34.5409 39.6616 33.4123 39.8587 32.0355 39.8587C31.1992 39.8587 30.4238 39.7906 29.7094 39.6544C29.0027 39.5253 28.3249 39.3066 27.6758 38.9984V37.3207C28.3326 37.6434 29.0459 37.8979 29.818 38.0843C30.59 38.2635 31.3354 38.3531 32.0576 38.3531C33.4998 38.3531 34.5409 38.07 35.1834 37.5035C35.8247 36.93 36.1459 36.1486 36.1459 35.1591C36.1459 34.478 35.9654 33.9296 35.6054 33.5138C35.2521 33.0908 34.7392 32.7825 34.0691 32.589C33.4056 32.3882 32.6048 32.2878 31.6677 32.2878H30.0882V30.7607H31.6788C32.5361 30.7607 33.2649 30.6353 33.8631 30.3843C34.4623 30.1334 34.9164 29.7821 35.2266 29.3305C35.5434 28.8716 35.7029 28.3303 35.7029 27.7066C35.7029 26.9108 35.4359 26.2978 34.902 25.8676C34.3681 25.4303 33.6438 25.2116 32.7277 25.2116C32.1651 25.2116 31.6533 25.269 31.1914 25.3837C30.7307 25.4983 30.2976 25.6561 29.8933 25.8569C29.4901 26.0576 29.0858 26.2906 28.6826 26.5558L27.7733 25.33C28.3503 24.8854 29.0537 24.5018 29.8833 24.1792C30.7118 23.8566 31.6533 23.6953 32.7056 23.6953C34.3216 23.6953 35.5334 24.0609 36.3409 24.7922C37.1483 25.5234 37.5515 26.4555 37.5515 27.5882Z" fill="black"/>
</svg>
