<svg width="50" height="49" viewBox="0 0 50 49" fill="none" xmlns="http://www.w3.org/2000/svg">
<path d="M41.5714 0H8.71428C4.17766 0 0.5 3.65634 0.5 8.16667V40.8333C0.5 45.3437 4.17766 49 8.71428 49H41.5714C46.1081 49 49.7857 45.3437 49.7857 40.8333V8.16667C49.7857 3.65634 46.1081 0 41.5714 0Z" fill="#F2ECBE"/>
<path d="M28.7087 29.3996H21.0234V28.291L24.1605 25.1248C24.7429 24.54 25.2324 24.019 25.6284 23.5617C26.0292 23.1044 26.334 22.6551 26.5426 22.2139C26.7513 21.7672 26.8556 21.2781 26.8556 20.7464C26.8556 20.0871 26.6576 19.5847 26.2617 19.2391C25.8715 18.8882 25.3556 18.7127 24.7141 18.7127C24.1523 18.7127 23.6545 18.8084 23.2216 18.9998C22.7887 19.1912 22.3443 19.4624 21.89 19.8133L21.1762 18.9201C21.4859 18.6596 21.8235 18.4283 22.1866 18.2263C22.5562 18.0242 22.9489 17.8647 23.3661 17.7477C23.7884 17.6307 24.2377 17.5723 24.7141 17.5723C25.4353 17.5723 26.0588 17.6972 26.5829 17.9471C27.1069 18.197 27.5103 18.5532 27.7945 19.0158C28.0828 19.4784 28.2274 20.0286 28.2274 20.6666C28.2274 21.2834 28.1042 21.8576 27.8586 22.3893C27.6121 22.9156 27.2671 23.4394 26.8235 23.9604C26.38 24.4762 25.8608 25.0238 25.2669 25.6034L22.7164 28.1315V28.1873H28.7087V29.3996Z" fill="black"/>
</svg>
