<svg width="50" height="49" viewBox="0 0 50 49" fill="none" xmlns="http://www.w3.org/2000/svg">
<path d="M41.0714 0H8.21428C3.67766 0 0 3.65634 0 8.16667V40.8333C0 45.3437 3.67766 49 8.21428 49H41.0714C45.6081 49 49.2857 45.3437 49.2857 40.8333V8.16667C49.2857 3.65634 45.6081 0 41.0714 0Z" fill="#F1CF87"/>
<path d="M27.9477 29.4H26.6482V21.1376C26.6482 20.824 26.6482 20.5554 26.6482 20.3322C26.6536 20.1035 26.6589 19.8962 26.6642 19.7101C26.6749 19.5187 26.6883 19.3246 26.7043 19.1279C26.5386 19.298 26.3835 19.4442 26.2391 19.5665C26.0947 19.6835 25.9155 19.8297 25.7016 20.0052L24.3619 21.0739L23.6641 20.1727L26.8407 17.7402H27.9477V29.4Z" fill="black"/>
</svg>
