<svg width="31" height="31" viewBox="0 0 31 31" fill="none" xmlns="http://www.w3.org/2000/svg">
<path d="M2.58398 24.5413C2.58398 26.7372 4.26315 28.4163 6.45898 28.4163H24.5423C26.7382 28.4163 28.4173 26.7372 28.4173 24.5413V14.208H2.58398V24.5413ZM24.5423 5.16634H21.959V3.87467C21.959 3.09967 21.4423 2.58301 20.6673 2.58301C19.8923 2.58301 19.3757 3.09967 19.3757 3.87467V5.16634H11.6257V3.87467C11.6257 3.09967 11.109 2.58301 10.334 2.58301C9.55898 2.58301 9.04232 3.09967 9.04232 3.87467V5.16634H6.45898C4.26315 5.16634 2.58398 6.84551 2.58398 9.04134V11.6247H28.4173V9.04134C28.4173 6.84551 26.7382 5.16634 24.5423 5.16634Z" fill="#9F9F9F"/>
</svg>
