<svg width="15" height="14" viewBox="0 0 15 14" fill="none" xmlns="http://www.w3.org/2000/svg">
<path d="M0 11.8333C0 12.9667 0.967683 13.8333 2.2331 13.8333H12.6542C13.9197 13.8333 14.8873 12.9667 14.8873 11.8333V6.5H0V11.8333ZM12.6542 1.83333H11.1655V1.16667C11.1655 0.766667 10.8678 0.5 10.4211 0.5C9.97452 0.5 9.67677 0.766667 9.67677 1.16667V1.83333H5.21057V1.16667C5.21057 0.766667 4.91282 0.5 4.4662 0.5C4.01958 0.5 3.72183 0.766667 3.72183 1.16667V1.83333H2.2331C0.967683 1.83333 0 2.7 0 3.83333V5.16667H14.8873V3.83333C14.8873 2.7 13.9197 1.83333 12.6542 1.83333Z" fill="#9F9F9F"/>
</svg>
