<svg width="392" height="60" viewBox="0 0 392 60" fill="none" xmlns="http://www.w3.org/2000/svg">
<rect width="60" height="60" rx="10" fill="#F1CF87"/>
<path d="M34.0215 36H32.4395V25.8828C32.4395 25.4987 32.4395 25.1699 32.4395 24.8965C32.446 24.6165 32.4525 24.3626 32.459 24.1348C32.472 23.9004 32.4883 23.6628 32.5078 23.4219C32.306 23.6302 32.1172 23.8092 31.9414 23.959C31.7656 24.1022 31.5475 24.2812 31.2871 24.4961L29.6562 25.8047L28.8066 24.7012L32.6738 21.7227H34.0215V36Z" fill="black"/>
<rect x="98" width="60" height="60" rx="10" fill="#F2ECBE"/>
<path d="M132.342 36H122.986V34.6426L126.805 30.7656C127.514 30.0495 128.11 29.4115 128.592 28.8516C129.08 28.2917 129.451 27.7415 129.705 27.2012C129.959 26.6543 130.086 26.0553 130.086 25.4043C130.086 24.597 129.845 23.9818 129.363 23.5586C128.888 23.1289 128.26 22.9141 127.479 22.9141C126.795 22.9141 126.189 23.0312 125.662 23.2656C125.135 23.5 124.594 23.832 124.041 24.2617L123.172 23.168C123.549 22.849 123.96 22.5658 124.402 22.3184C124.852 22.071 125.33 21.8757 125.838 21.7324C126.352 21.5892 126.899 21.5176 127.479 21.5176C128.357 21.5176 129.116 21.6706 129.754 21.9766C130.392 22.2826 130.883 22.7188 131.229 23.2852C131.58 23.8516 131.756 24.5254 131.756 25.3066C131.756 26.0618 131.606 26.765 131.307 27.416C131.007 28.0605 130.587 28.7018 130.047 29.3398C129.507 29.9714 128.875 30.6419 128.152 31.3516L125.047 34.4473V34.5156H132.342V36Z" fill="black"/>
<rect x="196" width="60" height="60" rx="10" fill="#F2ECBE"/>
<path d="M229.814 25.0527C229.814 25.6908 229.691 26.2441 229.443 26.7129C229.196 27.1816 228.851 27.5658 228.408 27.8652C227.965 28.1582 227.445 28.3633 226.846 28.4805V28.5586C227.979 28.7018 228.828 29.0664 229.395 29.6523C229.967 30.2383 230.254 31.0065 230.254 31.957C230.254 32.7839 230.059 33.5163 229.668 34.1543C229.284 34.7923 228.691 35.2936 227.891 35.6582C227.096 36.0163 226.077 36.1953 224.834 36.1953C224.079 36.1953 223.379 36.1335 222.734 36.0098C222.096 35.8926 221.484 35.694 220.898 35.4141V33.8906C221.491 34.1836 222.135 34.4147 222.832 34.584C223.529 34.7467 224.202 34.8281 224.854 34.8281C226.156 34.8281 227.096 34.571 227.676 34.0566C228.255 33.5358 228.545 32.8262 228.545 31.9277C228.545 31.3092 228.382 30.8112 228.057 30.4336C227.738 30.0495 227.275 29.7695 226.67 29.5938C226.071 29.4115 225.348 29.3203 224.502 29.3203H223.076V27.9336H224.512C225.286 27.9336 225.944 27.8197 226.484 27.5918C227.025 27.3639 227.435 27.0449 227.715 26.6348C228.001 26.2181 228.145 25.7266 228.145 25.1602C228.145 24.4375 227.904 23.8809 227.422 23.4902C226.94 23.0931 226.286 22.8945 225.459 22.8945C224.951 22.8945 224.489 22.9466 224.072 23.0508C223.656 23.1549 223.265 23.2982 222.9 23.4805C222.536 23.6628 222.171 23.8743 221.807 24.1152L220.986 23.002C221.507 22.5983 222.142 22.25 222.891 21.957C223.639 21.6641 224.489 21.5176 225.439 21.5176C226.898 21.5176 227.992 21.8496 228.721 22.5137C229.45 23.1777 229.814 24.0241 229.814 25.0527Z" fill="black"/>
<rect x="294" width="98" height="60" rx="10" fill="#F2ECBE"/>
<path d="M329.742 36H328.727V22.6309H324.098V21.7227H334.371V22.6309H329.742V36ZM337.232 25.3848V36H336.246V25.3848H337.232ZM336.754 21.459C337.001 21.459 337.184 21.5339 337.301 21.6836C337.418 21.8268 337.477 22.0221 337.477 22.2695C337.477 22.5169 337.418 22.7122 337.301 22.8555C337.184 22.9987 337.001 23.0703 336.754 23.0703C336.52 23.0703 336.344 22.9987 336.227 22.8555C336.109 22.7122 336.051 22.5169 336.051 22.2695C336.051 22.0221 336.109 21.8268 336.227 21.6836C336.344 21.5339 336.52 21.459 336.754 21.459ZM344.801 25.1797C345.706 25.1797 346.458 25.3913 347.057 25.8145C347.662 26.2376 348.111 26.8171 348.404 27.5527C348.704 28.2884 348.854 29.1315 348.854 30.082V30.7949H341.188C341.188 32.2533 341.523 33.373 342.193 34.1543C342.87 34.9355 343.837 35.3262 345.094 35.3262C345.751 35.3262 346.321 35.2741 346.803 35.1699C347.291 35.0592 347.831 34.8737 348.424 34.6133V35.5215C347.903 35.7559 347.382 35.9251 346.861 36.0293C346.34 36.14 345.742 36.1953 345.064 36.1953C343.99 36.1953 343.089 35.974 342.359 35.5312C341.637 35.082 341.09 34.4505 340.719 33.6367C340.354 32.8229 340.172 31.8724 340.172 30.7852C340.172 29.724 340.348 28.7702 340.699 27.9238C341.057 27.0775 341.578 26.4102 342.262 25.9219C342.952 25.4271 343.798 25.1797 344.801 25.1797ZM344.791 26.0293C343.775 26.0293 342.952 26.3678 342.32 27.0449C341.695 27.7155 341.327 28.6855 341.217 29.9551H347.828C347.828 29.1803 347.717 28.4967 347.496 27.9043C347.275 27.3118 346.939 26.8529 346.49 26.5273C346.048 26.1953 345.481 26.0293 344.791 26.0293ZM347.271 23.8809H346.637C346.285 23.64 345.93 23.3568 345.572 23.0312C345.214 22.6992 344.879 22.3639 344.566 22.0254C344.247 22.3639 343.906 22.6992 343.541 23.0312C343.183 23.3568 342.828 23.64 342.477 23.8809H341.842V23.7148C342.083 23.5 342.34 23.2493 342.613 22.9629C342.887 22.6699 343.154 22.3672 343.414 22.0547C343.681 21.7422 343.906 21.4525 344.088 21.1855H345.045C345.234 21.4525 345.455 21.7422 345.709 22.0547C345.963 22.3672 346.227 22.6699 346.5 22.9629C346.773 23.2493 347.031 23.5 347.271 23.7148V23.8809ZM346.549 21.8105C346.835 21.4915 347.089 21.166 347.311 20.834C347.532 20.4954 347.74 20.1374 347.936 19.7598H348.971V19.9453C348.723 20.3099 348.443 20.668 348.131 21.0195C347.818 21.3646 347.49 21.6836 347.145 21.9766H346.549V21.8105ZM356.48 25.1797C357.848 25.1797 358.906 25.6387 359.654 26.5566C360.41 27.4746 360.787 28.8288 360.787 30.6191C360.787 31.8171 360.608 32.8327 360.25 33.666C359.892 34.4928 359.381 35.1211 358.717 35.5508C358.059 35.9805 357.268 36.1953 356.344 36.1953C355.706 36.1953 355.149 36.1009 354.674 35.9121C354.205 35.7168 353.814 35.4564 353.502 35.1309C353.189 34.7988 352.949 34.4342 352.779 34.0371H352.711C352.73 34.4082 352.747 34.7956 352.76 35.1992C352.773 35.6029 352.779 35.9837 352.779 36.3418V40.6973H351.783V25.3848H352.604L352.721 27.5039H352.779C352.955 27.1003 353.202 26.7194 353.521 26.3613C353.84 26.0033 354.244 25.7168 354.732 25.502C355.221 25.2871 355.803 25.1797 356.48 25.1797ZM356.354 26.0488C355.553 26.0488 354.885 26.2246 354.352 26.5762C353.824 26.9212 353.43 27.429 353.17 28.0996C352.916 28.7637 352.786 29.5775 352.779 30.541V30.707C352.779 31.7422 352.906 32.6048 353.16 33.2949C353.421 33.9785 353.808 34.4896 354.322 34.8281C354.843 35.1667 355.488 35.3359 356.256 35.3359C357.011 35.3359 357.649 35.1504 358.17 34.7793C358.691 34.4082 359.088 33.8711 359.361 33.168C359.635 32.4648 359.771 31.612 359.771 30.6094C359.771 29.1185 359.485 27.9857 358.912 27.2109C358.346 26.4362 357.493 26.0488 356.354 26.0488Z" fill="black"/>
</svg>
