<svg width="114" height="31" viewBox="0 0 114 31" fill="none" xmlns="http://www.w3.org/2000/svg">
<path d="M15.5 0.5H97.65C105.934 0.5 112.65 7.21573 112.65 15.5C112.65 23.7843 105.934 30.5 97.65 30.5H15.5C7.21574 30.5 0.5 23.7843 0.5 15.5C0.5 7.21573 7.21573 0.5 15.5 0.5Z" stroke="black"/>
<path d="M22.9473 19.1992H21.3477L19.1914 15.6895L17.0234 19.1992H15.5176L18.3652 14.7578L15.7109 10.6328H17.2637L19.2559 13.8789L21.2363 10.6328H22.7422L20.0762 14.7988L22.9473 19.1992ZM26.5449 12.5898C27.123 12.5898 27.6191 12.709 28.0332 12.9473C28.4473 13.1855 28.7656 13.5234 28.9883 13.9609C29.2109 14.3984 29.3223 14.9219 29.3223 15.5312V16.2695H24.9922C25.0078 16.8984 25.1758 17.3828 25.4961 17.7227C25.8203 18.0625 26.2734 18.2324 26.8555 18.2324C27.2695 18.2324 27.6406 18.1934 27.9688 18.1152C28.3008 18.0332 28.6426 17.9141 28.9941 17.7578V18.877C28.6699 19.0293 28.3398 19.1406 28.0039 19.2109C27.668 19.2812 27.2656 19.3164 26.7969 19.3164C26.1602 19.3164 25.5996 19.1934 25.1152 18.9473C24.6348 18.6973 24.2578 18.3262 23.9844 17.834C23.7148 17.3418 23.5801 16.7305 23.5801 16C23.5801 15.2734 23.7031 14.6562 23.9492 14.1484C24.1953 13.6406 24.541 13.2539 24.9863 12.9883C25.4316 12.7227 25.9512 12.5898 26.5449 12.5898ZM26.5449 13.627C26.1113 13.627 25.7598 13.7676 25.4902 14.0488C25.2246 14.3301 25.0684 14.7422 25.0215 15.2852H27.9746C27.9707 14.9609 27.916 14.6738 27.8105 14.4238C27.709 14.1738 27.5527 13.9785 27.3418 13.8379C27.1348 13.6973 26.8691 13.627 26.5449 13.627ZM38.2051 12.5898C38.9316 12.5898 39.4785 12.7773 39.8457 13.1523C40.2168 13.5273 40.4023 14.1289 40.4023 14.957V19.1992H39.0254V15.2031C39.0254 14.7109 38.9297 14.3398 38.7383 14.0898C38.5469 13.8398 38.2559 13.7148 37.8652 13.7148C37.3184 13.7148 36.9238 13.8906 36.6816 14.2422C36.4434 14.5898 36.3242 15.0957 36.3242 15.7598V19.1992H34.9473V15.2031C34.9473 14.875 34.9043 14.6016 34.8184 14.3828C34.7363 14.1602 34.6094 13.9941 34.4375 13.8848C34.2656 13.7715 34.0488 13.7148 33.7871 13.7148C33.4082 13.7148 33.1055 13.8008 32.8789 13.9727C32.6562 14.1445 32.4961 14.3984 32.3984 14.7344C32.3008 15.0664 32.252 15.4746 32.252 15.959V19.1992H30.875V12.7129H31.9473L32.1406 13.5859H32.2168C32.3496 13.3594 32.5137 13.1738 32.709 13.0293C32.9082 12.8809 33.1289 12.7715 33.3711 12.7012C33.6133 12.627 33.8652 12.5898 34.127 12.5898C34.6113 12.5898 35.0195 12.6758 35.3516 12.8477C35.6836 13.0156 35.9316 13.2734 36.0957 13.6211H36.2012C36.4043 13.2695 36.6875 13.0098 37.0508 12.8418C37.4141 12.6738 37.7988 12.5898 38.2051 12.5898ZM47.8555 18.2031C48.0352 18.2031 48.2129 18.1875 48.3887 18.1562C48.5645 18.1211 48.7246 18.0801 48.8691 18.0332V19.0762C48.7168 19.1426 48.5195 19.1992 48.2773 19.2461C48.0352 19.293 47.7832 19.3164 47.5215 19.3164C47.1543 19.3164 46.8242 19.2559 46.5312 19.1348C46.2383 19.0098 46.0059 18.7969 45.834 18.4961C45.6621 18.1953 45.5762 17.7793 45.5762 17.248V13.7617H44.6914V13.1465L45.6406 12.6602L46.0918 11.2715H46.959V12.7129H48.8164V13.7617H46.959V17.2305C46.959 17.5586 47.041 17.8027 47.2051 17.9629C47.3691 18.123 47.5859 18.2031 47.8555 18.2031ZM51.5645 10.082V12.373C51.5645 12.6113 51.5566 12.8438 51.541 13.0703C51.5293 13.2969 51.5156 13.4727 51.5 13.5977H51.5762C51.7129 13.3711 51.8809 13.1855 52.0801 13.041C52.2793 12.8926 52.502 12.7812 52.748 12.707C52.998 12.6328 53.2637 12.5957 53.5449 12.5957C54.041 12.5957 54.4629 12.6797 54.8105 12.8477C55.1582 13.0117 55.4238 13.2676 55.6074 13.6152C55.7949 13.9629 55.8887 14.4141 55.8887 14.9688V19.1992H54.5117V15.2266C54.5117 14.7227 54.4082 14.3457 54.2012 14.0957C53.9941 13.8418 53.6738 13.7148 53.2402 13.7148C52.8223 13.7148 52.4902 13.8027 52.2441 13.9785C52.002 14.1504 51.8281 14.4062 51.7227 14.7461C51.6172 15.082 51.5645 15.4922 51.5645 15.9766V19.1992H50.1875V10.082H51.5645ZM60.4004 12.5898C60.9785 12.5898 61.4746 12.709 61.8887 12.9473C62.3027 13.1855 62.6211 13.5234 62.8438 13.9609C63.0664 14.3984 63.1777 14.9219 63.1777 15.5312V16.2695H58.8477C58.8633 16.8984 59.0312 17.3828 59.3516 17.7227C59.6758 18.0625 60.1289 18.2324 60.7109 18.2324C61.125 18.2324 61.4961 18.1934 61.8242 18.1152C62.1562 18.0332 62.498 17.9141 62.8496 17.7578V18.877C62.5254 19.0293 62.1953 19.1406 61.8594 19.2109C61.5234 19.2812 61.1211 19.3164 60.6523 19.3164C60.0156 19.3164 59.4551 19.1934 58.9707 18.9473C58.4902 18.6973 58.1133 18.3262 57.8398 17.834C57.5703 17.3418 57.4355 16.7305 57.4355 16C57.4355 15.2734 57.5586 14.6562 57.8047 14.1484C58.0508 13.6406 58.3965 13.2539 58.8418 12.9883C59.2871 12.7227 59.8066 12.5898 60.4004 12.5898ZM60.4004 13.627C59.9668 13.627 59.6152 13.7676 59.3457 14.0488C59.0801 14.3301 58.9238 14.7422 58.877 15.2852H61.8301C61.8262 14.9609 61.7715 14.6738 61.666 14.4238C61.5645 14.1738 61.4082 13.9785 61.1973 13.8379C60.9902 13.6973 60.7246 13.627 60.4004 13.627ZM61.0977 10.0059C61.2031 10.1855 61.3438 10.3848 61.5195 10.6035C61.6992 10.8223 61.8848 11.0371 62.0762 11.248C62.2715 11.4551 62.4434 11.6328 62.5918 11.7812V11.9277H61.6543C61.4434 11.7949 61.2188 11.6367 60.9805 11.4531C60.7461 11.2656 60.5254 11.0645 60.3184 10.8496C60.1074 11.0645 59.8867 11.2637 59.6562 11.4473C59.4297 11.6309 59.2129 11.791 59.0059 11.9277H58.0742V11.7812C58.2227 11.6289 58.3926 11.4492 58.584 11.2422C58.7754 11.0352 58.959 10.8223 59.1348 10.6035C59.3105 10.3848 59.4512 10.1855 59.5566 10.0059H61.0977ZM72.0605 12.5898C72.7871 12.5898 73.334 12.7773 73.7012 13.1523C74.0723 13.5273 74.2578 14.1289 74.2578 14.957V19.1992H72.8809V15.2031C72.8809 14.7109 72.7852 14.3398 72.5938 14.0898C72.4023 13.8398 72.1113 13.7148 71.7207 13.7148C71.1738 13.7148 70.7793 13.8906 70.5371 14.2422C70.2988 14.5898 70.1797 15.0957 70.1797 15.7598V19.1992H68.8027V15.2031C68.8027 14.875 68.7598 14.6016 68.6738 14.3828C68.5918 14.1602 68.4648 13.9941 68.293 13.8848C68.1211 13.7715 67.9043 13.7148 67.6426 13.7148C67.2637 13.7148 66.9609 13.8008 66.7344 13.9727C66.5117 14.1445 66.3516 14.3984 66.2539 14.7344C66.1562 15.0664 66.1074 15.4746 66.1074 15.959V19.1992H64.7305V12.7129H65.8027L65.9961 13.5859H66.0723C66.2051 13.3594 66.3691 13.1738 66.5645 13.0293C66.7637 12.8809 66.9844 12.7715 67.2266 12.7012C67.4688 12.627 67.7207 12.5898 67.9824 12.5898C68.4668 12.5898 68.875 12.6758 69.207 12.8477C69.5391 13.0156 69.7871 13.2734 69.9512 13.6211H70.0566C70.2598 13.2695 70.543 13.0098 70.9062 12.8418C71.2695 12.6738 71.6543 12.5898 72.0605 12.5898Z" fill="black"/>
<path d="M91.4492 10.8496L96.0992 14.4663L91.4492 18.5996" stroke="black"/>
<circle cx="92.9984" cy="15.5004" r="10.35" stroke="black"/>
</svg>
