<svg width="17" height="18" viewBox="0 0 17 18" fill="none" xmlns="http://www.w3.org/2000/svg">
<path d="M15.952 3.64756C16.5705 3.01279 16.5705 1.98193 15.952 1.34717C15.3335 0.712402 14.3291 0.712402 13.7106 1.34717L8.50046 6.69951L3.28535 1.35225C2.66686 0.71748 1.66243 0.71748 1.04395 1.35225C0.425456 1.98701 0.425456 3.01787 1.04395 3.65264L6.25905 8.9999L1.04889 14.3522C0.430404 14.987 0.430404 16.0179 1.04889 16.6526C1.66738 17.2874 2.67181 17.2874 3.2903 16.6526L8.50046 11.3003L13.7156 16.6476C14.3341 17.2823 15.3385 17.2823 15.957 16.6476C16.5755 16.0128 16.5755 14.9819 15.957 14.3472L10.7419 8.9999L15.952 3.64756Z" fill="#1E3050"/>
</svg>
