<svg width="24" height="25" viewBox="0 0 24 25" fill="none" xmlns="http://www.w3.org/2000/svg">
<path d="M23.2897 4.26948C24.2268 3.29338 24.2268 1.70818 23.2897 0.732079C22.3526 -0.244026 20.8309 -0.244026 19.8938 0.732079L12 8.96259L4.0987 0.739887C3.16164 -0.236217 1.63986 -0.236217 0.702795 0.739887C-0.234265 1.71599 -0.234265 3.30119 0.702795 4.27729L8.60409 12.5L0.710292 20.7305C-0.226769 21.7066 -0.226769 23.2918 0.710292 24.2679C1.64735 25.244 3.16914 25.244 4.1062 24.2679L12 16.0374L19.9013 24.2601C20.8384 25.2362 22.3601 25.2362 23.2972 24.2601C24.2343 23.284 24.2343 21.6988 23.2972 20.7227L15.3959 12.5L23.2897 4.26948Z" fill="#1E3050"/>
</svg>
