<svg width="351" height="280" viewBox="0 0 351 280" fill="none" xmlns="http://www.w3.org/2000/svg">
<rect x="0.677734" y="24.3867" width="350" height="255.613" rx="15" fill="#EBEBEB"/>
<rect x="74.8379" width="202.584" height="48.7743" rx="24.3871" fill="#001C53"/>
<path d="M127.417 29.2422C127.417 30.2578 127.171 31.1406 126.679 31.8906C126.187 32.6406 125.468 33.2188 124.522 33.625C123.585 34.0312 122.444 34.2344 121.101 34.2344C120.507 34.2344 119.925 34.1953 119.354 34.1172C118.792 34.0391 118.249 33.9258 117.726 33.7773C117.21 33.6211 116.718 33.4297 116.249 33.2031V29.8281C117.062 30.1875 117.905 30.5117 118.78 30.8008C119.655 31.0898 120.522 31.2344 121.382 31.2344C121.976 31.2344 122.452 31.1562 122.812 31C123.179 30.8438 123.444 30.6289 123.608 30.3555C123.772 30.082 123.854 29.7695 123.854 29.418C123.854 28.9883 123.71 28.6211 123.421 28.3164C123.132 28.0117 122.733 27.7266 122.226 27.4609C121.726 27.1953 121.159 26.9102 120.526 26.6055C120.128 26.418 119.694 26.1914 119.226 25.9258C118.757 25.6523 118.312 25.3203 117.89 24.9297C117.468 24.5391 117.12 24.0664 116.847 23.5117C116.581 22.9492 116.448 22.2773 116.448 21.4961C116.448 20.4727 116.683 19.5977 117.151 18.8711C117.62 18.1445 118.288 17.5898 119.155 17.207C120.03 16.8164 121.062 16.6211 122.249 16.6211C123.14 16.6211 123.987 16.7266 124.792 16.9375C125.604 17.1406 126.452 17.4375 127.335 17.8281L126.163 20.6523C125.374 20.332 124.667 20.0859 124.042 19.9141C123.417 19.7344 122.78 19.6445 122.132 19.6445C121.679 19.6445 121.292 19.7188 120.972 19.8672C120.651 20.0078 120.409 20.2109 120.245 20.4766C120.081 20.7344 119.999 21.0352 119.999 21.3789C119.999 21.7852 120.116 22.1289 120.351 22.4102C120.593 22.6836 120.952 22.9492 121.429 23.207C121.913 23.4648 122.515 23.7656 123.233 24.1094C124.108 24.5234 124.854 24.957 125.472 25.4102C126.097 25.8555 126.577 26.3828 126.913 26.9922C127.249 27.5938 127.417 28.3438 127.417 29.2422ZM140.39 34H130.522V16.8672H140.39V19.8438H134.155V23.6055H139.956V26.582H134.155V31H140.39V34ZM149.448 16.8672C151.659 16.8672 153.272 17.3438 154.288 18.2969C155.304 19.2422 155.812 20.5469 155.812 22.2109C155.812 22.9609 155.698 23.6797 155.472 24.3672C155.245 25.0469 154.874 25.6523 154.358 26.1836C153.851 26.7148 153.171 27.1367 152.319 27.4492C151.468 27.7539 150.417 27.9062 149.167 27.9062H147.608V34H143.976V16.8672H149.448ZM149.261 19.8438H147.608V24.9297H148.804C149.483 24.9297 150.073 24.8398 150.573 24.6602C151.073 24.4805 151.46 24.1992 151.733 23.8164C152.007 23.4336 152.144 22.9414 152.144 22.3398C152.144 21.4961 151.909 20.8711 151.44 20.4648C150.972 20.0508 150.245 19.8438 149.261 19.8438ZM165.655 34H162.022V19.8906H157.37V16.8672H170.308V19.8906H165.655V34ZM182.812 34H172.944V16.8672H182.812V19.8438H176.577V23.6055H182.378V26.582H176.577V31H182.812V34ZM193.651 34L189.526 20.5586H189.421C189.437 20.8789 189.46 21.3633 189.491 22.0117C189.53 22.6523 189.565 23.3359 189.597 24.0625C189.628 24.7891 189.644 25.4453 189.644 26.0312V34H186.397V16.8672H191.343L195.397 29.9688H195.468L199.769 16.8672H204.714V34H201.327V25.8906C201.327 25.3516 201.335 24.7305 201.351 24.0273C201.374 23.3242 201.401 22.6562 201.433 22.0234C201.464 21.3828 201.487 20.9023 201.503 20.582H201.397L196.979 34H193.651ZM209.038 16.8672H214.37C216.651 16.8672 218.378 17.1875 219.55 17.8281C220.722 18.4688 221.308 19.5938 221.308 21.2031C221.308 21.8516 221.202 22.4375 220.991 22.9609C220.788 23.4844 220.491 23.9141 220.101 24.25C219.71 24.5859 219.233 24.8047 218.671 24.9062V25.0234C219.241 25.1406 219.757 25.3438 220.218 25.6328C220.679 25.9141 221.046 26.3281 221.319 26.875C221.601 27.4141 221.741 28.1328 221.741 29.0312C221.741 30.0703 221.487 30.9609 220.979 31.7031C220.472 32.4453 219.745 33.0156 218.8 33.4141C217.862 33.8047 216.745 34 215.448 34H209.038V16.8672ZM212.671 23.6523H214.78C215.835 23.6523 216.565 23.4883 216.972 23.1602C217.378 22.8242 217.581 22.332 217.581 21.6836C217.581 21.0273 217.339 20.5586 216.854 20.2773C216.378 19.9883 215.62 19.8438 214.581 19.8438H212.671V23.6523ZM212.671 26.5352V31H215.038C216.132 31 216.894 30.7891 217.323 30.3672C217.753 29.9453 217.968 29.3789 217.968 28.668C217.968 28.2461 217.874 27.875 217.687 27.5547C217.499 27.2344 217.183 26.9844 216.737 26.8047C216.3 26.625 215.694 26.5352 214.921 26.5352H212.671ZM235.03 34H225.163V16.8672H235.03V19.8438H228.796V23.6055H234.597V26.582H228.796V31H235.03V34ZM243.608 16.8672C245.163 16.8672 246.444 17.0547 247.452 17.4297C248.468 17.8047 249.222 18.3711 249.714 19.1289C250.206 19.8867 250.452 20.8438 250.452 22C250.452 22.7812 250.304 23.4648 250.007 24.0508C249.71 24.6367 249.319 25.1328 248.835 25.5391C248.351 25.9453 247.827 26.2773 247.265 26.5352L252.304 34H248.272L244.183 27.4258H242.249V34H238.616V16.8672H243.608ZM243.351 19.8438H242.249V24.4727H243.421C244.624 24.4727 245.483 24.2734 245.999 23.875C246.522 23.4688 246.784 22.875 246.784 22.0938C246.784 21.2812 246.503 20.7031 245.94 20.3594C245.386 20.0156 244.522 19.8438 243.351 19.8438Z" fill="white"/>
<g clip-path="url(#clip0_1690_932)">
<path d="M345.053 81.4707H7.91309V83.0152H345.053V81.4707Z" fill="black"/>
<path d="M23.6223 75.6902C22.7722 75.4373 22.0848 75.1212 21.5693 74.7238L22.4737 72.7186C22.9711 73.0889 23.559 73.378 24.2373 73.5947C24.9156 73.8115 25.6029 73.9289 26.2812 73.9289C27.0409 73.9289 27.6016 73.8115 27.9634 73.5947C28.3251 73.3689 28.506 73.0709 28.506 72.6915C28.506 72.4205 28.3975 72.1857 28.1804 72.005C27.9634 71.8244 27.6921 71.6799 27.3574 71.5715C27.0228 71.4631 26.5706 71.3367 25.9918 71.2102C25.1146 71.0025 24.391 70.7947 23.8303 70.587C23.2696 70.3792 22.7903 70.045 22.3833 69.5844C21.9854 69.1147 21.7864 68.5096 21.7864 67.7418C21.7864 67.0644 21.9673 66.4592 22.329 65.9173C22.6908 65.3754 23.2425 64.9418 23.975 64.6257C24.7257 64.2915 25.612 64.1289 26.6701 64.1289C27.4117 64.1289 28.1262 64.2192 28.8316 64.3908C29.537 64.5715 30.152 64.8154 30.6766 65.1496L29.8536 67.1728C28.7864 66.5676 27.7192 66.2696 26.652 66.2696C25.9014 66.2696 25.3497 66.396 24.997 66.6308C24.6352 66.8747 24.4634 67.1908 24.4634 67.5883C24.4634 67.9857 24.6714 68.2838 25.0784 68.4734C25.4944 68.6631 26.1184 68.8528 26.9686 69.0425C27.8458 69.2502 28.5693 69.4579 29.1301 69.6657C29.6908 69.8734 30.1701 70.2076 30.568 70.6502C30.966 71.1018 31.174 71.707 31.174 72.4838C31.174 73.1341 30.9931 73.7392 30.6223 74.2812C30.2515 74.8231 29.6998 75.2567 28.9673 75.5728C28.2347 75.8889 27.3394 76.0515 26.2812 76.0515C25.3587 76.0515 24.4815 75.9341 23.6223 75.6902Z" fill="#FF0000"/>
<path d="M78.5374 75.8614L78.5193 68.9426L75.1188 74.642H73.9159L70.5335 69.0962V75.8614H68.0283V64.3271H70.2441L74.5671 71.4897L78.8268 64.3271H81.0154L81.0516 75.8523H78.5374V75.8614Z" fill="black"/>
<path d="M121.36 66.5039H117.67V64.3271H127.727V66.5039H124.037V75.8614H121.36V66.5039Z" fill="black"/>
<path d="M180.091 64.3271L176.311 75.8523H173.444L170.903 68.0394L168.28 75.8523H165.422L161.633 64.3271H164.409L167.014 72.4291L169.736 64.3271H172.214L174.855 72.4923L177.541 64.3271H180.091Z" fill="black"/>
<path d="M217.687 66.5039H213.997V64.3271H224.054V66.5039H220.364V75.8614H217.687V66.5039Z" fill="black"/>
<path d="M265.963 66.4678V69.5207H271.308V71.6614H265.963V75.8614H263.286V64.3271H272.014V66.4678H265.963Z" fill="black"/>
<path d="M312.603 75.6902C311.753 75.4373 311.065 75.1212 310.55 74.7238L311.454 72.7186C311.952 73.0889 312.539 73.378 313.218 73.5947C313.896 73.8115 314.583 73.9289 315.262 73.9289C316.021 73.9289 316.582 73.8115 316.944 73.5947C317.306 73.3689 317.486 73.0709 317.486 72.6915C317.486 72.4205 317.378 72.1857 317.161 72.005C316.944 71.8244 316.673 71.6799 316.338 71.5715C316.003 71.4631 315.551 71.3367 314.972 71.2102C314.095 71.0025 313.372 70.7947 312.811 70.587C312.25 70.3792 311.771 70.045 311.364 69.5844C310.966 69.1147 310.767 68.5096 310.767 67.7418C310.767 67.0644 310.948 66.4592 311.309 65.9173C311.671 65.3754 312.223 64.9418 312.955 64.6257C313.697 64.2915 314.592 64.1289 315.642 64.1289C316.383 64.1289 317.098 64.2192 317.803 64.3908C318.508 64.5715 319.123 64.8154 319.648 65.1496L318.825 67.1728C317.758 66.5676 316.691 66.2696 315.623 66.2696C314.873 66.2696 314.321 66.396 313.968 66.6308C313.607 66.8747 313.435 67.1908 313.435 67.5883C313.435 67.9857 313.643 68.2838 314.05 68.4734C314.466 68.6631 315.09 68.8528 315.94 69.0425C316.817 69.2502 317.541 69.4579 318.101 69.6657C318.662 69.8734 319.142 70.2076 319.539 70.6502C319.937 71.1018 320.145 71.707 320.145 72.4838C320.145 73.1341 319.965 73.7392 319.594 74.2812C319.223 74.8231 318.671 75.2567 317.939 75.5728C317.206 75.8889 316.311 76.0515 315.253 76.0515C314.339 76.0515 313.453 75.9341 312.603 75.6902Z" fill="black"/>
<path d="M269.056 94.5947V106.129H266.388V96.7354H264.082V94.5947H269.056Z" fill="#333333"/>
<path d="M319.757 103.952V106.129H311.029V104.404L315.488 100.204C315.958 99.7519 316.275 99.3635 316.447 99.0383C316.61 98.7132 316.691 98.397 316.691 98.0809C316.691 97.6203 316.537 97.268 316.221 97.0241C315.904 96.7712 315.452 96.6538 314.846 96.6538C314.34 96.6538 313.887 96.7532 313.471 96.9429C313.064 97.1416 312.73 97.4306 312.449 97.81L310.505 96.5635C310.957 95.8951 311.581 95.3712 312.368 94.9919C313.155 94.6125 314.068 94.4229 315.09 94.4229C315.949 94.4229 316.7 94.5674 317.342 94.8474C317.984 95.1274 318.482 95.5248 318.843 96.0396C319.205 96.5454 319.377 97.1506 319.377 97.837C319.377 98.4603 319.241 99.0474 318.979 99.5983C318.717 100.14 318.201 100.773 317.442 101.477L314.783 103.979H319.757V103.952Z" fill="#333333"/>
<path d="M29.872 133.352C30.4056 133.939 30.6769 134.671 30.6769 135.538C30.6769 136.206 30.5051 136.82 30.1524 137.389C29.7996 137.949 29.2661 138.41 28.5425 138.753C27.819 139.087 26.9418 139.259 25.8927 139.259C25.0787 139.259 24.2738 139.151 23.487 138.943C22.7002 138.726 22.0309 138.419 21.4883 138.031L22.5283 135.98C22.9715 136.315 23.4779 136.567 24.0568 136.748C24.6356 136.929 25.2234 137.019 25.8294 137.019C26.4986 137.019 27.0322 136.884 27.4121 136.631C27.8009 136.378 27.9909 136.016 27.9909 135.538C27.9909 134.589 27.2673 134.12 25.8294 134.12H24.6084V132.358L26.987 129.667H22.0671V127.535H30.1433V129.26L27.5387 132.223C28.5606 132.385 29.3294 132.765 29.872 133.352Z" fill="#FF0000"/>
<path d="M80.0749 136.64H78.1938V139.061H75.5892V136.64H69.376V134.843L74.8204 127.526H77.624L72.5775 134.463H75.6796V132.304H78.2029V134.463H80.084V136.64H80.0749Z" fill="#333333"/>
<path d="M126 132.837C126.768 133.478 127.166 134.345 127.166 135.438C127.166 136.143 126.985 136.784 126.642 137.362C126.289 137.94 125.755 138.401 125.032 138.744C124.308 139.087 123.422 139.259 122.373 139.259C121.559 139.259 120.763 139.151 119.976 138.943C119.189 138.726 118.52 138.419 117.978 138.031L119.036 135.98C119.479 136.315 119.976 136.567 120.555 136.748C121.125 136.929 121.713 137.019 122.319 137.019C122.988 137.019 123.521 136.884 123.901 136.622C124.281 136.36 124.48 135.989 124.48 135.52C124.48 135.023 124.281 134.653 123.883 134.4C123.485 134.147 122.789 134.02 121.794 134.02H118.837L119.434 127.535H126.479V129.676H121.658L121.478 131.871H122.418C124.019 131.862 125.222 132.187 126 132.837Z" fill="#333333"/>
<path d="M173.815 132.278C174.421 132.576 174.9 132.991 175.253 133.542C175.605 134.084 175.777 134.716 175.777 135.43C175.777 136.198 175.587 136.866 175.198 137.453C174.819 138.04 174.285 138.492 173.625 138.799C172.955 139.115 172.214 139.269 171.409 139.269C169.79 139.269 168.533 138.781 167.62 137.787C166.706 136.803 166.254 135.394 166.254 133.551C166.254 132.25 166.498 131.121 166.996 130.191C167.493 129.252 168.18 128.547 169.067 128.069C169.953 127.581 170.975 127.337 172.141 127.337C172.756 127.337 173.344 127.409 173.914 127.545C174.484 127.68 174.963 127.879 175.361 128.123L174.366 130.083C173.797 129.703 173.073 129.505 172.205 129.505C171.228 129.505 170.45 129.794 169.881 130.363C169.311 130.932 169.003 131.763 168.958 132.847C169.636 132.169 170.586 131.826 171.807 131.826C172.539 131.826 173.209 131.979 173.815 132.278ZM172.657 136.803C173.019 136.487 173.191 136.071 173.191 135.547C173.191 135.023 173.01 134.608 172.657 134.292C172.304 133.976 171.825 133.822 171.228 133.822C170.649 133.822 170.17 133.985 169.79 134.31C169.419 134.635 169.229 135.05 169.229 135.556C169.229 136.062 169.41 136.478 169.772 136.794C170.134 137.11 170.631 137.272 171.255 137.272C171.834 137.263 172.295 137.11 172.657 136.803Z" fill="#333333"/>
<path d="M223.593 127.535V129.26L219.306 139.06H216.403L220.545 129.703H216.719V131.573H214.35V127.535H223.593Z" fill="#333333"/>
<path d="M271.597 134.12C271.905 134.59 272.05 135.123 272.05 135.719C272.05 136.433 271.851 137.056 271.444 137.589C271.037 138.122 270.467 138.537 269.725 138.826C268.993 139.115 268.134 139.26 267.166 139.26C266.198 139.26 265.348 139.115 264.625 138.826C263.892 138.537 263.322 138.122 262.924 137.589C262.526 137.056 262.318 136.433 262.318 135.719C262.318 135.123 262.472 134.59 262.771 134.12C263.078 133.66 263.503 133.289 264.064 133C263.63 132.738 263.304 132.404 263.078 132.007C262.843 131.6 262.734 131.14 262.734 130.625C262.734 129.957 262.924 129.378 263.295 128.882C263.666 128.385 264.19 128.006 264.86 127.735C265.529 127.464 266.298 127.328 267.166 127.328C268.043 127.328 268.821 127.464 269.499 127.735C270.178 128.006 270.702 128.385 271.073 128.882C271.444 129.378 271.634 129.957 271.634 130.625C271.634 131.14 271.516 131.6 271.29 132.007C271.064 132.404 270.72 132.738 270.286 133C270.865 133.289 271.299 133.66 271.597 134.12ZM268.767 136.848C269.156 136.55 269.355 136.144 269.355 135.638C269.355 135.132 269.165 134.735 268.767 134.427C268.378 134.138 267.844 133.985 267.175 133.985C266.515 133.985 265.99 134.129 265.61 134.427C265.221 134.726 265.032 135.123 265.032 135.638C265.032 136.153 265.221 136.559 265.61 136.857C265.99 137.155 266.515 137.3 267.175 137.3C267.844 137.3 268.378 137.146 268.767 136.848ZM265.882 129.686C265.556 129.938 265.393 130.3 265.393 130.742C265.393 131.185 265.556 131.528 265.873 131.781C266.189 132.034 266.623 132.16 267.175 132.16C267.727 132.16 268.17 132.034 268.495 131.781C268.821 131.528 268.993 131.185 268.993 130.742C268.993 130.291 268.83 129.938 268.495 129.686C268.161 129.424 267.727 129.297 267.175 129.297C266.641 129.288 266.207 129.424 265.882 129.686Z" fill="#333333"/>
<path d="M318.59 128.809C319.504 129.794 319.956 131.203 319.956 133.046C319.956 134.355 319.712 135.475 319.224 136.406C318.735 137.336 318.048 138.049 317.153 138.528C316.257 139.016 315.235 139.251 314.069 139.251C313.454 139.251 312.866 139.187 312.305 139.052C311.744 138.907 311.265 138.718 310.867 138.465L311.853 136.505C312.414 136.893 313.137 137.083 314.014 137.083C314.991 137.083 315.769 136.794 316.339 136.216C316.908 135.638 317.216 134.807 317.261 133.723C316.565 134.418 315.615 134.762 314.394 134.762C313.653 134.762 312.983 134.617 312.386 134.319C311.78 134.021 311.301 133.606 310.948 133.055C310.596 132.513 310.424 131.88 310.424 131.167C310.424 130.399 310.614 129.722 311.003 129.144C311.382 128.566 311.907 128.114 312.576 127.798C313.246 127.482 313.978 127.328 314.801 127.328C316.42 127.328 317.677 127.825 318.59 128.809ZM316.429 132.278C316.8 131.962 316.981 131.546 316.981 131.031C316.981 130.526 316.8 130.119 316.447 129.803C316.085 129.487 315.597 129.324 314.973 129.324C314.403 129.324 313.933 129.478 313.58 129.785C313.227 130.092 313.047 130.507 313.047 131.031C313.047 131.555 313.227 131.98 313.58 132.296C313.942 132.612 314.412 132.766 315.009 132.766C315.579 132.775 316.058 132.603 316.429 132.278Z" fill="#333333"/>
<path d="M22.6363 160.476V172.001H19.9683V162.607H17.6621V160.467H22.6363V160.476Z" fill="#FF0000"/>
<path d="M27.0409 171.496C26.2903 171.026 25.7024 170.34 25.2864 169.445C24.8613 168.551 24.6533 167.476 24.6533 166.239C24.6533 164.992 24.8613 163.927 25.2864 163.032C25.7115 162.138 26.2993 161.452 27.0409 160.982C27.7825 160.512 28.6417 160.269 29.5913 160.269C30.55 160.269 31.4001 160.503 32.1507 160.982C32.9014 161.452 33.4892 162.138 33.9053 163.032C34.3303 163.927 34.5383 164.992 34.5383 166.239C34.5383 167.476 34.3303 168.551 33.9053 169.445C33.4802 170.34 32.8923 171.026 32.1507 171.496C31.4001 171.965 30.55 172.2 29.5913 172.2C28.6417 172.2 27.7916 171.965 27.0409 171.496ZM31.2554 169.039C31.6533 168.434 31.8523 167.503 31.8523 166.239C31.8523 164.974 31.6533 164.044 31.2554 163.439C30.8575 162.834 30.3058 162.536 29.6003 162.536C28.904 162.536 28.3613 162.834 27.9634 163.439C27.5655 164.035 27.3665 164.974 27.3665 166.239C27.3665 167.503 27.5655 168.434 27.9634 169.039C28.3613 169.644 28.913 169.942 29.6003 169.942C30.3058 169.942 30.8575 169.644 31.2554 169.039Z" fill="#FF0000"/>
<path d="M73.1736 160.476V172.001H70.4966V162.607H68.1904V160.467H73.1736V160.476Z" fill="#333333"/>
<path d="M79.6314 160.476V172.001H76.9634V162.607H74.6572V160.467H79.6314V160.476Z" fill="#333333"/>
<path d="M119.696 160.477V172.002H117.028V162.608H114.722V160.468H119.696V160.477Z" fill="#333333"/>
<path d="M130.331 169.825V172.002H121.604V170.277L126.062 166.077C126.533 165.625 126.858 165.237 127.021 164.911C127.184 164.586 127.265 164.27 127.265 163.954C127.265 163.493 127.111 163.141 126.795 162.897C126.478 162.644 126.026 162.527 125.42 162.527C124.914 162.527 124.452 162.626 124.046 162.816C123.639 163.015 123.304 163.304 123.024 163.683L121.079 162.437C121.531 161.768 122.155 161.244 122.942 160.865C123.738 160.486 124.642 160.296 125.664 160.296C126.524 160.296 127.274 160.44 127.916 160.72C128.558 161 129.056 161.398 129.418 161.913C129.779 162.418 129.951 163.024 129.951 163.71C129.951 164.333 129.816 164.92 129.553 165.471C129.291 166.013 128.775 166.646 128.016 167.35L125.357 169.852H130.331V169.825Z" fill="#333333"/>
<path d="M167.836 160.476V172.001H165.169V162.607H162.862V160.467H167.836V160.476Z" fill="#333333"/>
<path d="M177.567 166.293C178.101 166.88 178.372 167.612 178.372 168.479C178.372 169.147 178.2 169.761 177.848 170.331C177.495 170.891 176.961 171.351 176.238 171.694C175.514 172.029 174.637 172.2 173.588 172.2C172.774 172.2 171.969 172.092 171.182 171.884C170.395 171.667 169.726 171.36 169.184 170.972L170.224 168.931C170.667 169.265 171.173 169.518 171.752 169.698C172.331 169.879 172.919 169.978 173.525 169.978C174.194 169.978 174.728 169.843 175.107 169.59C175.496 169.337 175.686 168.967 175.686 168.497C175.686 167.549 174.963 167.079 173.525 167.079H172.304V165.318L174.682 162.626H169.762V160.485H177.839V162.211L175.234 165.173C176.256 165.336 177.025 165.706 177.567 166.293Z" fill="#333333"/>
<path d="M215.209 160.476V172.001H212.541V162.607H210.234V160.467H215.209V160.476Z" fill="#333333"/>
<path d="M227.789 169.58H225.908V172.001H223.303V169.58H217.09V167.783L222.534 160.467H225.338L220.291 167.404H223.393V165.245H225.917V167.404H227.798V169.58H227.789Z" fill="#333333"/>
<path d="M264.155 160.476V172.001H261.487V162.607H259.181V160.467H264.155V160.476Z" fill="#333333"/>
<path d="M273.723 165.778C274.492 166.419 274.89 167.295 274.89 168.379C274.89 169.084 274.709 169.725 274.365 170.303C274.013 170.881 273.479 171.342 272.755 171.685C272.032 172.028 271.146 172.2 270.097 172.2C269.283 172.2 268.487 172.092 267.7 171.884C266.913 171.667 266.244 171.36 265.701 170.972L266.759 168.93C267.193 169.264 267.7 169.517 268.279 169.698C268.848 169.879 269.436 169.978 270.042 169.978C270.711 169.978 271.245 169.843 271.625 169.581C272.005 169.319 272.204 168.948 272.204 168.479C272.204 167.982 272.005 167.612 271.607 167.359C271.209 167.106 270.513 166.979 269.518 166.979H266.56L267.157 160.494H274.202V162.635H269.382L269.201 164.83H270.142C271.743 164.803 272.945 165.128 273.723 165.778Z" fill="#333333"/>
<path d="M311.96 160.476V172.001H309.293V162.607H306.986V160.467H311.96V160.476Z" fill="#333333"/>
<path d="M321.538 165.218C322.144 165.516 322.624 165.932 322.976 166.483C323.329 167.024 323.501 167.657 323.501 168.37C323.501 169.138 323.311 169.806 322.922 170.393C322.542 170.981 322.009 171.432 321.348 171.739C320.679 172.055 319.937 172.209 319.133 172.209C317.514 172.209 316.257 171.721 315.343 170.728C314.43 169.743 313.978 168.334 313.978 166.492C313.978 165.191 314.222 164.062 314.719 163.132C315.217 162.192 315.904 161.488 316.79 161.009C317.676 160.521 318.698 160.277 319.865 160.277C320.48 160.277 321.068 160.35 321.638 160.485C322.208 160.621 322.687 160.819 323.085 161.063L322.09 163.023C321.52 162.644 320.797 162.445 319.928 162.445C318.952 162.445 318.174 162.734 317.604 163.303C317.034 163.872 316.727 164.703 316.682 165.787C317.36 165.11 318.31 164.766 319.53 164.766C320.263 164.766 320.941 164.92 321.538 165.218ZM320.381 169.752C320.742 169.436 320.914 169.021 320.914 168.497C320.914 167.973 320.733 167.557 320.381 167.241C320.028 166.925 319.549 166.772 318.952 166.772C318.373 166.772 317.894 166.934 317.514 167.259C317.143 167.584 316.953 168 316.953 168.506C316.953 169.012 317.134 169.427 317.496 169.743C317.857 170.059 318.355 170.222 318.979 170.222C319.558 170.213 320.028 170.059 320.381 169.752Z" fill="#333333"/>
<path d="M23.1246 193.426V204.951H20.4566V195.558H18.1504V193.417H23.1246V193.426Z" fill="#FF0000"/>
<path d="M34.1765 193.426V195.151L29.8897 204.951H26.9866L31.1287 195.594H27.3031V197.463H24.9336V193.417H34.1765V193.426Z" fill="#FF0000"/>
<path d="M70.9585 193.425V204.95H68.2906V195.557H65.9844V193.416H70.9585V193.425Z" fill="#333333"/>
<path d="M82.1824 200.01C82.4899 200.48 82.6346 201.013 82.6346 201.609C82.6346 202.322 82.4356 202.946 82.0286 203.478C81.6217 204.011 81.0519 204.427 80.3103 204.716C79.5777 205.005 78.7186 205.149 77.7509 205.149C76.7832 205.149 75.933 205.005 75.2095 204.716C74.477 204.427 73.9072 204.011 73.5093 203.478C73.1113 202.946 72.9033 202.331 72.9033 201.609C72.9033 201.013 73.0571 200.48 73.3555 200.01C73.663 199.549 74.0881 199.179 74.6488 198.89C74.2237 198.628 73.8891 198.294 73.663 197.896C73.4279 197.49 73.3193 197.029 73.3193 196.515C73.3193 195.846 73.5093 195.268 73.8801 194.771C74.2509 194.275 74.7754 193.895 75.4447 193.624C76.1139 193.353 76.8826 193.218 77.7509 193.218C78.6281 193.218 79.4059 193.353 80.0842 193.624C80.7625 193.895 81.287 194.275 81.6578 194.771C82.0286 195.268 82.2186 195.846 82.2186 196.515C82.2186 197.029 82.101 197.49 81.8749 197.896C81.6488 198.294 81.3051 198.628 80.871 198.89C81.4408 199.179 81.8839 199.549 82.1824 200.01ZM79.3426 202.738C79.7315 202.44 79.9304 202.033 79.9304 201.527C79.9304 201.022 79.7405 200.624 79.3426 200.317C78.9537 200.019 78.4201 199.875 77.7509 199.875C77.0907 199.875 76.5661 200.019 76.1863 200.317C75.7974 200.615 75.6075 201.013 75.6075 201.527C75.6075 202.042 75.7974 202.449 76.1863 202.747C76.5661 203.045 77.0907 203.189 77.7509 203.189C78.4292 203.189 78.9537 203.045 79.3426 202.738ZM76.4576 195.575C76.132 195.828 75.9692 196.189 75.9692 196.632C75.9692 197.075 76.132 197.418 76.4485 197.671C76.7651 197.924 77.1992 198.05 77.7509 198.05C78.3025 198.05 78.7457 197.924 79.0713 197.671C79.3969 197.418 79.5687 197.075 79.5687 196.632C79.5687 196.18 79.4059 195.828 79.0713 195.575C78.7367 195.313 78.3025 195.187 77.7509 195.187C77.2173 195.178 76.7832 195.313 76.4576 195.575Z" fill="#333333"/>
<path d="M119.307 193.425V204.95H116.639V195.557H114.333V193.416H119.307V193.425Z" fill="#333333"/>
<path d="M129.174 194.699C130.088 195.684 130.54 197.093 130.54 198.935C130.54 200.245 130.296 201.365 129.808 202.295C129.319 203.226 128.623 203.939 127.736 204.418C126.841 204.906 125.819 205.14 124.653 205.14C124.038 205.14 123.45 205.077 122.889 204.942C122.328 204.797 121.849 204.607 121.451 204.355L122.437 202.395C122.997 202.783 123.721 202.973 124.598 202.973C125.575 202.973 126.353 202.684 126.923 202.106C127.492 201.527 127.8 200.696 127.845 199.613C127.149 200.308 126.199 200.651 124.978 200.651C124.236 200.651 123.567 200.507 122.97 200.209C122.364 199.911 121.885 199.495 121.532 198.944C121.18 198.402 121.008 197.77 121.008 197.056C121.008 196.289 121.198 195.611 121.587 195.024C121.966 194.446 122.491 193.995 123.16 193.687C123.83 193.371 124.562 193.218 125.376 193.218C126.995 193.218 128.261 193.715 129.174 194.699ZM127.004 198.167C127.375 197.851 127.556 197.436 127.556 196.921C127.556 196.415 127.375 196.009 127.022 195.693C126.66 195.376 126.172 195.214 125.548 195.214C124.978 195.214 124.508 195.367 124.155 195.675C123.802 195.982 123.622 196.397 123.622 196.921C123.622 197.445 123.802 197.869 124.155 198.186C124.517 198.502 124.987 198.655 125.584 198.655C126.154 198.664 126.633 198.493 127.004 198.167Z" fill="#333333"/>
<path d="M169.673 202.774V204.951H160.945V203.226L165.404 199.026C165.874 198.574 166.2 198.186 166.363 197.861C166.526 197.535 166.607 197.219 166.607 196.903C166.607 196.443 166.453 196.09 166.137 195.846C165.82 195.594 165.368 195.476 164.762 195.476C164.256 195.476 163.803 195.575 163.387 195.765C162.98 195.964 162.646 196.253 162.365 196.632L160.421 195.386C160.873 194.717 161.497 194.194 162.284 193.814C163.08 193.435 163.984 193.245 165.006 193.245C165.865 193.245 166.616 193.39 167.258 193.67C167.9 193.95 168.398 194.347 168.759 194.862C169.121 195.368 169.293 195.973 169.293 196.659C169.293 197.283 169.157 197.87 168.895 198.421C168.633 198.963 168.117 199.595 167.358 200.29L164.699 202.792H169.673V202.774Z" fill="#333333"/>
<path d="M173.164 204.445C172.413 203.975 171.825 203.289 171.409 202.395C170.984 201.5 170.776 200.426 170.776 199.188C170.776 197.942 170.984 196.876 171.409 195.982C171.835 195.087 172.422 194.401 173.164 193.931C173.906 193.462 174.765 193.218 175.714 193.218C176.673 193.218 177.523 193.453 178.274 193.931C179.024 194.401 179.612 195.087 180.028 195.982C180.453 196.876 180.661 197.942 180.661 199.188C180.661 200.426 180.453 201.5 180.028 202.395C179.603 203.289 179.015 203.975 178.274 204.445C177.523 204.915 176.673 205.149 175.714 205.149C174.765 205.149 173.915 204.915 173.164 204.445ZM177.378 201.988C177.776 201.383 177.975 200.453 177.975 199.188C177.975 197.924 177.776 196.993 177.378 196.388C176.981 195.783 176.429 195.485 175.723 195.485C175.027 195.485 174.484 195.783 174.086 196.388C173.689 196.984 173.49 197.924 173.49 199.188C173.49 200.453 173.689 201.383 174.086 201.988C174.484 202.593 175.036 202.891 175.723 202.891C176.429 202.891 176.981 202.593 177.378 201.988Z" fill="#333333"/>
<path d="M220.192 202.774V204.951H211.465V203.226L215.924 199.026C216.394 198.574 216.719 198.186 216.882 197.861C217.045 197.535 217.126 197.219 217.126 196.903C217.126 196.443 216.973 196.09 216.656 195.846C216.34 195.594 215.887 195.476 215.282 195.476C214.775 195.476 214.323 195.575 213.907 195.765C213.5 195.964 213.165 196.253 212.885 196.632L210.94 195.386C211.393 194.717 212.017 194.194 212.803 193.814C213.599 193.435 214.504 193.245 215.526 193.245C216.385 193.245 217.136 193.39 217.778 193.67C218.42 193.95 218.926 194.347 219.279 194.862C219.641 195.368 219.813 195.973 219.813 196.659C219.813 197.283 219.677 197.87 219.415 198.421C219.152 198.963 218.637 199.595 217.877 200.29L215.218 202.792H220.192V202.774Z" fill="#333333"/>
<path d="M225.754 193.426V204.951H223.086V195.558H220.78V193.417H225.754V193.426Z" fill="#333333"/>
<path d="M266.732 202.774V204.951H258.005V203.226L262.464 199.026C262.934 198.574 263.25 198.186 263.422 197.861C263.585 197.535 263.667 197.219 263.667 196.903C263.667 196.443 263.513 196.09 263.196 195.846C262.88 195.594 262.427 195.476 261.822 195.476C261.315 195.476 260.863 195.575 260.447 195.765C260.04 195.964 259.705 196.253 259.425 196.632L257.48 195.386C257.933 194.717 258.557 194.194 259.344 193.814C260.139 193.435 261.044 193.245 262.066 193.245C262.925 193.245 263.676 193.39 264.318 193.67C264.96 193.95 265.457 194.347 265.819 194.862C266.181 195.368 266.353 195.973 266.353 196.659C266.353 197.283 266.217 197.87 265.955 198.421C265.692 198.963 265.177 199.595 264.417 200.29L261.758 202.792H266.732V202.774Z" fill="#333333"/>
<path d="M276.464 202.774V204.951H267.736V203.226L272.195 199.026C272.665 198.574 272.991 198.186 273.154 197.861C273.317 197.535 273.398 197.219 273.398 196.903C273.398 196.443 273.244 196.09 272.928 195.846C272.611 195.594 272.159 195.476 271.553 195.476C271.047 195.476 270.594 195.575 270.178 195.765C269.771 195.964 269.437 196.253 269.156 196.632L267.212 195.386C267.664 194.717 268.288 194.194 269.075 193.814C269.871 193.435 270.775 193.245 271.797 193.245C272.656 193.245 273.407 193.39 274.049 193.67C274.691 193.95 275.189 194.347 275.55 194.862C275.912 195.368 276.084 195.973 276.084 196.659C276.084 197.283 275.948 197.87 275.686 198.421C275.424 198.963 274.908 199.595 274.149 200.29L271.49 202.792H276.464V202.774Z" fill="#333333"/>
<path d="M314.873 202.774V204.951H306.146V203.226L310.604 199.026C311.075 198.574 311.4 198.186 311.563 197.861C311.726 197.535 311.807 197.219 311.807 196.903C311.807 196.443 311.653 196.09 311.337 195.846C311.02 195.594 310.568 195.476 309.962 195.476C309.456 195.476 308.994 195.575 308.588 195.765C308.181 195.964 307.846 196.253 307.566 196.632L305.621 195.386C306.073 194.717 306.697 194.194 307.484 193.814C308.28 193.435 309.184 193.245 310.206 193.245C311.066 193.245 311.816 193.39 312.458 193.67C313.1 193.95 313.598 194.347 313.96 194.862C314.321 195.368 314.493 195.973 314.493 196.659C314.493 197.283 314.358 197.87 314.095 198.421C313.833 198.963 313.317 199.595 312.558 200.29L309.899 202.792H314.873V202.774Z" fill="#333333"/>
<path d="M323.7 199.243C324.233 199.83 324.505 200.562 324.505 201.429C324.505 202.097 324.333 202.711 323.98 203.28C323.628 203.84 323.094 204.301 322.37 204.644C321.647 204.978 320.77 205.15 319.721 205.15C318.907 205.15 318.102 205.042 317.324 204.834C316.537 204.617 315.868 204.31 315.325 203.922L316.365 201.871C316.808 202.205 317.315 202.458 317.894 202.639C318.472 202.82 319.06 202.91 319.666 202.91C320.336 202.91 320.869 202.774 321.249 202.522C321.638 202.269 321.828 201.907 321.828 201.429C321.828 200.48 321.104 200.011 319.666 200.011H318.445V198.249L320.824 195.558H315.904V193.417H323.98V195.142L321.376 198.105C322.379 198.285 323.157 198.656 323.7 199.243Z" fill="#333333"/>
<path d="M25.0967 235.724V237.9H16.3693V236.175L20.8279 231.975C21.2982 231.524 21.6238 231.135 21.7866 230.81C21.9494 230.485 22.0308 230.169 22.0308 229.844C22.0308 229.383 21.877 229.031 21.5605 228.787C21.244 228.534 20.7918 228.417 20.1858 228.417C19.6794 228.417 19.2272 228.516 18.8111 228.706C18.4042 228.904 18.0695 229.193 17.7892 229.573L15.8447 228.326C16.2969 227.658 16.921 227.134 17.7078 226.755C18.4946 226.375 19.408 226.186 20.43 226.186C21.2892 226.186 22.0398 226.33 22.6819 226.61C23.3241 226.89 23.8305 227.287 24.1832 227.802C24.545 228.308 24.7168 228.913 24.7168 229.6C24.7168 230.223 24.5812 230.81 24.3189 231.361C24.0566 231.903 23.5411 232.535 22.7814 233.231L20.1225 235.733H25.0967V235.724Z" fill="#FF0000"/>
<path d="M36.7722 235.48H34.8911V237.9H32.2864V235.48H26.0732V233.682L31.5177 226.366H34.3213L29.2748 233.303H32.3769V231.144H34.9001V233.303H36.7813V235.48H36.7722Z" fill="#FF0000"/>
<path d="M74.0332 235.724V237.9H65.3058V236.175L69.7645 231.975C70.2347 231.524 70.5603 231.135 70.7231 230.81C70.8859 230.485 70.9673 230.169 70.9673 229.844C70.9673 229.383 70.8135 229.031 70.497 228.787C70.1805 228.534 69.7283 228.417 69.1223 228.417C68.6159 228.417 68.1637 228.516 67.7477 228.706C67.3407 228.904 67.0061 229.193 66.7257 229.573L64.7812 228.326C65.2334 227.658 65.8575 227.134 66.6443 226.755C67.4402 226.375 68.3446 226.186 69.3665 226.186C70.2257 226.186 70.9763 226.33 71.6185 226.61C72.2606 226.89 72.767 227.287 73.1197 227.802C73.4815 228.308 73.6533 228.913 73.6533 229.6C73.6533 230.223 73.5177 230.81 73.2554 231.361C72.9931 231.903 72.4776 232.535 71.7179 233.231L69.059 235.733H74.0332V235.724Z" fill="#333333"/>
<path d="M82.7068 231.677C83.4755 232.318 83.8644 233.194 83.8644 234.278C83.8644 234.983 83.6835 235.624 83.3399 236.202C82.9872 236.78 82.4536 237.241 81.73 237.584C81.0065 237.927 80.1202 238.099 79.0711 238.099C78.2572 238.099 77.4613 237.99 76.6745 237.783C75.8877 237.566 75.2184 237.259 74.6758 236.87L75.7339 234.82C76.168 235.154 76.6745 235.407 77.2533 235.588C77.8231 235.769 78.4109 235.859 79.0169 235.859C79.6861 235.859 80.2197 235.723 80.5996 235.461C80.9794 235.2 81.1784 234.829 81.1784 234.36C81.1784 233.863 80.9794 233.492 80.5815 233.24C80.1835 232.987 79.4872 232.86 78.4923 232.86H75.535L76.1319 226.375H83.1771V228.516H78.3567L78.1758 230.71H79.1164C80.7262 230.701 81.929 231.027 82.7068 231.677Z" fill="#333333"/>
<path d="M121.849 235.724V237.9H113.121V236.175L117.58 231.975C118.05 231.524 118.376 231.135 118.539 230.81C118.701 230.485 118.783 230.169 118.783 229.844C118.783 229.383 118.629 229.031 118.312 228.787C117.996 228.534 117.544 228.417 116.938 228.417C116.431 228.417 115.979 228.516 115.563 228.706C115.156 228.904 114.821 229.193 114.541 229.573L112.597 228.326C113.049 227.658 113.673 227.134 114.46 226.755C115.256 226.375 116.16 226.186 117.182 226.186C118.041 226.186 118.792 226.33 119.434 226.61C120.076 226.89 120.582 227.287 120.935 227.802C121.297 228.308 121.469 228.913 121.469 229.6C121.469 230.223 121.333 230.81 121.071 231.361C120.809 231.903 120.293 232.535 119.533 233.231L116.874 235.733H121.849V235.724Z" fill="#333333"/>
<path d="M130.522 231.117C131.128 231.415 131.607 231.831 131.96 232.382C132.312 232.924 132.484 233.556 132.484 234.27C132.484 235.037 132.294 235.706 131.905 236.293C131.526 236.88 130.992 237.332 130.332 237.639C129.662 237.955 128.921 238.108 128.116 238.108C126.497 238.108 125.24 237.621 124.327 236.627C123.413 235.643 122.961 234.234 122.961 232.391C122.961 231.09 123.205 229.961 123.703 229.031C124.2 228.092 124.887 227.387 125.774 226.908C126.66 226.421 127.682 226.177 128.849 226.177C129.464 226.177 130.051 226.249 130.621 226.384C131.191 226.52 131.67 226.719 132.068 226.963L131.073 228.923C130.504 228.543 129.78 228.344 128.912 228.344C127.935 228.344 127.157 228.634 126.588 229.203C126.018 229.772 125.71 230.603 125.665 231.686C126.343 231.009 127.293 230.666 128.514 230.666C129.246 230.666 129.916 230.819 130.522 231.117ZM129.355 235.643C129.717 235.326 129.889 234.911 129.889 234.387C129.889 233.863 129.708 233.448 129.355 233.132C129.002 232.815 128.523 232.662 127.926 232.662C127.347 232.662 126.868 232.825 126.488 233.15C126.117 233.475 125.927 233.89 125.927 234.396C125.927 234.902 126.108 235.317 126.47 235.634C126.832 235.95 127.329 236.112 127.953 236.112C128.541 236.103 129.002 235.95 129.355 235.643Z" fill="#333333"/>
<path d="M170.152 235.724V237.9H161.425V236.175L165.884 231.975C166.354 231.524 166.67 231.135 166.842 230.81C167.005 230.485 167.086 230.169 167.086 229.844C167.086 229.383 166.933 229.031 166.616 228.787C166.3 228.534 165.847 228.417 165.241 228.417C164.735 228.417 164.283 228.516 163.867 228.706C163.46 228.904 163.125 229.193 162.845 229.573L160.9 228.326C161.353 227.658 161.977 227.134 162.763 226.755C163.55 226.375 164.464 226.186 165.486 226.186C166.345 226.186 167.095 226.33 167.738 226.61C168.38 226.89 168.877 227.287 169.239 227.802C169.601 228.308 169.772 228.913 169.772 229.6C169.772 230.223 169.637 230.81 169.375 231.361C169.112 231.903 168.597 232.535 167.837 233.231L165.178 235.733H170.152V235.724Z" fill="#333333"/>
<path d="M180.291 226.375V228.1L176.004 237.9H173.101L177.243 228.543H173.418V230.413H171.039V226.366H180.291V226.375Z" fill="#333333"/>
<path d="M217.985 235.725V237.901H209.258V236.176L213.717 231.976C214.187 231.525 214.512 231.136 214.675 230.811C214.838 230.486 214.919 230.17 214.919 229.845C214.919 229.384 214.766 229.032 214.449 228.788C214.133 228.535 213.68 228.417 213.074 228.417C212.568 228.417 212.116 228.517 211.7 228.707C211.293 228.905 210.958 229.194 210.678 229.574L208.733 228.327C209.186 227.659 209.81 227.135 210.596 226.756C211.383 226.376 212.297 226.187 213.319 226.187C214.178 226.187 214.928 226.331 215.571 226.611C216.213 226.891 216.71 227.288 217.072 227.803C217.434 228.309 217.605 228.914 217.605 229.601C217.605 230.224 217.47 230.811 217.208 231.362C216.945 231.904 216.43 232.536 215.67 233.232L213.011 235.734H217.985V235.725Z" fill="#333333"/>
<path d="M228.295 232.96C228.602 233.43 228.747 233.963 228.747 234.559C228.747 235.273 228.548 235.896 228.132 236.429C227.725 236.962 227.155 237.377 226.414 237.666C225.681 237.955 224.822 238.1 223.854 238.1C222.887 238.1 222.037 237.955 221.313 237.666C220.58 237.377 220.011 236.962 219.613 236.429C219.215 235.896 219.007 235.282 219.007 234.559C219.007 233.963 219.161 233.43 219.459 232.96C219.767 232.5 220.192 232.129 220.752 231.84C220.318 231.578 219.993 231.244 219.767 230.847C219.531 230.44 219.423 229.98 219.423 229.465C219.423 228.796 219.613 228.218 219.984 227.722C220.354 227.225 220.879 226.845 221.548 226.574C222.217 226.303 222.986 226.168 223.854 226.168C224.732 226.168 225.509 226.303 226.188 226.574C226.866 226.845 227.391 227.225 227.761 227.722C228.132 228.218 228.322 228.796 228.322 229.465C228.322 229.98 228.205 230.44 227.978 230.847C227.752 231.244 227.409 231.578 226.975 231.84C227.562 232.12 227.996 232.5 228.295 232.96ZM225.464 235.679C225.853 235.381 226.052 234.974 226.052 234.469C226.052 233.963 225.862 233.565 225.464 233.258C225.075 232.969 224.542 232.816 223.872 232.816C223.212 232.816 222.688 232.96 222.308 233.258C221.919 233.556 221.729 233.954 221.729 234.469C221.729 234.983 221.919 235.39 222.308 235.688C222.688 235.977 223.212 236.131 223.872 236.131C224.542 236.14 225.075 235.986 225.464 235.679ZM222.579 228.525C222.254 228.778 222.091 229.14 222.091 229.582C222.091 230.025 222.254 230.368 222.57 230.621C222.887 230.874 223.321 231 223.872 231C224.424 231 224.867 230.874 225.193 230.621C225.518 230.368 225.69 230.025 225.69 229.582C225.69 229.131 225.528 228.778 225.193 228.525C224.858 228.263 224.424 228.137 223.872 228.137C223.33 228.128 222.896 228.263 222.579 228.525Z" fill="#333333"/>
<path d="M266.344 235.725V237.901H257.616V236.176L262.075 231.976C262.545 231.525 262.862 231.136 263.034 230.811C263.196 230.486 263.278 230.17 263.278 229.845C263.278 229.384 263.124 229.032 262.808 228.788C262.491 228.535 262.039 228.417 261.433 228.417C260.926 228.417 260.474 228.517 260.058 228.707C259.651 228.905 259.317 229.194 259.036 229.574L257.092 228.327C257.544 227.659 258.168 227.135 258.955 226.756C259.751 226.376 260.655 226.187 261.677 226.187C262.536 226.187 263.287 226.331 263.929 226.611C264.571 226.891 265.069 227.288 265.43 227.803C265.792 228.309 265.964 228.914 265.964 229.601C265.964 230.224 265.828 230.811 265.566 231.362C265.304 231.904 264.788 232.536 264.029 233.232L261.37 235.734H266.344V235.725Z" fill="#333333"/>
<path d="M275.298 227.649C276.211 228.625 276.663 230.043 276.663 231.885C276.663 233.195 276.419 234.315 275.931 235.245C275.442 236.176 274.746 236.889 273.86 237.368C272.964 237.856 271.942 238.091 270.776 238.091C270.161 238.091 269.573 238.027 269.012 237.892C268.451 237.747 267.972 237.558 267.574 237.305L268.56 235.345C269.121 235.733 269.844 235.923 270.721 235.923C271.698 235.923 272.476 235.634 273.046 235.056C273.615 234.478 273.923 233.647 273.968 232.563C273.272 233.258 272.322 233.602 271.101 233.602C270.36 233.602 269.69 233.457 269.093 233.159C268.487 232.861 268.008 232.445 267.655 231.894C267.303 231.353 267.131 230.72 267.131 230.007C267.131 229.239 267.321 228.562 267.71 227.983C268.09 227.405 268.614 226.954 269.283 226.638C269.953 226.322 270.685 226.168 271.499 226.168C273.118 226.168 274.384 226.665 275.298 227.649ZM273.127 231.118C273.498 230.802 273.679 230.386 273.679 229.871C273.679 229.365 273.498 228.959 273.145 228.643C272.783 228.327 272.295 228.164 271.671 228.164C271.101 228.164 270.631 228.318 270.278 228.625C269.925 228.932 269.745 229.347 269.745 229.871C269.745 230.395 269.925 230.82 270.278 231.136C270.64 231.452 271.11 231.605 271.707 231.605C272.286 231.605 272.756 231.443 273.127 231.118Z" fill="#333333"/>
<path d="M313.245 232.192C313.778 232.779 314.05 233.511 314.05 234.378C314.05 235.046 313.878 235.66 313.525 236.229C313.172 236.789 312.639 237.25 311.915 237.593C311.192 237.928 310.315 238.099 309.265 238.099C308.451 238.099 307.647 237.991 306.869 237.783C306.082 237.566 305.413 237.259 304.87 236.871L305.91 234.82C306.353 235.155 306.86 235.408 307.439 235.588C308.017 235.769 308.605 235.859 309.211 235.859C309.88 235.859 310.414 235.724 310.794 235.471C311.183 235.218 311.373 234.857 311.373 234.378C311.373 233.429 310.649 232.96 309.211 232.96H307.99V231.198L310.369 228.507H305.449V226.366H313.525V228.091L310.921 231.054C311.924 231.226 312.702 231.605 313.245 232.192Z" fill="#333333"/>
<path d="M317.685 237.395C316.935 236.925 316.356 236.239 315.931 235.345C315.506 234.451 315.298 233.376 315.298 232.138C315.298 230.892 315.506 229.826 315.931 228.932C316.356 228.038 316.944 227.351 317.685 226.882C318.427 226.412 319.286 226.168 320.245 226.168C321.204 226.168 322.054 226.403 322.804 226.882C323.555 227.351 324.143 228.038 324.559 228.932C324.984 229.826 325.192 230.892 325.192 232.138C325.192 233.376 324.984 234.451 324.559 235.345C324.134 236.239 323.546 236.925 322.804 237.395C322.054 237.865 321.204 238.1 320.245 238.1C319.277 238.1 318.427 237.865 317.685 237.395ZM321.891 234.938C322.289 234.333 322.497 233.403 322.497 232.138C322.497 230.874 322.298 229.943 321.891 229.338C321.493 228.733 320.941 228.435 320.236 228.435C319.539 228.435 318.997 228.733 318.599 229.338C318.201 229.934 318.002 230.874 318.002 232.138C318.002 233.403 318.201 234.333 318.599 234.938C318.997 235.543 319.548 235.842 320.236 235.842C320.941 235.842 321.493 235.543 321.891 234.938Z" fill="#333333"/>
<ellipse cx="265.842" cy="165.5" rx="15.52" ry="15.5" fill="black"/>
<path d="M262.935 160.462V170.971H260.502V162.406H258.399V160.454H262.935V160.462Z" fill="white"/>
<path d="M271.658 165.296C272.359 165.881 272.722 166.68 272.722 167.668C272.722 168.31 272.557 168.895 272.243 169.422C271.922 169.949 271.435 170.369 270.776 170.682C270.116 170.995 269.308 171.151 268.351 171.151C267.609 171.151 266.883 171.053 266.166 170.863C265.449 170.666 264.839 170.386 264.344 170.031L265.309 168.17C265.704 168.475 266.166 168.706 266.694 168.87C267.213 169.035 267.749 169.126 268.302 169.126C268.912 169.126 269.398 169.002 269.745 168.763C270.091 168.524 270.273 168.187 270.273 167.759C270.273 167.306 270.091 166.968 269.728 166.737C269.366 166.507 268.731 166.391 267.824 166.391H265.127L265.671 160.479H272.095V162.43H267.7L267.535 164.431H268.393C269.852 164.407 270.949 164.703 271.658 165.296Z" fill="white"/>
</g>
<defs>
<clipPath id="clip0_1690_932">
<rect width="337.14" height="173.971" fill="white" transform="translate(7.91309 64.1289)"/>
</clipPath>
</defs>
</svg>
