<svg width="261" height="209" viewBox="0 0 261 209" fill="none" xmlns="http://www.w3.org/2000/svg">
<rect x="-0.00585938" y="18" width="261" height="191" rx="15" fill="#EBEBEB"/>
<rect x="54.9941" width="151" height="36" rx="18" fill="#001C53"/>
<path d="M92.1797 21.8281C92.1797 22.5052 92.0156 23.0938 91.6875 23.5938C91.3594 24.0938 90.8802 24.4792 90.25 24.75C89.625 25.0208 88.8646 25.1562 87.9688 25.1562C87.5729 25.1562 87.1849 25.1302 86.8047 25.0781C86.4297 25.026 86.0677 24.9505 85.7188 24.8516C85.375 24.7474 85.0469 24.6198 84.7344 24.4688V22.2188C85.276 22.4583 85.8385 22.6745 86.4219 22.8672C87.0052 23.0599 87.5833 23.1562 88.1562 23.1562C88.5521 23.1562 88.8698 23.1042 89.1094 23C89.3542 22.8958 89.5312 22.7526 89.6406 22.5703C89.75 22.388 89.8047 22.1797 89.8047 21.9453C89.8047 21.6589 89.7083 21.4141 89.5156 21.2109C89.3229 21.0078 89.0573 20.8177 88.7188 20.6406C88.3854 20.4635 88.0078 20.2734 87.5859 20.0703C87.3203 19.9453 87.0312 19.7943 86.7188 19.6172C86.4062 19.4349 86.1094 19.2135 85.8281 18.9531C85.5469 18.6927 85.3151 18.3776 85.1328 18.0078C84.9557 17.6328 84.8672 17.1849 84.8672 16.6641C84.8672 15.9818 85.0234 15.3984 85.3359 14.9141C85.6484 14.4297 86.0938 14.0599 86.6719 13.8047C87.2552 13.5443 87.9427 13.4141 88.7344 13.4141C89.3281 13.4141 89.8932 13.4844 90.4297 13.625C90.9714 13.7604 91.5365 13.9583 92.125 14.2188L91.3438 16.1016C90.8177 15.888 90.3464 15.724 89.9297 15.6094C89.513 15.4896 89.0885 15.4297 88.6562 15.4297C88.3542 15.4297 88.0964 15.4792 87.8828 15.5781C87.6693 15.6719 87.5078 15.8073 87.3984 15.9844C87.2891 16.1562 87.2344 16.3568 87.2344 16.5859C87.2344 16.8568 87.3125 17.0859 87.4688 17.2734C87.6302 17.4557 87.8698 17.6328 88.1875 17.8047C88.5104 17.9766 88.9115 18.1771 89.3906 18.4062C89.974 18.6823 90.4714 18.9714 90.8828 19.2734C91.2995 19.5703 91.6198 19.9219 91.8438 20.3281C92.0677 20.7292 92.1797 21.2292 92.1797 21.8281ZM100.828 25H94.25V13.5781H100.828V15.5625H96.6719V18.0703H100.539V20.0547H96.6719V23H100.828V25ZM106.867 13.5781C108.341 13.5781 109.417 13.8958 110.094 14.5312C110.771 15.1615 111.109 16.0312 111.109 17.1406C111.109 17.6406 111.034 18.1198 110.883 18.5781C110.732 19.0312 110.484 19.4349 110.141 19.7891C109.802 20.1432 109.349 20.4245 108.781 20.6328C108.214 20.8359 107.513 20.9375 106.68 20.9375H105.641V25H103.219V13.5781H106.867ZM106.742 15.5625H105.641V18.9531H106.438C106.891 18.9531 107.284 18.8932 107.617 18.7734C107.951 18.6536 108.208 18.4661 108.391 18.2109C108.573 17.9557 108.664 17.6276 108.664 17.2266C108.664 16.6641 108.508 16.2474 108.195 15.9766C107.883 15.7005 107.398 15.5625 106.742 15.5625ZM117.672 25H115.25V15.5938H112.148V13.5781H120.773V15.5938H117.672V25ZM129.109 25H122.531V13.5781H129.109V15.5625H124.953V18.0703H128.82V20.0547H124.953V23H129.109V25ZM136.336 25L133.586 16.0391H133.516C133.526 16.2526 133.542 16.5755 133.562 17.0078C133.589 17.4349 133.612 17.8906 133.633 18.375C133.654 18.8594 133.664 19.2969 133.664 19.6875V25H131.5V13.5781H134.797L137.5 22.3125H137.547L140.414 13.5781H143.711V25H141.453V19.5938C141.453 19.2344 141.458 18.8203 141.469 18.3516C141.484 17.8828 141.503 17.4375 141.523 17.0156C141.544 16.5885 141.56 16.2682 141.57 16.0547H141.5L138.555 25H136.336ZM146.594 13.5781H150.148C151.669 13.5781 152.82 13.7917 153.602 14.2188C154.383 14.6458 154.773 15.3958 154.773 16.4688C154.773 16.901 154.703 17.2917 154.562 17.6406C154.427 17.9896 154.229 18.276 153.969 18.5C153.708 18.724 153.391 18.8698 153.016 18.9375V19.0156C153.396 19.0938 153.74 19.2292 154.047 19.4219C154.354 19.6094 154.599 19.8854 154.781 20.25C154.969 20.6094 155.062 21.0885 155.062 21.6875C155.062 22.3802 154.893 22.974 154.555 23.4688C154.216 23.9635 153.732 24.3438 153.102 24.6094C152.477 24.8698 151.732 25 150.867 25H146.594V13.5781ZM149.016 18.1016H150.422C151.125 18.1016 151.612 17.9922 151.883 17.7734C152.154 17.5495 152.289 17.2214 152.289 16.7891C152.289 16.3516 152.128 16.0391 151.805 15.8516C151.487 15.6589 150.982 15.5625 150.289 15.5625H149.016V18.1016ZM149.016 20.0234V23H150.594C151.323 23 151.831 22.8594 152.117 22.5781C152.404 22.2969 152.547 21.9193 152.547 21.4453C152.547 21.1641 152.484 20.9167 152.359 20.7031C152.234 20.4896 152.023 20.3229 151.727 20.2031C151.435 20.0833 151.031 20.0234 150.516 20.0234H149.016ZM163.922 25H157.344V13.5781H163.922V15.5625H159.766V18.0703H163.633V20.0547H159.766V23H163.922V25ZM169.641 13.5781C170.677 13.5781 171.531 13.7031 172.203 13.9531C172.88 14.2031 173.383 14.5807 173.711 15.0859C174.039 15.5911 174.203 16.2292 174.203 17C174.203 17.5208 174.104 17.9766 173.906 18.3672C173.708 18.7578 173.448 19.0885 173.125 19.3594C172.802 19.6302 172.453 19.8516 172.078 20.0234L175.438 25H172.75L170.023 20.6172H168.734V25H166.312V13.5781H169.641ZM169.469 15.5625H168.734V18.6484H169.516C170.318 18.6484 170.891 18.5156 171.234 18.25C171.583 17.9792 171.758 17.5833 171.758 17.0625C171.758 16.5208 171.57 16.1354 171.195 15.9062C170.826 15.6771 170.25 15.5625 169.469 15.5625Z" fill="white"/>
<g clip-path="url(#clip0_656_926)">
<path d="M256.994 60.959H5.99414V62.1131H256.994V60.959Z" fill="black"/>
<path d="M17.6905 56.6392C17.0576 56.4502 16.5459 56.214 16.1621 55.917L16.8354 54.4187C17.2058 54.6954 17.6434 54.9114 18.1484 55.0734C18.6534 55.2353 19.1651 55.3231 19.6701 55.3231C20.2357 55.3231 20.6531 55.2353 20.9225 55.0734C21.1918 54.9046 21.3265 54.6819 21.3265 54.3984C21.3265 54.1959 21.2457 54.0205 21.0841 53.8855C20.9225 53.7505 20.7205 53.6425 20.4714 53.5615C20.2222 53.4805 19.8856 53.386 19.4546 53.2915C18.8015 53.1363 18.2629 52.9811 17.8454 52.8258C17.4279 52.6706 17.0711 52.4209 16.7681 52.0766C16.4718 51.7257 16.3237 51.2735 16.3237 50.6998C16.3237 50.1936 16.4584 49.7413 16.7277 49.3364C16.997 48.9314 17.4078 48.6074 17.9531 48.3712C18.512 48.1215 19.1718 48 19.9596 48C20.5118 48 21.0437 48.0675 21.5689 48.1957C22.0941 48.3307 22.5519 48.513 22.9424 48.7627L22.3297 50.2745C21.5352 49.8223 20.7407 49.5996 19.9462 49.5996C19.3873 49.5996 18.9766 49.6941 18.714 49.8696C18.4447 50.0518 18.3167 50.288 18.3167 50.585C18.3167 50.882 18.4716 51.1047 18.7746 51.2465C19.0843 51.3882 19.5489 51.5299 20.1818 51.6717C20.8349 51.8269 21.3736 51.9821 21.7911 52.1374C22.2085 52.2926 22.5654 52.5423 22.8616 52.8731C23.1579 53.2105 23.3128 53.6627 23.3128 54.2432C23.3128 54.7291 23.1781 55.1814 22.902 55.5863C22.626 55.9913 22.2153 56.3152 21.6699 56.5515C21.1245 56.7877 20.4579 56.9092 19.6701 56.9092C18.9833 56.9092 18.3302 56.8215 17.6905 56.6392Z" fill="#FF0000"/>
<path d="M58.574 56.7674L58.5605 51.5974L56.0288 55.8562H55.1333L52.6151 51.7121V56.7674H50.75V48.1484H52.3996L55.6181 53.5007L58.7894 48.1484H60.4189L60.4458 56.7607H58.574V56.7674Z" fill="black"/>
<path d="M90.4561 49.775H87.709V48.1484H95.1963V49.775H92.4491V56.7674H90.4561V49.775Z" fill="black"/>
<path d="M134.18 48.1484L131.365 56.7607H129.231L127.339 50.9224L125.386 56.7607H123.259L120.438 48.1484H122.505L124.444 54.2026L126.47 48.1484H128.315L130.281 54.2499L132.281 48.1484H134.18Z" fill="black"/>
<path d="M162.171 49.775H159.424V48.1484H166.911V49.775H164.164V56.7674H162.171V49.775Z" fill="black"/>
<path d="M198.112 49.748V52.0293H202.091V53.6289H198.112V56.7674H196.119V48.1484H202.617V49.748H198.112Z" fill="black"/>
<path d="M232.835 56.6392C232.202 56.4502 231.69 56.214 231.307 55.917L231.98 54.4187C232.35 54.6954 232.788 54.9114 233.293 55.0734C233.798 55.2353 234.31 55.3231 234.815 55.3231C235.38 55.3231 235.798 55.2353 236.067 55.0734C236.336 54.9046 236.471 54.6819 236.471 54.3984C236.471 54.1959 236.39 54.0205 236.229 53.8855C236.067 53.7505 235.865 53.6425 235.616 53.5615C235.367 53.4805 235.03 53.386 234.599 53.2915C233.946 53.1363 233.407 52.9811 232.99 52.8258C232.572 52.6706 232.216 52.4209 231.913 52.0766C231.616 51.7257 231.468 51.2735 231.468 50.6998C231.468 50.1936 231.603 49.7413 231.872 49.3364C232.142 48.9314 232.552 48.6074 233.098 48.3712C233.65 48.1215 234.316 48 235.097 48C235.65 48 236.181 48.0675 236.707 48.1957C237.232 48.3307 237.69 48.513 238.08 48.7627L237.468 50.2745C236.673 49.8223 235.878 49.5996 235.084 49.5996C234.525 49.5996 234.114 49.6941 233.852 49.8696C233.582 50.0518 233.455 50.288 233.455 50.585C233.455 50.882 233.609 51.1047 233.912 51.2465C234.222 51.3882 234.687 51.5299 235.32 51.6717C235.973 51.8269 236.511 51.9821 236.929 52.1374C237.346 52.2926 237.703 52.5423 237.999 52.8731C238.296 53.2105 238.451 53.6627 238.451 54.2432C238.451 54.7291 238.316 55.1814 238.04 55.5863C237.764 55.9913 237.353 56.3152 236.808 56.5515C236.262 56.7877 235.596 56.9092 234.808 56.9092C234.128 56.9092 233.468 56.8215 232.835 56.6392Z" fill="black"/>
<path d="M200.414 70.7656V79.3846H198.428V72.3652H196.711V70.7656H200.414Z" fill="#333333"/>
<path d="M238.162 77.7583V79.3849H231.664V78.0958L234.983 74.9573C235.334 74.6198 235.569 74.3296 235.697 74.0866C235.818 73.8437 235.879 73.6074 235.879 73.3712C235.879 73.027 235.764 72.7638 235.529 72.5815C235.293 72.3925 234.957 72.3048 234.505 72.3048C234.128 72.3048 233.792 72.379 233.482 72.5208C233.179 72.6693 232.93 72.8852 232.721 73.1687L231.273 72.2373C231.61 71.7378 232.075 71.3464 232.66 71.0629C233.246 70.7794 233.926 70.6377 234.687 70.6377C235.327 70.6377 235.886 70.7457 236.364 70.9549C236.842 71.1641 237.212 71.4611 237.481 71.8458C237.751 72.2238 237.879 72.676 237.879 73.189C237.879 73.6547 237.778 74.0934 237.582 74.5051C237.387 74.9101 237.003 75.3825 236.438 75.909L234.458 77.7785H238.162V77.7583Z" fill="#333333"/>
<path d="M22.3432 99.7275C22.7405 100.166 22.9425 100.713 22.9425 101.361C22.9425 101.86 22.8146 102.319 22.552 102.744C22.2894 103.163 21.8921 103.507 21.3535 103.764C20.8148 104.013 20.1617 104.142 19.3806 104.142C18.7746 104.142 18.1754 104.061 17.5896 103.905C17.0038 103.743 16.5056 103.514 16.1016 103.224L16.8759 101.692C17.2058 101.941 17.5829 102.13 18.0138 102.265C18.4447 102.4 18.8824 102.468 19.3335 102.468C19.8318 102.468 20.229 102.366 20.5118 102.177C20.8013 101.989 20.9427 101.719 20.9427 101.361C20.9427 100.652 20.4041 100.301 19.3335 100.301H18.4245V98.985L20.1953 96.9737H16.5325V95.3809H22.5452V96.67L20.6061 98.8838C21.3669 99.0053 21.9392 99.2888 22.3432 99.7275Z" fill="#FF0000"/>
<path d="M59.7173 102.184H58.3168V103.993H56.3777V102.184H51.752V100.841L55.8053 95.374H57.8926L54.1355 100.558H56.445V98.9445H58.3236V100.558H59.7241V102.184H59.7173Z" fill="#333333"/>
<path d="M93.9099 99.3428C94.4822 99.822 94.7784 100.47 94.7784 101.287C94.7784 101.813 94.6438 102.292 94.3879 102.724C94.1253 103.156 93.728 103.5 93.1894 103.757C92.6507 104.013 91.9909 104.142 91.2098 104.142C90.6038 104.142 90.0113 104.061 89.4255 103.905C88.8398 103.743 88.3415 103.514 87.9375 103.224L88.7253 101.692C89.0552 101.941 89.4255 102.13 89.8565 102.265C90.2807 102.4 90.7183 102.468 91.1694 102.468C91.6677 102.468 92.065 102.366 92.3477 102.171C92.6305 101.975 92.7787 101.698 92.7787 101.347C92.7787 100.976 92.6305 100.699 92.3343 100.51C92.038 100.321 91.5196 100.227 90.7789 100.227H88.5772L89.0215 95.3809H94.2667V96.9805H90.6779L90.5432 98.6206H91.2435C92.4353 98.6138 93.3308 98.8568 93.9099 99.3428Z" fill="#333333"/>
<path d="M129.508 98.9243C129.959 99.1471 130.316 99.4575 130.578 99.8692C130.841 100.274 130.969 100.747 130.969 101.28C130.969 101.854 130.828 102.353 130.538 102.792C130.255 103.23 129.858 103.568 129.366 103.797C128.868 104.034 128.316 104.148 127.717 104.148C126.512 104.148 125.576 103.784 124.896 103.041C124.216 102.306 123.879 101.253 123.879 99.876C123.879 98.9041 124.061 98.0604 124.431 97.3652C124.801 96.6633 125.313 96.1368 125.973 95.7791C126.633 95.4147 127.394 95.2324 128.262 95.2324C128.72 95.2324 129.158 95.2864 129.582 95.3877C130.006 95.4889 130.363 95.6374 130.659 95.8196L129.919 97.2842C129.494 97.0008 128.956 96.8523 128.309 96.8523C127.582 96.8523 127.003 97.0683 126.579 97.4935C126.155 97.9187 125.926 98.5396 125.892 99.3495C126.397 98.8433 127.104 98.5869 128.013 98.5869C128.558 98.5869 129.057 98.7016 129.508 98.9243ZM128.646 102.306C128.915 102.07 129.043 101.759 129.043 101.368C129.043 100.976 128.909 100.666 128.646 100.429C128.383 100.193 128.027 100.078 127.582 100.078C127.151 100.078 126.794 100.2 126.512 100.443C126.236 100.686 126.094 100.996 126.094 101.374C126.094 101.752 126.229 102.063 126.498 102.299C126.767 102.535 127.138 102.657 127.602 102.657C128.033 102.65 128.377 102.535 128.646 102.306Z" fill="#333333"/>
<path d="M166.567 95.3809V96.67L163.375 103.993H161.214L164.298 97.0007H161.45V98.3978H159.686V95.3809H166.567Z" fill="#333333"/>
<path d="M202.307 100.301C202.536 100.652 202.643 101.05 202.643 101.496C202.643 102.029 202.495 102.495 202.192 102.893C201.889 103.291 201.465 103.602 200.913 103.818C200.368 104.034 199.728 104.142 199.007 104.142C198.287 104.142 197.654 104.034 197.115 103.818C196.57 103.602 196.146 103.291 195.85 102.893C195.553 102.495 195.398 102.029 195.398 101.496C195.398 101.05 195.513 100.652 195.735 100.301C195.964 99.9569 196.281 99.6802 196.698 99.4642C196.375 99.2685 196.132 99.0187 195.964 98.7218C195.789 98.418 195.708 98.0738 195.708 97.6891C195.708 97.1897 195.85 96.7577 196.126 96.3865C196.402 96.0153 196.792 95.7318 197.29 95.5293C197.789 95.3268 198.361 95.2256 199.007 95.2256C199.661 95.2256 200.24 95.3268 200.745 95.5293C201.25 95.7318 201.64 96.0153 201.916 96.3865C202.192 96.7577 202.334 97.1897 202.334 97.6891C202.334 98.0738 202.246 98.418 202.078 98.7218C201.909 99.0187 201.654 99.2685 201.33 99.4642C201.761 99.6802 202.085 99.9569 202.307 100.301ZM200.199 102.339C200.489 102.117 200.637 101.813 200.637 101.435C200.637 101.057 200.495 100.76 200.199 100.531C199.91 100.315 199.512 100.2 199.014 100.2C198.523 100.2 198.132 100.308 197.849 100.531C197.56 100.753 197.418 101.05 197.418 101.435C197.418 101.82 197.56 102.123 197.849 102.346C198.132 102.569 198.523 102.677 199.014 102.677C199.512 102.677 199.91 102.562 200.199 102.339ZM198.051 96.9872C197.809 97.1762 197.688 97.4461 197.688 97.7769C197.688 98.1076 197.809 98.3641 198.045 98.553C198.28 98.742 198.603 98.8365 199.014 98.8365C199.425 98.8365 199.755 98.742 199.997 98.553C200.24 98.3641 200.368 98.1076 200.368 97.7769C200.368 97.4394 200.246 97.1762 199.997 96.9872C199.748 96.7914 199.425 96.697 199.014 96.697C198.617 96.6902 198.294 96.7914 198.051 96.9872Z" fill="#333333"/>
<path d="M237.293 96.3325C237.973 97.0682 238.31 98.1211 238.31 99.498C238.31 100.477 238.128 101.314 237.764 102.009C237.401 102.704 236.889 103.237 236.222 103.595C235.556 103.959 234.795 104.135 233.926 104.135C233.469 104.135 233.031 104.088 232.613 103.986C232.196 103.878 231.839 103.737 231.543 103.548L232.277 102.083C232.694 102.373 233.233 102.515 233.886 102.515C234.613 102.515 235.192 102.299 235.616 101.867C236.041 101.435 236.27 100.814 236.303 100.004C235.785 100.524 235.078 100.78 234.169 100.78C233.617 100.78 233.118 100.672 232.674 100.45C232.223 100.227 231.866 99.9164 231.603 99.5047C231.341 99.0997 231.213 98.6273 231.213 98.0941C231.213 97.5204 231.354 97.0142 231.644 96.5822C231.927 96.1503 232.317 95.8128 232.815 95.5766C233.314 95.3403 233.859 95.2256 234.472 95.2256C235.677 95.2256 236.613 95.5968 237.293 96.3325ZM235.684 98.9242C235.96 98.688 236.094 98.3776 236.094 97.9928C236.094 97.6149 235.96 97.3111 235.697 97.0749C235.428 96.8387 235.064 96.7172 234.6 96.7172C234.175 96.7172 233.825 96.8319 233.563 97.0614C233.3 97.2909 233.166 97.6014 233.166 97.9928C233.166 98.3843 233.3 98.7015 233.563 98.9378C233.832 99.174 234.182 99.2887 234.627 99.2887C235.051 99.2955 235.408 99.1672 235.684 98.9242Z" fill="#333333"/>
<path d="M16.9552 119.996V128.608H14.9689V121.589H13.252V119.989H16.9552V119.996Z" fill="#FF0000"/>
<path d="M20.2346 128.23C19.6757 127.879 19.2381 127.366 18.9284 126.698C18.6119 126.03 18.457 125.227 18.457 124.302C18.457 123.371 18.6119 122.574 18.9284 121.906C19.2448 121.238 19.6825 120.725 20.2346 120.374C20.7867 120.023 21.4264 119.841 22.1334 119.841C22.8471 119.841 23.48 120.016 24.0388 120.374C24.5977 120.725 25.0354 121.238 25.3451 121.906C25.6615 122.574 25.8164 123.371 25.8164 124.302C25.8164 125.227 25.6615 126.03 25.3451 126.698C25.0286 127.366 24.591 127.879 24.0388 128.23C23.48 128.581 22.8471 128.757 22.1334 128.757C21.4264 128.757 20.7934 128.581 20.2346 128.23ZM23.3723 126.394C23.6685 125.942 23.8167 125.247 23.8167 124.302C23.8167 123.357 23.6685 122.662 23.3723 122.21C23.076 121.758 22.6653 121.535 22.1401 121.535C21.6216 121.535 21.2176 121.758 20.9214 122.21C20.6251 122.655 20.477 123.357 20.477 124.302C20.477 125.247 20.6251 125.942 20.9214 126.394C21.2176 126.847 21.6284 127.069 22.1401 127.069C22.6653 127.069 23.076 126.847 23.3723 126.394Z" fill="#FF0000"/>
<path d="M54.5811 119.996V128.608H52.5881V121.589H50.8711V119.989H54.5811V119.996Z" fill="#333333"/>
<path d="M59.3888 119.996V128.608H57.4025V121.589H55.6855V119.989H59.3888V119.996Z" fill="#333333"/>
<path d="M89.2169 119.995V128.607H87.2306V121.588H85.5137V119.988H89.2169V119.995Z" fill="#333333"/>
<path d="M97.1361 126.981V128.608H90.6386V127.318L93.958 124.18C94.3082 123.842 94.5506 123.552 94.6718 123.309C94.793 123.066 94.8536 122.83 94.8536 122.594C94.8536 122.25 94.7391 121.986 94.5034 121.804C94.2678 121.615 93.9311 121.527 93.48 121.527C93.1029 121.527 92.7595 121.602 92.4565 121.743C92.1535 121.892 91.9044 122.108 91.6957 122.391L90.248 121.46C90.5847 120.96 91.0493 120.569 91.6351 120.286C92.2276 120.002 92.9009 119.86 93.6618 119.86C94.3014 119.86 94.8603 119.968 95.3383 120.178C95.8164 120.387 96.1867 120.684 96.4561 121.068C96.7254 121.446 96.8533 121.899 96.8533 122.412C96.8533 122.877 96.7523 123.316 96.5571 123.728C96.3618 124.133 95.978 124.605 95.4124 125.132L93.4328 127.001H97.1361V126.981Z" fill="#333333"/>
<path d="M125.057 119.996V128.608H123.07V121.589H121.354V119.989H125.057V119.996Z" fill="#333333"/>
<path d="M132.302 124.343C132.699 124.781 132.901 125.328 132.901 125.976C132.901 126.476 132.774 126.935 132.511 127.36C132.248 127.778 131.851 128.122 131.312 128.379C130.774 128.629 130.121 128.757 129.34 128.757C128.734 128.757 128.134 128.676 127.549 128.521C126.963 128.359 126.465 128.129 126.061 127.839L126.835 126.314C127.165 126.563 127.542 126.752 127.973 126.887C128.404 127.022 128.841 127.097 129.292 127.097C129.791 127.097 130.188 126.995 130.471 126.806C130.76 126.617 130.902 126.341 130.902 125.99C130.902 125.281 130.363 124.93 129.292 124.93H128.383V123.614L130.154 121.603H126.491V120.003H132.504V121.292L130.565 123.506C131.326 123.627 131.898 123.904 132.302 124.343Z" fill="#333333"/>
<path d="M160.326 119.996V128.608H158.34V121.589H156.623V119.989H160.326V119.996Z" fill="#333333"/>
<path d="M169.692 126.799H168.291V128.608H166.352V126.799H161.727V125.456L165.78 119.989H167.867L164.11 125.173H166.42V123.56H168.298V125.173H169.699V126.799H169.692Z" fill="#333333"/>
<path d="M196.766 119.996V128.608H194.779V121.589H193.062V119.989H196.766V119.996Z" fill="#333333"/>
<path d="M203.89 123.958C204.463 124.437 204.759 125.092 204.759 125.902C204.759 126.428 204.624 126.908 204.368 127.34C204.106 127.772 203.709 128.116 203.17 128.372C202.631 128.629 201.971 128.757 201.19 128.757C200.584 128.757 199.992 128.676 199.406 128.521C198.82 128.359 198.322 128.129 197.918 127.839L198.706 126.314C199.029 126.563 199.406 126.752 199.837 126.887C200.261 127.022 200.699 127.097 201.15 127.097C201.648 127.097 202.045 126.995 202.328 126.8C202.611 126.604 202.759 126.327 202.759 125.976C202.759 125.605 202.611 125.328 202.315 125.139C202.018 124.95 201.5 124.856 200.759 124.856H198.558L199.002 120.01H204.247V121.609H200.658L200.524 123.249H201.224C202.416 123.229 203.311 123.472 203.89 123.958Z" fill="#333333"/>
<path d="M232.358 119.996V128.608H230.371V121.589H228.654V119.989H232.358V119.996Z" fill="#333333"/>
<path d="M239.488 123.54C239.939 123.762 240.296 124.073 240.559 124.484C240.821 124.889 240.949 125.362 240.949 125.895C240.949 126.469 240.808 126.968 240.518 127.407C240.236 127.846 239.838 128.183 239.347 128.413C238.849 128.649 238.297 128.764 237.697 128.764C236.492 128.764 235.556 128.399 234.876 127.657C234.196 126.921 233.859 125.868 233.859 124.491C233.859 123.519 234.041 122.676 234.411 121.98C234.782 121.279 235.294 120.752 235.953 120.394C236.613 120.03 237.374 119.848 238.243 119.848C238.701 119.848 239.138 119.902 239.562 120.003C239.987 120.104 240.343 120.253 240.64 120.435L239.899 121.899C239.475 121.616 238.936 121.468 238.29 121.468C237.563 121.468 236.984 121.683 236.559 122.109C236.135 122.534 235.906 123.155 235.873 123.965C236.378 123.459 237.085 123.202 237.994 123.202C238.539 123.202 239.044 123.317 239.488 123.54ZM238.626 126.928C238.896 126.692 239.024 126.381 239.024 125.99C239.024 125.598 238.889 125.288 238.626 125.051C238.364 124.815 238.007 124.7 237.563 124.7C237.132 124.7 236.775 124.822 236.492 125.065C236.216 125.308 236.075 125.618 236.075 125.996C236.075 126.374 236.209 126.685 236.479 126.921C236.748 127.157 237.118 127.279 237.583 127.279C238.014 127.272 238.364 127.157 238.626 126.928Z" fill="#333333"/>
<path d="M17.3185 144.617V153.229H15.3322V146.21H13.6152V144.61H17.3185V144.617Z" fill="#FF0000"/>
<path d="M25.5473 144.617V145.906L22.3558 153.229H20.1945L23.2783 146.237H20.4301V147.634H18.666V144.61H25.5473V144.617Z" fill="#FF0000"/>
<path d="M52.9318 144.617V153.229H50.9455V146.21H49.2285V144.61H52.9318V144.617Z" fill="#333333"/>
<path d="M61.2872 149.537C61.5161 149.888 61.6238 150.287 61.6238 150.732C61.6238 151.265 61.4757 151.731 61.1727 152.129C60.8697 152.527 60.4455 152.838 59.8934 153.054C59.348 153.27 58.7084 153.378 57.9879 153.378C57.2674 153.378 56.6345 153.27 56.0959 153.054C55.5505 152.838 55.1263 152.527 54.83 152.129C54.5338 151.731 54.3789 151.272 54.3789 150.732C54.3789 150.287 54.4934 149.888 54.7156 149.537C54.9445 149.193 55.261 148.917 55.6784 148.701C55.362 148.505 55.1128 148.255 54.9445 147.958C54.7694 147.654 54.6886 147.31 54.6886 146.925C54.6886 146.426 54.83 145.994 55.1061 145.623C55.3822 145.252 55.7727 144.968 56.2709 144.766C56.7692 144.563 57.3415 144.462 57.9879 144.462C58.641 144.462 59.2201 144.563 59.7251 144.766C60.2301 144.968 60.6206 145.252 60.8966 145.623C61.1727 145.994 61.3141 146.426 61.3141 146.925C61.3141 147.31 61.2266 147.654 61.0582 147.958C60.8899 148.255 60.634 148.505 60.3108 148.701C60.735 148.917 61.065 149.193 61.2872 149.537ZM59.1729 151.576C59.4625 151.353 59.6106 151.049 59.6106 150.671C59.6106 150.293 59.4692 149.996 59.1729 149.767C58.8834 149.544 58.4862 149.436 57.9879 149.436C57.4964 149.436 57.1058 149.544 56.8231 149.767C56.5335 149.99 56.3921 150.287 56.3921 150.671C56.3921 151.056 56.5335 151.36 56.8231 151.583C57.1058 151.805 57.4964 151.913 57.9879 151.913C58.4929 151.913 58.8834 151.805 59.1729 151.576ZM57.0251 146.224C56.7827 146.412 56.6615 146.682 56.6615 147.013C56.6615 147.344 56.7827 147.6 57.0183 147.789C57.254 147.978 57.5772 148.073 57.9879 148.073C58.3986 148.073 58.7285 147.978 58.9709 147.789C59.2133 147.6 59.3413 147.344 59.3413 147.013C59.3413 146.676 59.2201 146.412 58.9709 146.224C58.7218 146.028 58.3986 145.933 57.9879 145.933C57.5906 145.927 57.2674 146.028 57.0251 146.224Z" fill="#333333"/>
<path d="M88.9259 144.617V153.229H86.9396V146.21H85.2227V144.61H88.9259V144.617Z" fill="#333333"/>
<path d="M96.2715 145.569C96.9515 146.304 97.2882 147.357 97.2882 148.734C97.2882 149.713 97.1064 150.55 96.7428 151.245C96.3792 151.94 95.8608 152.473 95.2009 152.831C94.5343 153.196 93.7735 153.371 92.9049 153.371C92.447 153.371 92.0094 153.324 91.5919 153.223C91.1744 153.115 90.8176 152.973 90.5213 152.784L91.2552 151.319C91.6727 151.61 92.2114 151.751 92.8645 151.751C93.5917 151.751 94.1707 151.535 94.5949 151.103C95.0191 150.671 95.248 150.05 95.2817 149.24C94.7632 149.76 94.0563 150.017 93.1473 150.017C92.5952 150.017 92.0969 149.909 91.6525 149.686C91.2014 149.463 90.8445 149.153 90.5819 148.741C90.3193 148.336 90.1914 147.864 90.1914 147.33C90.1914 146.757 90.3328 146.251 90.6223 145.812C90.9051 145.38 91.2956 145.042 91.7939 144.813C92.2922 144.577 92.8376 144.462 93.4435 144.462C94.6488 144.462 95.5914 144.833 96.2715 145.569ZM94.6555 148.161C94.9316 147.924 95.0662 147.614 95.0662 147.229C95.0662 146.851 94.9316 146.547 94.669 146.311C94.3996 146.075 94.0361 145.954 93.5715 145.954C93.1473 145.954 92.7971 146.068 92.5346 146.298C92.272 146.527 92.1373 146.838 92.1373 147.229C92.1373 147.621 92.272 147.938 92.5346 148.174C92.8039 148.41 93.154 148.525 93.5984 148.525C94.0226 148.532 94.3794 148.404 94.6555 148.161Z" fill="#333333"/>
<path d="M126.423 151.603V153.23H119.926V151.941L123.245 148.802C123.595 148.465 123.838 148.174 123.959 147.931C124.08 147.688 124.141 147.452 124.141 147.216C124.141 146.872 124.026 146.608 123.791 146.426C123.555 146.237 123.218 146.15 122.767 146.15C122.39 146.15 122.053 146.224 121.744 146.366C121.441 146.514 121.192 146.73 120.983 147.013L119.535 146.082C119.872 145.583 120.336 145.191 120.922 144.908C121.515 144.624 122.188 144.482 122.949 144.482C123.589 144.482 124.147 144.59 124.625 144.8C125.104 145.009 125.474 145.306 125.743 145.691C126.012 146.069 126.14 146.521 126.14 147.034C126.14 147.499 126.039 147.938 125.844 148.35C125.649 148.755 125.265 149.227 124.7 149.747L122.72 151.617H126.423V151.603Z" fill="#333333"/>
<path d="M129.022 152.851C128.463 152.5 128.025 151.987 127.715 151.319C127.399 150.651 127.244 149.848 127.244 148.923C127.244 147.992 127.399 147.195 127.715 146.527C128.032 145.859 128.47 145.346 129.022 144.995C129.574 144.644 130.213 144.462 130.92 144.462C131.634 144.462 132.267 144.637 132.826 144.995C133.385 145.346 133.822 145.859 134.132 146.527C134.449 147.195 134.604 147.992 134.604 148.923C134.604 149.848 134.449 150.651 134.132 151.319C133.816 151.987 133.378 152.5 132.826 152.851C132.267 153.202 131.634 153.378 130.92 153.378C130.213 153.378 129.581 153.202 129.022 152.851ZM132.159 151.016C132.456 150.563 132.604 149.868 132.604 148.923C132.604 147.978 132.456 147.283 132.159 146.831C131.863 146.379 131.452 146.156 130.927 146.156C130.409 146.156 130.005 146.379 129.708 146.831C129.412 147.276 129.264 147.978 129.264 148.923C129.264 149.868 129.412 150.563 129.708 151.016C130.005 151.468 130.415 151.691 130.927 151.691C131.452 151.691 131.863 151.468 132.159 151.016Z" fill="#333333"/>
<path d="M164.036 151.603V153.23H157.539V151.941L160.858 148.802C161.209 148.465 161.451 148.174 161.572 147.931C161.693 147.688 161.754 147.452 161.754 147.216C161.754 146.872 161.639 146.608 161.404 146.426C161.168 146.237 160.831 146.15 160.38 146.15C160.003 146.15 159.667 146.224 159.357 146.366C159.054 146.514 158.805 146.73 158.596 147.013L157.148 146.082C157.485 145.583 157.95 145.191 158.535 144.908C159.128 144.624 159.801 144.482 160.562 144.482C161.202 144.482 161.761 144.59 162.239 144.8C162.717 145.009 163.094 145.306 163.356 145.691C163.626 146.069 163.754 146.521 163.754 147.034C163.754 147.499 163.653 147.938 163.457 148.35C163.262 148.755 162.878 149.227 162.313 149.747L160.333 151.617H164.036V151.603Z" fill="#333333"/>
<path d="M168.178 144.617V153.229H166.192V146.21H164.475V144.61H168.178V144.617Z" fill="#333333"/>
<path d="M198.685 151.603V153.23H192.187V151.941L195.507 148.802C195.857 148.465 196.093 148.174 196.221 147.931C196.342 147.688 196.402 147.452 196.402 147.216C196.402 146.872 196.288 146.608 196.052 146.426C195.817 146.237 195.48 146.15 195.029 146.15C194.652 146.15 194.315 146.224 194.005 146.366C193.702 146.514 193.453 146.73 193.245 147.013L191.797 146.082C192.134 145.583 192.598 145.191 193.184 144.908C193.776 144.624 194.45 144.482 195.211 144.482C195.85 144.482 196.409 144.59 196.887 144.8C197.365 145.009 197.736 145.306 198.005 145.691C198.274 146.069 198.402 146.521 198.402 147.034C198.402 147.499 198.301 147.938 198.106 148.35C197.911 148.755 197.527 149.227 196.961 149.747L194.982 151.617H198.685V151.603Z" fill="#333333"/>
<path d="M205.929 151.603V153.23H199.432V151.941L202.751 148.802C203.101 148.465 203.344 148.174 203.465 147.931C203.586 147.688 203.647 147.452 203.647 147.216C203.647 146.872 203.532 146.608 203.296 146.426C203.061 146.237 202.724 146.15 202.273 146.15C201.896 146.15 201.559 146.224 201.25 146.366C200.947 146.514 200.697 146.73 200.489 147.013L199.041 146.082C199.378 145.583 199.842 145.191 200.428 144.908C201.021 144.624 201.694 144.482 202.455 144.482C203.094 144.482 203.653 144.59 204.131 144.8C204.609 145.009 204.98 145.306 205.249 145.691C205.518 146.069 205.646 146.521 205.646 147.034C205.646 147.499 205.545 147.938 205.35 148.35C205.155 148.755 204.771 149.227 204.205 149.747L202.226 151.617H205.929V151.603Z" fill="#333333"/>
<path d="M234.525 151.603V153.23H228.027V151.941L231.347 148.802C231.697 148.465 231.939 148.174 232.06 147.931C232.182 147.688 232.242 147.452 232.242 147.216C232.242 146.872 232.128 146.608 231.892 146.426C231.656 146.237 231.32 146.15 230.869 146.15C230.492 146.15 230.148 146.224 229.845 146.366C229.542 146.514 229.293 146.73 229.084 147.013L227.637 146.082C227.973 145.583 228.438 145.191 229.024 144.908C229.616 144.624 230.29 144.482 231.05 144.482C231.69 144.482 232.249 144.59 232.727 144.8C233.205 145.009 233.575 145.306 233.845 145.691C234.114 146.069 234.242 146.521 234.242 147.034C234.242 147.499 234.141 147.938 233.946 148.35C233.75 148.755 233.367 149.227 232.801 149.747L230.822 151.617H234.525V151.603Z" fill="#333333"/>
<path d="M241.096 148.964C241.494 149.402 241.696 149.949 241.696 150.597C241.696 151.097 241.568 151.555 241.305 151.981C241.042 152.399 240.645 152.743 240.106 153C239.568 153.25 238.915 153.378 238.134 153.378C237.528 153.378 236.928 153.297 236.349 153.142C235.764 152.98 235.265 152.75 234.861 152.46L235.636 150.928C235.966 151.178 236.343 151.366 236.774 151.501C237.204 151.636 237.642 151.704 238.093 151.704C238.592 151.704 238.989 151.603 239.272 151.414C239.561 151.225 239.702 150.955 239.702 150.597C239.702 149.888 239.164 149.537 238.093 149.537H237.184V148.221L238.955 146.21H235.292V144.61H241.305V145.899L239.366 148.113C240.113 148.248 240.692 148.525 241.096 148.964Z" fill="#333333"/>
<path d="M18.7865 176.225V177.852H12.289V176.562L15.6084 173.424C15.9586 173.087 16.2009 172.796 16.3221 172.553C16.4433 172.31 16.5039 172.074 16.5039 171.831C16.5039 171.487 16.3895 171.224 16.1538 171.041C15.9182 170.853 15.5815 170.765 15.1304 170.765C14.7533 170.765 14.4167 170.839 14.1069 170.981C13.8039 171.129 13.5548 171.345 13.3461 171.629L11.8984 170.697C12.2351 170.198 12.6997 169.806 13.2855 169.523C13.8713 169.239 14.5513 169.098 15.3122 169.098C15.9518 169.098 16.5107 169.206 16.9887 169.415C17.4668 169.624 17.8438 169.921 18.1064 170.306C18.3758 170.684 18.5037 171.136 18.5037 171.649C18.5037 172.115 18.4027 172.553 18.2074 172.965C18.0122 173.37 17.6284 173.842 17.0628 174.362L15.0832 176.232H18.7865V176.225Z" fill="#FF0000"/>
<path d="M27.479 176.043H26.0785V177.851H24.1394V176.043H19.5137V174.699L23.5671 169.232H25.6543L21.8972 174.416H24.2067V172.803H26.0853V174.416H27.4858V176.043H27.479Z" fill="#FF0000"/>
<path d="M55.2201 176.225V177.852H48.7226V176.562L52.042 173.424C52.3921 173.087 52.6345 172.796 52.7557 172.553C52.8769 172.31 52.9375 172.074 52.9375 171.831C52.9375 171.487 52.8231 171.224 52.5874 171.041C52.3517 170.853 52.0151 170.765 51.564 170.765C51.1869 170.765 50.8502 170.839 50.5405 170.981C50.2375 171.129 49.9884 171.345 49.7797 171.629L48.332 170.697C48.6687 170.198 49.1333 169.806 49.7191 169.523C50.3116 169.239 50.9849 169.098 51.7458 169.098C52.3854 169.098 52.9443 169.206 53.4223 169.415C53.9004 169.624 54.2774 169.921 54.54 170.306C54.8094 170.684 54.9373 171.136 54.9373 171.649C54.9373 172.115 54.8363 172.553 54.641 172.965C54.4458 173.37 54.062 173.842 53.4964 174.362L51.5168 176.232H55.2201V176.225Z" fill="#333333"/>
<path d="M61.6763 173.201C62.2487 173.68 62.5382 174.335 62.5382 175.145C62.5382 175.671 62.4035 176.151 62.1477 176.583C61.8851 177.015 61.4878 177.359 60.9492 177.615C60.4105 177.872 59.7506 178 58.9696 178C58.3636 178 57.7711 177.919 57.1853 177.764C56.5995 177.602 56.1013 177.372 55.6973 177.082L56.485 175.55C56.8082 175.8 57.1853 175.989 57.6162 176.124C58.0404 176.259 58.4781 176.326 58.9292 176.326C59.4275 176.326 59.8247 176.225 60.1075 176.029C60.3903 175.833 60.5384 175.557 60.5384 175.206C60.5384 174.834 60.3903 174.558 60.094 174.369C59.7978 174.18 59.2793 174.085 58.5387 174.085H56.3369L56.7813 169.239H62.0265V170.839H58.4377L58.303 172.479H59.0033C60.2018 172.472 61.0973 172.715 61.6763 173.201Z" fill="#333333"/>
<path d="M90.8197 176.225V177.852H84.3222V176.562L87.6416 173.424C87.9918 173.087 88.2342 172.796 88.3553 172.553C88.4765 172.31 88.5371 172.074 88.5371 171.831C88.5371 171.487 88.4227 171.224 88.187 171.041C87.9514 170.853 87.6147 170.765 87.1636 170.765C86.7865 170.765 86.4499 170.839 86.1401 170.981C85.8371 171.129 85.588 171.345 85.3793 171.629L83.9316 170.697C84.2683 170.198 84.7329 169.806 85.3187 169.523C85.9112 169.239 86.5845 169.098 87.3454 169.098C87.985 169.098 88.5439 169.206 89.0219 169.415C89.5 169.624 89.8771 169.921 90.1396 170.306C90.409 170.684 90.5369 171.136 90.5369 171.649C90.5369 172.115 90.4359 172.553 90.2406 172.965C90.0454 173.37 89.6616 173.842 89.096 174.362L87.1164 176.232H90.8197V176.225Z" fill="#333333"/>
<path d="M97.2774 172.783C97.7285 173.005 98.0854 173.316 98.348 173.728C98.6106 174.133 98.7385 174.605 98.7385 175.138C98.7385 175.712 98.5971 176.211 98.3076 176.65C98.0248 177.089 97.6275 177.426 97.136 177.656C96.6377 177.892 96.0856 178.007 95.4864 178.007C94.2811 178.007 93.3452 177.642 92.6652 176.9C91.9851 176.164 91.6484 175.111 91.6484 173.734C91.6484 172.762 91.8302 171.919 92.2006 171.224C92.5709 170.522 93.0826 169.995 93.7425 169.638C94.4023 169.273 95.1632 169.091 96.0317 169.091C96.4896 169.091 96.9273 169.145 97.3514 169.246C97.7756 169.347 98.1325 169.496 98.4288 169.678L97.6881 171.143C97.2639 170.859 96.7253 170.711 96.0789 170.711C95.3517 170.711 94.7726 170.927 94.3484 171.352C93.9243 171.777 93.6953 172.398 93.6617 173.208C94.1667 172.702 94.8736 172.445 95.7826 172.445C96.328 172.445 96.8263 172.56 97.2774 172.783ZM96.4088 176.164C96.6781 175.928 96.8061 175.617 96.8061 175.226C96.8061 174.835 96.6714 174.524 96.4088 174.288C96.1462 174.052 95.7894 173.937 95.345 173.937C94.914 173.937 94.5572 174.058 94.2744 174.301C93.9983 174.544 93.8569 174.855 93.8569 175.233C93.8569 175.611 93.9916 175.921 94.2609 176.157C94.5302 176.394 94.9006 176.515 95.3652 176.515C95.8028 176.508 96.1462 176.394 96.4088 176.164Z" fill="#333333"/>
<path d="M126.781 176.225V177.852H120.283V176.562L123.603 173.424C123.953 173.087 124.188 172.796 124.316 172.553C124.437 172.31 124.498 172.074 124.498 171.831C124.498 171.487 124.384 171.224 124.148 171.041C123.912 170.853 123.576 170.765 123.125 170.765C122.747 170.765 122.411 170.839 122.101 170.981C121.798 171.129 121.549 171.345 121.34 171.629L119.893 170.697C120.229 170.198 120.694 169.806 121.28 169.523C121.865 169.239 122.545 169.098 123.306 169.098C123.946 169.098 124.505 169.206 124.983 169.415C125.461 169.624 125.831 169.921 126.101 170.306C126.37 170.684 126.498 171.136 126.498 171.649C126.498 172.115 126.397 172.553 126.202 172.965C126.006 173.37 125.623 173.842 125.057 174.362L123.077 176.232H126.781V176.225Z" fill="#333333"/>
<path d="M134.329 169.239V170.528L131.138 177.851H128.977L132.06 170.859H129.212V172.256H127.441V169.232H134.329V169.239Z" fill="#333333"/>
<path d="M162.392 176.225V177.852H155.894V176.562L159.214 173.424C159.564 173.087 159.806 172.796 159.928 172.553C160.049 172.31 160.109 172.074 160.109 171.831C160.109 171.487 159.995 171.224 159.759 171.041C159.524 170.853 159.187 170.765 158.736 170.765C158.359 170.765 158.022 170.839 157.712 170.981C157.409 171.129 157.16 171.345 156.952 171.629L155.504 170.697C155.841 170.198 156.305 169.806 156.891 169.523C157.477 169.239 158.157 169.098 158.918 169.098C159.557 169.098 160.116 169.206 160.594 169.415C161.072 169.624 161.443 169.921 161.712 170.306C161.981 170.684 162.109 171.136 162.109 171.649C162.109 172.115 162.008 172.553 161.813 172.965C161.618 173.37 161.234 173.842 160.668 174.362L158.689 176.232H162.392V176.225Z" fill="#333333"/>
<path d="M170.067 174.16C170.296 174.51 170.404 174.909 170.404 175.354C170.404 175.887 170.256 176.353 169.946 176.751C169.643 177.15 169.219 177.46 168.667 177.676C168.121 177.892 167.482 178 166.761 178C166.041 178 165.408 177.892 164.869 177.676C164.324 177.46 163.9 177.15 163.603 176.751C163.307 176.353 163.152 175.894 163.152 175.354C163.152 174.909 163.267 174.51 163.489 174.16C163.718 173.815 164.034 173.539 164.452 173.323C164.129 173.127 163.886 172.877 163.718 172.58C163.543 172.276 163.462 171.932 163.462 171.548C163.462 171.048 163.603 170.616 163.88 170.245C164.156 169.874 164.546 169.59 165.044 169.388C165.543 169.185 166.115 169.084 166.761 169.084C167.414 169.084 167.994 169.185 168.499 169.388C169.003 169.59 169.394 169.874 169.67 170.245C169.946 170.616 170.088 171.048 170.088 171.548C170.088 171.932 170 172.276 169.832 172.58C169.663 172.877 169.407 173.127 169.084 173.323C169.522 173.532 169.845 173.815 170.067 174.16ZM167.96 176.191C168.249 175.968 168.397 175.665 168.397 175.287C168.397 174.909 168.256 174.612 167.96 174.382C167.67 174.166 167.273 174.052 166.775 174.052C166.283 174.052 165.893 174.16 165.61 174.382C165.32 174.605 165.179 174.902 165.179 175.287C165.179 175.671 165.32 175.975 165.61 176.198C165.893 176.414 166.283 176.529 166.775 176.529C167.273 176.535 167.67 176.421 167.96 176.191ZM165.812 170.846C165.57 171.035 165.448 171.305 165.448 171.635C165.448 171.966 165.57 172.222 165.805 172.411C166.041 172.6 166.364 172.695 166.775 172.695C167.186 172.695 167.515 172.6 167.758 172.411C168 172.222 168.128 171.966 168.128 171.635C168.128 171.298 168.007 171.035 167.758 170.846C167.509 170.65 167.186 170.555 166.775 170.555C166.371 170.549 166.048 170.65 165.812 170.846Z" fill="#333333"/>
<path d="M198.396 176.225V177.852H191.898V176.562L195.218 173.424C195.568 173.087 195.804 172.796 195.932 172.553C196.053 172.31 196.113 172.074 196.113 171.831C196.113 171.487 195.999 171.224 195.763 171.041C195.528 170.853 195.191 170.765 194.74 170.765C194.363 170.765 194.026 170.839 193.716 170.981C193.413 171.129 193.164 171.345 192.955 171.629L191.508 170.697C191.844 170.198 192.309 169.806 192.895 169.523C193.487 169.239 194.161 169.098 194.922 169.098C195.561 169.098 196.12 169.206 196.598 169.415C197.076 169.624 197.446 169.921 197.716 170.306C197.985 170.684 198.113 171.136 198.113 171.649C198.113 172.115 198.012 172.553 197.817 172.965C197.622 173.37 197.238 173.842 196.672 174.362L194.693 176.232H198.396V176.225Z" fill="#333333"/>
<path d="M205.062 170.191C205.743 170.92 206.079 171.979 206.079 173.356C206.079 174.335 205.897 175.172 205.534 175.867C205.17 176.562 204.652 177.096 203.992 177.453C203.325 177.818 202.564 177.993 201.696 177.993C201.238 177.993 200.8 177.946 200.383 177.845C199.965 177.737 199.609 177.595 199.312 177.406L200.046 175.941C200.464 176.232 201.002 176.373 201.656 176.373C202.383 176.373 202.962 176.157 203.386 175.725C203.81 175.293 204.039 174.672 204.073 173.863C203.554 174.382 202.847 174.639 201.938 174.639C201.386 174.639 200.888 174.531 200.444 174.308C199.992 174.085 199.636 173.775 199.373 173.363C199.11 172.958 198.982 172.486 198.982 171.952C198.982 171.379 199.124 170.873 199.413 170.441C199.696 170.009 200.087 169.671 200.585 169.435C201.083 169.199 201.629 169.084 202.235 169.084C203.44 169.084 204.382 169.455 205.062 170.191ZM203.447 172.783C203.723 172.546 203.857 172.236 203.857 171.851C203.857 171.473 203.723 171.17 203.46 170.933C203.191 170.697 202.827 170.576 202.362 170.576C201.938 170.576 201.588 170.69 201.326 170.92C201.063 171.149 200.928 171.46 200.928 171.851C200.928 172.243 201.063 172.56 201.326 172.796C201.595 173.032 201.945 173.147 202.389 173.147C202.82 173.147 203.17 173.026 203.447 172.783Z" fill="#333333"/>
<path d="M233.313 173.586C233.71 174.024 233.912 174.571 233.912 175.219C233.912 175.719 233.784 176.178 233.522 176.603C233.259 177.021 232.862 177.365 232.323 177.622C231.785 177.872 231.131 178 230.35 178C229.744 178 229.145 177.919 228.566 177.764C227.98 177.602 227.482 177.372 227.078 177.082L227.852 175.55C228.182 175.8 228.559 175.989 228.99 176.124C229.421 176.259 229.859 176.326 230.31 176.326C230.808 176.326 231.206 176.225 231.488 176.036C231.778 175.847 231.919 175.577 231.919 175.219C231.919 174.51 231.381 174.159 230.31 174.159H229.401V172.843L231.172 170.832H227.509V169.232H233.522V170.522L231.583 172.735C232.33 172.864 232.909 173.147 233.313 173.586Z" fill="#333333"/>
<path d="M236.619 177.473C236.06 177.123 235.63 176.61 235.313 175.941C234.997 175.273 234.842 174.47 234.842 173.545C234.842 172.614 234.997 171.817 235.313 171.149C235.63 170.481 236.067 169.968 236.619 169.617C237.171 169.266 237.811 169.084 238.525 169.084C239.239 169.084 239.871 169.259 240.43 169.617C240.989 169.968 241.427 170.481 241.737 171.149C242.053 171.817 242.208 172.614 242.208 173.545C242.208 174.47 242.053 175.273 241.737 175.941C241.42 176.61 240.982 177.123 240.43 177.473C239.871 177.824 239.239 178 238.525 178C237.804 178 237.171 177.824 236.619 177.473ZM239.75 175.638C240.047 175.185 240.201 174.49 240.201 173.545C240.201 172.6 240.053 171.905 239.75 171.453C239.454 171.001 239.043 170.778 238.518 170.778C238 170.778 237.596 171.001 237.299 171.453C237.003 171.898 236.855 172.6 236.855 173.545C236.855 174.49 237.003 175.185 237.299 175.638C237.596 176.09 238.006 176.313 238.518 176.313C239.043 176.313 239.454 176.09 239.75 175.638Z" fill="#333333"/>
</g>
<defs>
<clipPath id="clip0_656_926">
<rect width="251" height="130" fill="white" transform="translate(5.99414 48)"/>
</clipPath>
</defs>
</svg>
