<svg width="393" height="259" viewBox="0 0 393 259" fill="none" xmlns="http://www.w3.org/2000/svg">
<path d="M-1 0L393 0V130.968V259H-1V130.968V0Z" fill="#EBEBEB"/>
<path d="M33.5 18.5L26 26.5L32.5 36" stroke="#152C5B" stroke-width="3"/>
<g clip-path="url(#clip0_610_1391)">
<path d="M360 81.0449H30V82.5631H360V81.0449Z" fill="black"/>
<path d="M45.3767 75.3639C44.5446 75.1153 43.8718 74.8046 43.3672 74.4139L44.2524 72.443C44.7393 72.807 45.3147 73.0911 45.9786 73.3042C46.6426 73.5173 47.3154 73.6327 47.9793 73.6327C48.7229 73.6327 49.2717 73.5173 49.6258 73.3042C49.9799 73.0822 50.157 72.7893 50.157 72.4164C50.157 72.15 50.0508 71.9192 49.8383 71.7417C49.6258 71.5641 49.3603 71.422 49.0327 71.3155C48.7052 71.209 48.2626 71.0847 47.696 70.9604C46.8373 70.7562 46.1291 70.552 45.5803 70.3478C45.0314 70.1436 44.5623 69.8151 44.1639 69.3623C43.7744 68.9007 43.5796 68.3059 43.5796 67.5512C43.5796 66.8854 43.7567 66.2905 44.1108 65.7579C44.4649 65.2252 45.0049 64.799 45.7219 64.4883C46.4567 64.1598 47.3242 64 48.3599 64C49.0858 64 49.7852 64.0888 50.4757 64.2575C51.1662 64.435 51.7681 64.6747 52.2816 65.0032L51.476 66.9919C50.4314 66.3971 49.3868 66.1041 48.3422 66.1041C47.6075 66.1041 47.0675 66.2284 46.7222 66.4592C46.3682 66.6989 46.2 67.0097 46.2 67.4003C46.2 67.7909 46.4036 68.0839 46.8019 68.2703C47.2091 68.4568 47.8199 68.6432 48.6521 68.8297C49.5108 69.0339 50.2189 69.238 50.7678 69.4422C51.3166 69.6464 51.7858 69.9749 52.1753 70.4099C52.5648 70.8538 52.7684 71.4487 52.7684 72.2122C52.7684 72.8514 52.5914 73.4462 52.2284 73.9789C51.8655 74.5116 51.3255 74.9377 50.6085 75.2485C49.8914 75.5592 49.015 75.719 47.9793 75.719C47.0763 75.719 46.2177 75.6036 45.3767 75.3639Z" fill="#FF0000"/>
<path d="M99.1283 75.5326L99.1106 68.732L95.7821 74.334H94.6047L91.2939 68.8829V75.5326H88.8418V64.1953H91.0106L95.2421 71.2356L99.4116 64.1953H101.554L101.589 75.5237H99.1283V75.5326Z" fill="black"/>
<path d="M141.044 66.3349H137.433V64.1953H147.276V66.3349H143.665V75.5326H141.044V66.3349Z" fill="black"/>
<path d="M198.533 64.1953L194.832 75.5237H192.026L189.539 67.8442L186.971 75.5237H184.174L180.465 64.1953H183.183L185.732 72.1589L188.397 64.1953H190.822L193.407 72.2211L196.036 64.1953H198.533Z" fill="black"/>
<path d="M235.332 66.3349H231.72V64.1953H241.564V66.3349H237.952V75.5326H235.332V66.3349Z" fill="black"/>
<path d="M282.586 66.2994V69.3002H287.818V71.4043H282.586V75.5326H279.966V64.1953H288.508V66.2994H282.586Z" fill="black"/>
<path d="M328.238 75.3639C327.406 75.1153 326.733 74.8046 326.229 74.4139L327.114 72.443C327.601 72.807 328.176 73.0911 328.84 73.3042C329.504 73.5173 330.177 73.6327 330.841 73.6327C331.584 73.6327 332.133 73.5173 332.487 73.3042C332.841 73.0822 333.018 72.7893 333.018 72.4164C333.018 72.15 332.912 71.9192 332.7 71.7417C332.487 71.5641 332.222 71.422 331.894 71.3155C331.567 71.209 331.124 71.0847 330.557 70.9604C329.699 70.7562 328.99 70.552 328.442 70.3478C327.893 70.1436 327.424 69.8151 327.025 69.3623C326.636 68.9007 326.441 68.3059 326.441 67.5512C326.441 66.8854 326.618 66.2905 326.972 65.7579C327.326 65.2252 327.866 64.799 328.583 64.4883C329.309 64.1598 330.186 64 331.212 64C331.938 64 332.638 64.0888 333.328 64.2575C334.019 64.435 334.621 64.6747 335.134 65.0032L334.328 66.9919C333.284 66.3971 332.239 66.1041 331.195 66.1041C330.46 66.1041 329.92 66.2284 329.575 66.4592C329.221 66.6989 329.052 67.0097 329.052 67.4003C329.052 67.7909 329.256 68.0839 329.654 68.2703C330.062 68.4568 330.672 68.6432 331.505 68.8297C332.363 69.0339 333.071 69.238 333.62 69.4422C334.169 69.6464 334.638 69.9749 335.028 70.4099C335.417 70.8538 335.621 71.4487 335.621 72.2122C335.621 72.8514 335.444 73.4462 335.081 73.9789C334.718 74.5116 334.178 74.9377 333.461 75.2485C332.744 75.5592 331.867 75.719 330.832 75.719C329.938 75.719 329.07 75.6036 328.238 75.3639Z" fill="black"/>
<path d="M285.613 93.9453V105.283H283.001V96.0494H280.744V93.9453H285.613Z" fill="#333333"/>
<path d="M335.24 103.144V105.283H326.697V103.588L331.061 99.4593C331.522 99.0154 331.831 98.6336 332 98.314C332.159 97.9944 332.239 97.6837 332.239 97.373C332.239 96.9202 332.088 96.5739 331.778 96.3342C331.468 96.0856 331.026 95.9702 330.433 95.9702C329.937 95.9702 329.494 96.0679 329.087 96.2543C328.689 96.4496 328.361 96.7337 328.087 97.1066L326.184 95.8814C326.626 95.2245 327.237 94.7095 328.007 94.3367C328.777 93.9638 329.671 93.7773 330.672 93.7773C331.513 93.7773 332.248 93.9194 332.876 94.1946C333.505 94.4698 333.991 94.8605 334.346 95.3665C334.7 95.8637 334.868 96.4585 334.868 97.1332C334.868 97.7458 334.735 98.3229 334.478 98.8645C334.222 99.3971 333.717 100.019 332.973 100.711L330.371 103.17H335.24V103.144Z" fill="#333333"/>
<path d="M51.4933 132.042C52.0156 132.619 52.2812 133.338 52.2812 134.19C52.2812 134.847 52.113 135.451 51.7677 136.01C51.4225 136.561 50.9002 137.013 50.192 137.351C49.4838 137.679 48.6251 137.848 47.5982 137.848C46.8015 137.848 46.0136 137.741 45.2435 137.537C44.4733 137.324 43.8183 137.022 43.2871 136.641L44.3051 134.625C44.7389 134.954 45.2346 135.202 45.8012 135.38C46.3677 135.557 46.9432 135.646 47.5363 135.646C48.1913 135.646 48.7136 135.513 49.0854 135.264C49.4661 135.016 49.652 134.661 49.652 134.19C49.652 133.258 48.9438 132.796 47.5363 132.796H46.3412V131.065L48.6694 128.419H43.8537V126.324H51.7589V128.02L49.2094 130.932C50.2097 131.092 50.9621 131.465 51.4933 132.042Z" fill="#FF0000"/>
<path d="M100.634 135.272H98.7922V137.652H96.2427V135.272H90.1611V133.506L95.4903 126.314H98.2345L93.2949 133.133H96.3313V131.011H98.8011V133.133H100.642V135.272H100.634Z" fill="#333333"/>
<path d="M145.585 131.536C146.338 132.166 146.727 133.018 146.727 134.093C146.727 134.785 146.55 135.415 146.214 135.984C145.869 136.552 145.346 137.005 144.638 137.342C143.93 137.679 143.063 137.848 142.036 137.848C141.239 137.848 140.46 137.741 139.69 137.537C138.92 137.324 138.265 137.022 137.733 136.641L138.769 134.625C139.203 134.954 139.69 135.202 140.256 135.38C140.814 135.557 141.389 135.646 141.983 135.646C142.638 135.646 143.16 135.513 143.532 135.256C143.904 134.998 144.098 134.634 144.098 134.172C144.098 133.684 143.904 133.32 143.514 133.072C143.125 132.823 142.443 132.699 141.469 132.699H138.574L139.159 126.324H146.055V128.428H141.336L141.159 130.586H142.08C143.647 130.577 144.824 130.896 145.585 131.536Z" fill="#333333"/>
<path d="M192.389 130.985C192.982 131.278 193.451 131.687 193.796 132.228C194.142 132.761 194.31 133.382 194.31 134.084C194.31 134.838 194.124 135.495 193.743 136.072C193.372 136.649 192.849 137.093 192.203 137.395C191.548 137.706 190.822 137.857 190.034 137.857C188.45 137.857 187.219 137.377 186.325 136.401C185.431 135.433 184.988 134.048 184.988 132.237C184.988 130.959 185.227 129.849 185.714 128.934C186.201 128.011 186.874 127.319 187.741 126.848C188.609 126.369 189.609 126.129 190.751 126.129C191.353 126.129 191.929 126.2 192.486 126.333C193.044 126.466 193.513 126.662 193.903 126.901L192.929 128.828C192.371 128.455 191.663 128.26 190.813 128.26C189.857 128.26 189.096 128.544 188.538 129.103C187.98 129.662 187.679 130.479 187.635 131.545C188.299 130.879 189.229 130.541 190.424 130.541C191.141 130.541 191.796 130.692 192.389 130.985ZM191.256 135.433C191.61 135.122 191.778 134.714 191.778 134.199C191.778 133.684 191.601 133.276 191.256 132.965C190.911 132.654 190.441 132.503 189.857 132.503C189.291 132.503 188.821 132.663 188.45 132.983C188.087 133.302 187.901 133.711 187.901 134.208C187.901 134.705 188.078 135.113 188.432 135.424C188.786 135.735 189.273 135.895 189.884 135.895C190.45 135.886 190.902 135.735 191.256 135.433Z" fill="#333333"/>
<path d="M241.113 126.324V128.02L236.917 137.653H234.075L238.129 128.455H234.385V130.293H232.065V126.324H241.113Z" fill="#333333"/>
<path d="M288.101 132.795C288.402 133.257 288.544 133.781 288.544 134.367C288.544 135.068 288.349 135.681 287.951 136.205C287.552 136.728 286.995 137.137 286.269 137.421C285.552 137.705 284.711 137.847 283.763 137.847C282.816 137.847 281.984 137.705 281.276 137.421C280.559 137.137 280.001 136.728 279.612 136.205C279.222 135.681 279.019 135.068 279.019 134.367C279.019 133.781 279.169 133.257 279.461 132.795C279.762 132.343 280.178 131.979 280.727 131.695C280.302 131.437 279.983 131.109 279.762 130.718C279.532 130.318 279.426 129.866 279.426 129.36C279.426 128.703 279.612 128.134 279.975 127.646C280.338 127.158 280.851 126.785 281.506 126.519C282.161 126.252 282.914 126.119 283.763 126.119C284.622 126.119 285.383 126.252 286.047 126.519C286.711 126.785 287.225 127.158 287.588 127.646C287.951 128.134 288.137 128.703 288.137 129.36C288.137 129.866 288.021 130.318 287.8 130.718C287.579 131.109 287.242 131.437 286.818 131.695C287.384 131.979 287.809 132.343 288.101 132.795ZM285.33 135.477C285.711 135.184 285.906 134.784 285.906 134.287C285.906 133.79 285.72 133.399 285.33 133.097C284.95 132.813 284.427 132.662 283.772 132.662C283.126 132.662 282.613 132.804 282.241 133.097C281.86 133.39 281.674 133.781 281.674 134.287C281.674 134.793 281.86 135.192 282.241 135.485C282.613 135.778 283.126 135.921 283.772 135.921C284.427 135.921 284.95 135.77 285.33 135.477ZM282.506 128.436C282.188 128.685 282.028 129.04 282.028 129.475C282.028 129.91 282.188 130.247 282.498 130.496C282.807 130.745 283.232 130.869 283.772 130.869C284.312 130.869 284.746 130.745 285.065 130.496C285.383 130.247 285.552 129.91 285.552 129.475C285.552 129.031 285.392 128.685 285.065 128.436C284.737 128.179 284.312 128.055 283.772 128.055C283.25 128.046 282.825 128.179 282.506 128.436Z" fill="#333333"/>
<path d="M334.098 127.575C334.992 128.543 335.435 129.928 335.435 131.739C335.435 133.026 335.196 134.127 334.718 135.042C334.24 135.956 333.567 136.657 332.691 137.128C331.814 137.607 330.814 137.838 329.672 137.838C329.07 137.838 328.495 137.776 327.946 137.643C327.397 137.501 326.928 137.314 326.538 137.066L327.503 135.139C328.052 135.521 328.76 135.707 329.619 135.707C330.575 135.707 331.336 135.423 331.894 134.855C332.452 134.287 332.753 133.47 332.797 132.405C332.115 133.088 331.186 133.426 329.991 133.426C329.265 133.426 328.61 133.284 328.025 132.991C327.432 132.698 326.963 132.289 326.618 131.748C326.273 131.215 326.104 130.594 326.104 129.892C326.104 129.138 326.29 128.472 326.671 127.904C327.043 127.335 327.556 126.892 328.211 126.581C328.866 126.27 329.583 126.119 330.389 126.119C331.974 126.119 333.204 126.607 334.098 127.575ZM331.983 130.984C332.345 130.674 332.522 130.265 332.522 129.759C332.522 129.262 332.345 128.862 332 128.552C331.646 128.241 331.168 128.081 330.557 128.081C330 128.081 329.539 128.232 329.194 128.534C328.849 128.836 328.672 129.244 328.672 129.759C328.672 130.274 328.849 130.691 329.194 131.002C329.548 131.313 330.008 131.464 330.593 131.464C331.15 131.473 331.62 131.304 331.983 130.984Z" fill="#333333"/>
<path d="M44.4118 158.702V170.031H41.8003V160.797H39.543V158.693H44.4118V158.702Z" fill="#FF0000"/>
<path d="M48.7228 169.533C47.988 169.072 47.4126 168.397 47.0054 167.518C46.5893 166.639 46.3857 165.583 46.3857 164.366C46.3857 163.141 46.5893 162.094 47.0054 161.215C47.4215 160.336 47.9969 159.661 48.7228 159.199C49.4487 158.738 50.2897 158.498 51.2192 158.498C52.1575 158.498 52.9896 158.729 53.7244 159.199C54.4591 159.661 55.0345 160.336 55.4418 161.215C55.8578 162.094 56.0614 163.141 56.0614 164.366C56.0614 165.583 55.8578 166.639 55.4418 167.518C55.0257 168.397 54.4503 169.072 53.7244 169.533C52.9896 169.995 52.1575 170.226 51.2192 170.226C50.2897 170.226 49.4575 169.995 48.7228 169.533ZM52.848 167.119C53.2375 166.524 53.4323 165.609 53.4323 164.366C53.4323 163.124 53.2375 162.209 52.848 161.614C52.4585 161.019 51.9185 160.726 51.228 160.726C50.5464 160.726 50.0152 161.019 49.6257 161.614C49.2362 162.2 49.0415 163.124 49.0415 164.366C49.0415 165.609 49.2362 166.524 49.6257 167.119C50.0152 167.713 50.5552 168.006 51.228 168.006C51.9185 168.006 52.4585 167.713 52.848 167.119Z" fill="#FF0000"/>
<path d="M93.8787 158.702V170.031H91.2583V160.797H89.001V158.693H93.8787V158.702Z" fill="#333333"/>
<path d="M100.199 158.702V170.031H97.5874V160.797H95.3301V158.693H100.199V158.702Z" fill="#333333"/>
<path d="M139.416 158.702V170.031H136.804V160.797H134.547V158.693H139.416V158.702Z" fill="#333333"/>
<path d="M149.827 167.892V170.031H141.284V168.336L145.648 164.207C146.109 163.763 146.427 163.382 146.587 163.062C146.746 162.742 146.826 162.432 146.826 162.121C146.826 161.668 146.675 161.322 146.365 161.082C146.055 160.834 145.613 160.718 145.02 160.718C144.524 160.718 144.072 160.816 143.674 161.002C143.276 161.198 142.948 161.482 142.674 161.855L140.771 160.629C141.213 159.973 141.824 159.458 142.594 159.085C143.373 158.712 144.258 158.525 145.259 158.525C146.1 158.525 146.834 158.667 147.463 158.943C148.091 159.218 148.578 159.609 148.932 160.115C149.287 160.612 149.455 161.207 149.455 161.881C149.455 162.494 149.322 163.071 149.065 163.613C148.808 164.145 148.304 164.767 147.56 165.459L144.958 167.918H149.827V167.892Z" fill="#333333"/>
<path d="M186.537 158.702V170.031H183.925V160.797H181.668V158.693H186.537V158.702Z" fill="#333333"/>
<path d="M196.062 164.42C196.584 164.997 196.85 165.716 196.85 166.568C196.85 167.225 196.681 167.829 196.336 168.388C195.991 168.938 195.469 169.391 194.76 169.729C194.052 170.057 193.193 170.226 192.167 170.226C191.37 170.226 190.582 170.119 189.812 169.915C189.042 169.702 188.387 169.4 187.855 169.018L188.873 167.012C189.307 167.34 189.803 167.589 190.37 167.767C190.936 167.944 191.512 168.042 192.105 168.042C192.76 168.042 193.282 167.909 193.654 167.66C194.034 167.411 194.22 167.047 194.22 166.586C194.22 165.654 193.512 165.192 192.105 165.192H190.91V163.461L193.238 160.815H188.422V158.711H196.327V160.407L193.778 163.319C194.778 163.478 195.53 163.842 196.062 164.42Z" fill="#333333"/>
<path d="M232.906 158.702V170.031H230.294V160.797H228.037V158.693H232.906V158.702Z" fill="#333333"/>
<path d="M245.219 167.651H243.378V170.031H240.829V167.651H234.747V165.885L240.076 158.693H242.82L237.881 165.512H240.917V163.39H243.387V165.512H245.228V167.651H245.219Z" fill="#333333"/>
<path d="M280.815 158.702V170.031H278.204V160.797H275.946V158.693H280.815V158.702Z" fill="#333333"/>
<path d="M290.181 163.914C290.934 164.545 291.323 165.406 291.323 166.471C291.323 167.164 291.146 167.794 290.81 168.362C290.464 168.93 289.942 169.383 289.234 169.721C288.526 170.058 287.658 170.227 286.631 170.227C285.835 170.227 285.056 170.12 284.285 169.916C283.515 169.703 282.86 169.401 282.329 169.019L283.365 167.013C283.79 167.341 284.285 167.59 284.852 167.767C285.41 167.945 285.985 168.043 286.578 168.043C287.233 168.043 287.756 167.909 288.127 167.652C288.499 167.395 288.694 167.031 288.694 166.569C288.694 166.081 288.499 165.717 288.11 165.468C287.72 165.219 287.039 165.095 286.065 165.095H283.17L283.754 158.721H290.65V160.825H285.932L285.755 162.982H286.676C288.243 162.956 289.42 163.275 290.181 163.914Z" fill="#333333"/>
<path d="M327.609 158.7V170.029H324.998V160.795H322.74V158.691H327.609V158.7Z" fill="#333333"/>
<path d="M336.984 163.362C337.577 163.655 338.046 164.064 338.391 164.605C338.736 165.138 338.905 165.759 338.905 166.461C338.905 167.215 338.719 167.872 338.338 168.449C337.966 169.026 337.444 169.47 336.798 169.772C336.143 170.083 335.417 170.234 334.629 170.234C333.044 170.234 331.814 169.754 330.92 168.778C330.026 167.81 329.583 166.425 329.583 164.614C329.583 163.336 329.822 162.226 330.309 161.311C330.796 160.388 331.469 159.696 332.336 159.225C333.204 158.746 334.204 158.506 335.346 158.506C335.948 158.506 336.523 158.577 337.081 158.71C337.639 158.843 338.108 159.039 338.497 159.278L337.524 161.205C336.966 160.832 336.258 160.637 335.408 160.637C334.452 160.637 333.691 160.921 333.133 161.48C332.575 162.039 332.274 162.856 332.23 163.921C332.894 163.256 333.823 162.918 335.018 162.918C335.735 162.918 336.399 163.069 336.984 163.362ZM335.851 167.819C336.205 167.508 336.373 167.1 336.373 166.585C336.373 166.07 336.196 165.662 335.851 165.351C335.505 165.04 335.036 164.889 334.452 164.889C333.885 164.889 333.416 165.049 333.044 165.369C332.681 165.688 332.495 166.097 332.495 166.594C332.495 167.091 332.672 167.499 333.027 167.81C333.381 168.121 333.868 168.281 334.478 168.281C335.045 168.272 335.505 168.121 335.851 167.819Z" fill="#333333"/>
<path d="M44.8893 191.089V202.417H42.2779V193.184H40.0205V191.08H44.8893V191.089Z" fill="#FF0000"/>
<path d="M55.7073 191.089V192.785L51.5113 202.417H48.6697L52.7241 193.22H48.9795V195.057H46.6602V191.08H55.7073V191.089Z" fill="#FF0000"/>
<path d="M91.7096 191.089V202.417H89.0982V193.184H86.8408V191.08H91.7096V191.089Z" fill="#333333"/>
<path d="M102.696 197.561C102.997 198.023 103.138 198.547 103.138 199.132C103.138 199.834 102.944 200.446 102.545 200.97C102.147 201.494 101.589 201.902 100.863 202.187C100.146 202.471 99.3054 202.613 98.3582 202.613C97.411 202.613 96.5788 202.471 95.8706 202.187C95.1536 201.902 94.5959 201.494 94.2064 200.97C93.8169 200.446 93.6133 199.843 93.6133 199.132C93.6133 198.547 93.7638 198.023 94.0559 197.561C94.3569 197.108 94.7729 196.744 95.3218 196.46C94.9057 196.203 94.5782 195.874 94.3569 195.484C94.1267 195.084 94.0205 194.631 94.0205 194.125C94.0205 193.468 94.2064 192.9 94.5693 192.412C94.9323 191.923 95.4457 191.551 96.1008 191.284C96.7559 191.018 97.5083 190.885 98.3582 190.885C99.2169 190.885 99.9782 191.018 100.642 191.284C101.306 191.551 101.819 191.923 102.182 192.412C102.545 192.9 102.731 193.468 102.731 194.125C102.731 194.631 102.616 195.084 102.395 195.484C102.174 195.874 101.837 196.203 101.412 196.46C101.97 196.744 102.404 197.108 102.696 197.561ZM99.9162 200.242C100.297 199.949 100.492 199.55 100.492 199.053C100.492 198.555 100.306 198.165 99.9162 197.863C99.5355 197.57 99.0132 197.428 98.3582 197.428C97.7119 197.428 97.1985 197.57 96.8267 197.863C96.446 198.156 96.2601 198.547 96.2601 199.053C96.2601 199.559 96.446 199.958 96.8267 200.251C97.1985 200.544 97.7119 200.686 98.3582 200.686C99.0221 200.686 99.5355 200.544 99.9162 200.242ZM97.0923 193.202C96.7736 193.451 96.6142 193.806 96.6142 194.241C96.6142 194.676 96.7736 195.013 97.0834 195.262C97.3933 195.51 97.8182 195.635 98.3582 195.635C98.8982 195.635 99.3319 195.51 99.6506 195.262C99.9693 195.013 100.138 194.676 100.138 194.241C100.138 193.797 99.9782 193.451 99.6506 193.202C99.3231 192.944 98.8982 192.82 98.3582 192.82C97.8359 192.811 97.411 192.944 97.0923 193.202Z" fill="#333333"/>
<path d="M139.035 191.089V202.417H136.423V193.184H134.166V191.08H139.035V191.089Z" fill="#333333"/>
<path d="M148.693 192.341C149.587 193.308 150.03 194.693 150.03 196.505C150.03 197.792 149.791 198.893 149.313 199.807C148.835 200.722 148.153 201.423 147.285 201.894C146.409 202.373 145.409 202.604 144.267 202.604C143.665 202.604 143.089 202.542 142.541 202.408C141.992 202.266 141.522 202.08 141.133 201.831L142.098 199.905C142.647 200.287 143.355 200.473 144.214 200.473C145.17 200.473 145.931 200.189 146.489 199.621C147.046 199.053 147.347 198.236 147.392 197.17C146.71 197.854 145.78 198.191 144.585 198.191C143.86 198.191 143.204 198.049 142.62 197.756C142.027 197.463 141.558 197.055 141.213 196.513C140.867 195.981 140.699 195.359 140.699 194.658C140.699 193.903 140.885 193.237 141.266 192.66C141.638 192.092 142.151 191.648 142.806 191.346C143.461 191.036 144.178 190.885 144.975 190.885C146.56 190.885 147.799 191.373 148.693 192.341ZM146.568 195.75C146.931 195.439 147.108 195.031 147.108 194.525C147.108 194.028 146.931 193.628 146.586 193.317C146.232 193.007 145.754 192.847 145.143 192.847C144.585 192.847 144.125 192.998 143.78 193.3C143.435 193.601 143.258 194.01 143.258 194.525C143.258 195.04 143.435 195.457 143.78 195.768C144.134 196.078 144.594 196.229 145.179 196.229C145.736 196.238 146.205 196.07 146.568 195.75Z" fill="#333333"/>
<path d="M188.334 200.278V202.418H179.792V200.722L184.156 196.594C184.616 196.15 184.935 195.768 185.094 195.449C185.254 195.129 185.333 194.818 185.333 194.508C185.333 194.055 185.183 193.709 184.873 193.469C184.563 193.22 184.121 193.105 183.527 193.105C183.032 193.105 182.589 193.203 182.182 193.389C181.784 193.584 181.456 193.868 181.182 194.241L179.278 193.016C179.721 192.359 180.332 191.844 181.102 191.471C181.881 191.099 182.766 190.912 183.766 190.912C184.607 190.912 185.342 191.054 185.971 191.329C186.599 191.605 187.086 191.995 187.44 192.501C187.794 192.998 187.963 193.593 187.963 194.268C187.963 194.881 187.83 195.458 187.573 195.999C187.316 196.532 186.812 197.153 186.068 197.837L183.466 200.296H188.334V200.278Z" fill="#333333"/>
<path d="M191.751 201.92C191.016 201.459 190.441 200.784 190.034 199.905C189.618 199.026 189.414 197.969 189.414 196.753C189.414 195.528 189.618 194.48 190.034 193.601C190.45 192.723 191.025 192.048 191.751 191.586C192.477 191.124 193.318 190.885 194.247 190.885C195.186 190.885 196.018 191.116 196.753 191.586C197.487 192.048 198.063 192.723 198.47 193.601C198.886 194.48 199.09 195.528 199.09 196.753C199.09 197.969 198.886 199.026 198.47 199.905C198.054 200.784 197.479 201.459 196.753 201.92C196.018 202.382 195.186 202.613 194.247 202.613C193.318 202.613 192.486 202.382 191.751 201.92ZM195.876 199.505C196.266 198.911 196.461 197.996 196.461 196.753C196.461 195.51 196.266 194.596 195.876 194.001C195.487 193.406 194.947 193.113 194.256 193.113C193.575 193.113 193.044 193.406 192.654 194.001C192.265 194.587 192.07 195.51 192.07 196.753C192.07 197.996 192.265 198.911 192.654 199.505C193.044 200.1 193.584 200.393 194.256 200.393C194.947 200.393 195.487 200.1 195.876 199.505Z" fill="#333333"/>
<path d="M237.784 200.278V202.418H229.241V200.722L233.605 196.594C234.066 196.15 234.384 195.768 234.544 195.449C234.703 195.129 234.783 194.818 234.783 194.508C234.783 194.055 234.632 193.709 234.322 193.469C234.012 193.22 233.57 193.105 232.977 193.105C232.481 193.105 232.038 193.203 231.631 193.389C231.233 193.584 230.905 193.868 230.631 194.241L228.728 193.016C229.17 192.359 229.781 191.844 230.551 191.471C231.33 191.099 232.215 190.912 233.216 190.912C234.057 190.912 234.791 191.054 235.42 191.329C236.048 191.605 236.544 191.995 236.889 192.501C237.244 192.998 237.412 193.593 237.412 194.268C237.412 194.881 237.279 195.458 237.022 195.999C236.766 196.532 236.261 197.153 235.517 197.837L232.915 200.296H237.784V200.278Z" fill="#333333"/>
<path d="M243.228 191.089V202.417H240.617V193.184H238.359V191.08H243.228V191.089Z" fill="#333333"/>
<path d="M283.338 200.278V202.418H274.796V200.722L279.16 196.594C279.62 196.15 279.93 195.768 280.098 195.449C280.258 195.129 280.337 194.818 280.337 194.508C280.337 194.055 280.187 193.709 279.877 193.469C279.567 193.22 279.124 193.105 278.531 193.105C278.036 193.105 277.593 193.203 277.186 193.389C276.787 193.584 276.46 193.868 276.185 194.241L274.282 193.016C274.725 192.359 275.336 191.844 276.106 191.471C276.885 191.099 277.77 190.912 278.77 190.912C279.611 190.912 280.346 191.054 280.975 191.329C281.603 191.605 282.09 191.995 282.444 192.501C282.798 192.998 282.966 193.593 282.966 194.268C282.966 194.881 282.834 195.458 282.577 195.999C282.32 196.532 281.816 197.153 281.072 197.837L278.469 200.296H283.338V200.278Z" fill="#333333"/>
<path d="M292.864 200.278V202.418H284.321V200.722L288.685 196.594C289.146 196.15 289.464 195.768 289.624 195.449C289.783 195.129 289.863 194.818 289.863 194.508C289.863 194.055 289.712 193.709 289.402 193.469C289.093 193.22 288.65 193.105 288.057 193.105C287.561 193.105 287.118 193.203 286.711 193.389C286.313 193.584 285.985 193.868 285.711 194.241L283.808 193.016C284.25 192.359 284.861 191.844 285.631 191.471C286.41 191.099 287.295 190.912 288.296 190.912C289.137 190.912 289.872 191.054 290.5 191.329C291.129 191.605 291.615 191.995 291.97 192.501C292.324 192.998 292.492 193.593 292.492 194.268C292.492 194.881 292.359 195.458 292.102 195.999C291.846 196.532 291.341 197.153 290.597 197.837L287.995 200.296H292.864V200.278Z" fill="#333333"/>
<path d="M330.459 200.278V202.418H321.917V200.722L326.281 196.594C326.741 196.15 327.06 195.768 327.219 195.449C327.379 195.129 327.458 194.818 327.458 194.508C327.458 194.055 327.308 193.709 326.998 193.469C326.688 193.22 326.246 193.105 325.652 193.105C325.157 193.105 324.705 193.203 324.307 193.389C323.909 193.584 323.581 193.868 323.307 194.241L321.403 193.016C321.846 192.359 322.457 191.844 323.227 191.471C324.006 191.099 324.891 190.912 325.891 190.912C326.732 190.912 327.467 191.054 328.096 191.329C328.724 191.605 329.211 191.995 329.565 192.501C329.919 192.998 330.088 193.593 330.088 194.268C330.088 194.881 329.955 195.458 329.698 195.999C329.441 196.532 328.937 197.153 328.193 197.837L325.591 200.296H330.459V200.278Z" fill="#333333"/>
<path d="M339.1 196.806C339.622 197.383 339.888 198.103 339.888 198.955C339.888 199.612 339.719 200.216 339.374 200.775C339.029 201.325 338.507 201.778 337.798 202.115C337.09 202.444 336.231 202.613 335.205 202.613C334.408 202.613 333.62 202.506 332.859 202.302C332.089 202.089 331.433 201.787 330.902 201.405L331.92 199.39C332.354 199.718 332.85 199.967 333.416 200.145C333.983 200.322 334.558 200.411 335.151 200.411C335.807 200.411 336.329 200.278 336.701 200.029C337.081 199.781 337.267 199.425 337.267 198.955C337.267 198.023 336.559 197.561 335.151 197.561H333.956V195.83L336.285 193.184H331.469V191.08H339.374V192.776L336.825 195.688C337.807 195.865 338.569 196.229 339.1 196.806Z" fill="#333333"/>
<path d="M46.8197 232.664V234.804H38.2771V233.108L42.6413 228.98C43.1017 228.536 43.4204 228.154 43.5797 227.835C43.739 227.515 43.8187 227.204 43.8187 226.885C43.8187 226.432 43.6682 226.086 43.3584 225.846C43.0486 225.597 42.6059 225.482 42.0128 225.482C41.5171 225.482 41.0745 225.58 40.6673 225.766C40.2689 225.961 39.9414 226.245 39.6669 226.618L37.7637 225.393C38.2063 224.736 38.8171 224.221 39.5873 223.848C40.3574 223.476 41.2515 223.289 42.2518 223.289C43.0928 223.289 43.8276 223.431 44.4561 223.706C45.0846 223.982 45.5803 224.372 45.9256 224.878C46.2797 225.375 46.4479 225.97 46.4479 226.645C46.4479 227.258 46.3151 227.835 46.0584 228.376C45.8017 228.909 45.2971 229.53 44.5535 230.214L41.9509 232.673H46.8197V232.664Z" fill="#FF0000"/>
<path d="M58.2478 232.425H56.4065V234.804H53.857V232.425H47.7754V230.658L53.1045 223.467H55.8488L50.9091 230.285H53.9455V228.163H56.4153V230.285H58.2566V232.425H58.2478Z" fill="#FF0000"/>
<path d="M94.7201 232.664V234.804H86.1775V233.108L90.5417 228.98C91.0021 228.536 91.3207 228.154 91.4801 227.835C91.6394 227.515 91.7191 227.204 91.7191 226.885C91.7191 226.432 91.5686 226.086 91.2588 225.846C90.9489 225.597 90.5063 225.482 89.9132 225.482C89.4175 225.482 88.9749 225.58 88.5677 225.766C88.1693 225.961 87.8418 226.245 87.5673 226.618L85.6641 225.393C86.1067 224.736 86.7175 224.221 87.4877 223.848C88.2667 223.476 89.1519 223.289 90.1522 223.289C90.9932 223.289 91.728 223.431 92.3565 223.706C92.985 223.982 93.4807 224.372 93.826 224.878C94.1801 225.375 94.3483 225.97 94.3483 226.645C94.3483 227.258 94.2155 227.835 93.9588 228.376C93.702 228.909 93.1975 229.53 92.4539 230.214L89.8513 232.673H94.7201V232.664Z" fill="#333333"/>
<path d="M103.21 228.686C103.962 229.316 104.343 230.178 104.343 231.243C104.343 231.935 104.166 232.566 103.829 233.134C103.484 233.702 102.962 234.155 102.254 234.492C101.545 234.83 100.678 234.998 99.6509 234.998C98.8542 234.998 98.0752 234.892 97.305 234.688C96.5349 234.474 95.8798 234.173 95.3486 233.791L96.3844 231.776C96.8093 232.104 97.305 232.353 97.8716 232.53C98.4293 232.708 99.0047 232.797 99.5978 232.797C100.253 232.797 100.775 232.663 101.147 232.406C101.519 232.148 101.714 231.784 101.714 231.323C101.714 230.835 101.519 230.47 101.129 230.222C100.74 229.973 100.058 229.849 99.0843 229.849H96.1896L96.7739 223.475H103.67V225.579H98.9516L98.7745 227.736H99.6952C101.271 227.727 102.448 228.047 103.21 228.686Z" fill="#333333"/>
<path d="M141.523 232.666V234.806H132.98V233.11L137.344 228.982C137.805 228.538 138.123 228.156 138.283 227.837C138.442 227.517 138.522 227.206 138.522 226.887C138.522 226.434 138.371 226.088 138.062 225.848C137.752 225.599 137.309 225.484 136.716 225.484C136.22 225.484 135.778 225.582 135.37 225.768C134.972 225.963 134.644 226.247 134.37 226.62L132.467 225.395C132.909 224.738 133.52 224.223 134.29 223.85C135.069 223.477 135.955 223.291 136.955 223.291C137.796 223.291 138.531 223.433 139.159 223.708C139.788 223.984 140.283 224.374 140.629 224.88C140.983 225.377 141.151 225.972 141.151 226.647C141.151 227.26 141.018 227.837 140.762 228.378C140.505 228.911 140 229.532 139.257 230.216L136.654 232.675H141.523V232.666Z" fill="#333333"/>
<path d="M150.012 228.138C150.605 228.431 151.074 228.839 151.419 229.38C151.765 229.913 151.933 230.535 151.933 231.236C151.933 231.991 151.747 232.648 151.366 233.225C150.995 233.802 150.472 234.246 149.826 234.547C149.171 234.858 148.445 235.009 147.657 235.009C146.073 235.009 144.842 234.53 143.948 233.553C143.054 232.585 142.611 231.2 142.611 229.389C142.611 228.111 142.85 227.001 143.337 226.087C143.824 225.163 144.497 224.471 145.364 224C146.232 223.521 147.232 223.281 148.374 223.281C148.976 223.281 149.552 223.352 150.109 223.485C150.667 223.619 151.136 223.814 151.526 224.054L150.552 225.98C149.994 225.607 149.286 225.412 148.436 225.412C147.48 225.412 146.719 225.696 146.161 226.255C145.603 226.815 145.302 227.631 145.258 228.697C145.922 228.031 146.852 227.694 148.047 227.694C148.764 227.694 149.419 227.845 150.012 228.138ZM148.87 232.585C149.224 232.275 149.392 231.866 149.392 231.351C149.392 230.836 149.215 230.428 148.87 230.117C148.525 229.807 148.056 229.656 147.471 229.656C146.905 229.656 146.436 229.815 146.064 230.135C145.701 230.455 145.515 230.863 145.515 231.36C145.515 231.857 145.692 232.266 146.046 232.577C146.4 232.887 146.887 233.047 147.498 233.047C148.073 233.038 148.525 232.887 148.87 232.585Z" fill="#333333"/>
<path d="M188.803 232.664V234.804H180.261V233.108L184.625 228.98C185.085 228.536 185.395 228.154 185.563 227.835C185.722 227.515 185.802 227.204 185.802 226.885C185.802 226.432 185.652 226.086 185.342 225.846C185.032 225.597 184.589 225.482 183.996 225.482C183.5 225.482 183.058 225.58 182.651 225.766C182.252 225.961 181.925 226.245 181.65 226.618L179.747 225.393C180.19 224.736 180.801 224.221 181.571 223.848C182.341 223.476 183.235 223.289 184.235 223.289C185.076 223.289 185.811 223.431 186.439 223.706C187.068 223.982 187.555 224.372 187.909 224.878C188.263 225.375 188.431 225.97 188.431 226.645C188.431 227.258 188.298 227.835 188.042 228.376C187.785 228.909 187.28 229.53 186.537 230.214L183.934 232.673H188.803V232.664Z" fill="#333333"/>
<path d="M198.727 223.476V225.171L194.531 234.804H191.689L195.744 225.606H191.999V227.444H189.671V223.467H198.727V223.476Z" fill="#333333"/>
<path d="M235.623 232.664V234.804H227.081V233.108L231.445 228.98C231.905 228.536 232.224 228.154 232.383 227.835C232.543 227.515 232.622 227.204 232.622 226.885C232.622 226.432 232.472 226.086 232.162 225.846C231.852 225.597 231.41 225.482 230.817 225.482C230.321 225.482 229.878 225.58 229.471 225.766C229.073 225.961 228.745 226.245 228.471 226.618L226.567 225.393C227.01 224.736 227.621 224.221 228.391 223.848C229.161 223.476 230.055 223.289 231.056 223.289C231.897 223.289 232.631 223.431 233.26 223.706C233.888 223.982 234.375 224.372 234.729 224.878C235.083 225.375 235.252 225.97 235.252 226.645C235.252 227.258 235.119 227.835 234.862 228.376C234.605 228.909 234.101 229.53 233.357 230.214L230.755 232.673H235.623V232.664Z" fill="#333333"/>
<path d="M245.715 229.948C246.016 230.409 246.158 230.933 246.158 231.519C246.158 232.221 245.963 232.833 245.556 233.357C245.158 233.881 244.6 234.289 243.874 234.573C243.157 234.857 242.316 234.999 241.369 234.999C240.422 234.999 239.59 234.857 238.881 234.573C238.164 234.289 237.607 233.881 237.217 233.357C236.828 232.833 236.624 232.229 236.624 231.519C236.624 230.933 236.775 230.409 237.067 229.948C237.368 229.495 237.784 229.131 238.333 228.847C237.908 228.589 237.589 228.261 237.368 227.87C237.137 227.471 237.031 227.018 237.031 226.512C237.031 225.855 237.217 225.287 237.58 224.799C237.943 224.31 238.456 223.937 239.112 223.671C239.767 223.405 240.519 223.271 241.369 223.271C242.228 223.271 242.989 223.405 243.653 223.671C244.317 223.937 244.83 224.31 245.193 224.799C245.556 225.287 245.742 225.855 245.742 226.512C245.742 227.018 245.627 227.471 245.406 227.87C245.184 228.261 244.848 228.589 244.423 228.847C244.998 229.122 245.423 229.495 245.715 229.948ZM242.945 232.62C243.325 232.327 243.52 231.928 243.52 231.43C243.52 230.933 243.334 230.543 242.945 230.241C242.564 229.957 242.042 229.806 241.387 229.806C240.74 229.806 240.227 229.948 239.855 230.241C239.474 230.534 239.289 230.924 239.289 231.43C239.289 231.936 239.474 232.336 239.855 232.629C240.227 232.913 240.74 233.064 241.387 233.064C242.042 233.073 242.564 232.922 242.945 232.62ZM240.121 225.589C239.802 225.837 239.643 226.192 239.643 226.627C239.643 227.062 239.802 227.4 240.112 227.648C240.422 227.897 240.847 228.021 241.387 228.021C241.927 228.021 242.36 227.897 242.679 227.648C242.998 227.4 243.166 227.062 243.166 226.627C243.166 226.183 243.007 225.837 242.679 225.589C242.352 225.331 241.927 225.207 241.387 225.207C240.855 225.198 240.431 225.331 240.121 225.589Z" fill="#333333"/>
<path d="M282.957 232.664V234.804H274.415V233.108L278.779 228.98C279.239 228.536 279.549 228.154 279.717 227.835C279.877 227.515 279.956 227.204 279.956 226.885C279.956 226.432 279.806 226.086 279.496 225.846C279.186 225.597 278.744 225.482 278.151 225.482C277.655 225.482 277.212 225.58 276.805 225.766C276.407 225.961 276.079 226.245 275.805 226.618L273.901 225.393C274.344 224.736 274.955 224.221 275.725 223.848C276.504 223.476 277.389 223.289 278.39 223.289C279.231 223.289 279.965 223.431 280.594 223.706C281.222 223.982 281.709 224.372 282.063 224.878C282.417 225.375 282.586 225.97 282.586 226.645C282.586 227.258 282.453 227.835 282.196 228.376C281.939 228.909 281.435 229.53 280.691 230.214L278.089 232.673H282.957V232.664Z" fill="#333333"/>
<path d="M291.721 224.727C292.615 225.686 293.058 227.08 293.058 228.891C293.058 230.179 292.819 231.279 292.341 232.194C291.863 233.108 291.181 233.81 290.314 234.28C289.437 234.76 288.437 234.991 287.295 234.991C286.693 234.991 286.118 234.928 285.569 234.795C285.02 234.653 284.551 234.467 284.161 234.218L285.126 232.292C285.675 232.673 286.383 232.86 287.242 232.86C288.198 232.86 288.959 232.576 289.517 232.007C290.075 231.439 290.376 230.623 290.42 229.557C289.738 230.241 288.809 230.578 287.614 230.578C286.888 230.578 286.233 230.436 285.649 230.143C285.055 229.85 284.586 229.442 284.241 228.9C283.896 228.367 283.728 227.746 283.728 227.045C283.728 226.29 283.913 225.624 284.294 225.056C284.666 224.488 285.179 224.044 285.834 223.733C286.489 223.422 287.207 223.271 288.003 223.271C289.588 223.271 290.827 223.76 291.721 224.727ZM289.597 228.137C289.96 227.826 290.137 227.418 290.137 226.911C290.137 226.414 289.96 226.015 289.614 225.704C289.26 225.393 288.782 225.234 288.171 225.234C287.614 225.234 287.153 225.384 286.808 225.686C286.463 225.988 286.286 226.397 286.286 226.911C286.286 227.426 286.463 227.844 286.808 228.154C287.162 228.465 287.623 228.616 288.207 228.616C288.773 228.616 289.234 228.456 289.597 228.137Z" fill="#333333"/>
<path d="M328.866 229.193C329.389 229.77 329.654 230.489 329.654 231.342C329.654 231.999 329.486 232.602 329.141 233.162C328.795 233.712 328.273 234.165 327.565 234.502C326.857 234.831 325.998 234.999 324.971 234.999C324.174 234.999 323.387 234.893 322.625 234.689C321.855 234.476 321.2 234.174 320.669 233.792L321.687 231.777C322.121 232.105 322.616 232.354 323.183 232.531C323.75 232.709 324.325 232.798 324.918 232.798C325.573 232.798 326.095 232.664 326.467 232.416C326.848 232.167 327.034 231.812 327.034 231.342C327.034 230.409 326.326 229.948 324.918 229.948H323.723V228.217L326.051 225.571H321.235V223.467H329.141V225.163L326.591 228.075C327.574 228.243 328.335 228.616 328.866 229.193Z" fill="#333333"/>
<path d="M333.213 234.307C332.478 233.845 331.912 233.171 331.496 232.292C331.08 231.413 330.876 230.356 330.876 229.14C330.876 227.915 331.08 226.867 331.496 225.988C331.912 225.109 332.487 224.435 333.213 223.973C333.939 223.511 334.78 223.271 335.718 223.271C336.657 223.271 337.489 223.502 338.223 223.973C338.958 224.435 339.534 225.109 339.941 225.988C340.357 226.867 340.561 227.915 340.561 229.14C340.561 230.356 340.357 231.413 339.941 232.292C339.525 233.171 338.949 233.845 338.223 234.307C337.489 234.769 336.657 234.999 335.718 234.999C334.771 234.999 333.939 234.769 333.213 234.307ZM337.329 231.892C337.719 231.297 337.922 230.383 337.922 229.14C337.922 227.897 337.728 226.983 337.329 226.388C336.94 225.793 336.4 225.5 335.709 225.5C335.028 225.5 334.497 225.793 334.107 226.388C333.718 226.974 333.523 227.897 333.523 229.14C333.523 230.383 333.718 231.297 334.107 231.892C334.497 232.487 335.037 232.78 335.709 232.78C336.4 232.78 336.94 232.487 337.329 231.892Z" fill="#333333"/>
</g>
<path d="M51.5938 29.8281C51.5938 30.5052 51.4297 31.0938 51.1016 31.5938C50.7734 32.0938 50.2943 32.4792 49.6641 32.75C49.0391 33.0208 48.2786 33.1562 47.3828 33.1562C46.987 33.1562 46.599 33.1302 46.2188 33.0781C45.8438 33.026 45.4818 32.9505 45.1328 32.8516C44.7891 32.7474 44.4609 32.6198 44.1484 32.4688V30.2188C44.6901 30.4583 45.2526 30.6745 45.8359 30.8672C46.4193 31.0599 46.9974 31.1562 47.5703 31.1562C47.9661 31.1562 48.2839 31.1042 48.5234 31C48.7682 30.8958 48.9453 30.7526 49.0547 30.5703C49.1641 30.388 49.2188 30.1797 49.2188 29.9453C49.2188 29.6589 49.1224 29.4141 48.9297 29.2109C48.737 29.0078 48.4714 28.8177 48.1328 28.6406C47.7995 28.4635 47.4219 28.2734 47 28.0703C46.7344 27.9453 46.4453 27.7943 46.1328 27.6172C45.8203 27.4349 45.5234 27.2135 45.2422 26.9531C44.9609 26.6927 44.7292 26.3776 44.5469 26.0078C44.3698 25.6328 44.2812 25.1849 44.2812 24.6641C44.2812 23.9818 44.4375 23.3984 44.75 22.9141C45.0625 22.4297 45.5078 22.0599 46.0859 21.8047C46.6693 21.5443 47.3568 21.4141 48.1484 21.4141C48.7422 21.4141 49.3073 21.4844 49.8438 21.625C50.3854 21.7604 50.9505 21.9583 51.5391 22.2188L50.7578 24.1016C50.2318 23.888 49.7604 23.724 49.3438 23.6094C48.9271 23.4896 48.5026 23.4297 48.0703 23.4297C47.7682 23.4297 47.5104 23.4792 47.2969 23.5781C47.0833 23.6719 46.9219 23.8073 46.8125 23.9844C46.7031 24.1562 46.6484 24.3568 46.6484 24.5859C46.6484 24.8568 46.7266 25.0859 46.8828 25.2734C47.0443 25.4557 47.2839 25.6328 47.6016 25.8047C47.9245 25.9766 48.3255 26.1771 48.8047 26.4062C49.388 26.6823 49.8854 26.9714 50.2969 27.2734C50.7135 27.5703 51.0339 27.9219 51.2578 28.3281C51.4818 28.7292 51.5938 29.2292 51.5938 29.8281ZM57.0781 24.1016C57.8854 24.1016 58.5807 24.2578 59.1641 24.5703C59.7474 24.8776 60.1979 25.3255 60.5156 25.9141C60.8333 26.5026 60.9922 27.2214 60.9922 28.0703V29.2266H55.3594C55.3854 29.8984 55.5859 30.4271 55.9609 30.8125C56.3411 31.1927 56.8672 31.3828 57.5391 31.3828C58.0964 31.3828 58.6068 31.3255 59.0703 31.2109C59.5339 31.0964 60.0104 30.9245 60.5 30.6953V32.5391C60.0677 32.7526 59.6146 32.9089 59.1406 33.0078C58.6719 33.1068 58.1016 33.1562 57.4297 33.1562C56.5547 33.1562 55.7786 32.9948 55.1016 32.6719C54.4297 32.349 53.901 31.8568 53.5156 31.1953C53.1354 30.5339 52.9453 29.7005 52.9453 28.6953C52.9453 27.6745 53.1172 26.8255 53.4609 26.1484C53.8099 25.4661 54.2943 24.9557 54.9141 24.6172C55.5339 24.2734 56.2552 24.1016 57.0781 24.1016ZM57.0938 25.7969C56.6302 25.7969 56.2448 25.9453 55.9375 26.2422C55.6354 26.5391 55.4609 27.0052 55.4141 27.6406H58.7578C58.7526 27.2865 58.6875 26.9714 58.5625 26.6953C58.4427 26.4193 58.2604 26.2005 58.0156 26.0391C57.776 25.8776 57.4688 25.7969 57.0938 25.7969ZM67.7891 24.1016C68.7734 24.1016 69.5677 24.4844 70.1719 25.25C70.7812 26.0156 71.0859 27.138 71.0859 28.6172C71.0859 29.6068 70.9427 30.4401 70.6562 31.1172C70.3698 31.7891 69.974 32.2969 69.4688 32.6406C68.9635 32.9844 68.3828 33.1562 67.7266 33.1562C67.3047 33.1562 66.9427 33.1042 66.6406 33C66.3385 32.8906 66.0807 32.7526 65.8672 32.5859C65.6536 32.4141 65.4688 32.2318 65.3125 32.0391H65.1875C65.2292 32.2474 65.2604 32.4609 65.2812 32.6797C65.3021 32.8984 65.3125 33.112 65.3125 33.3203V36.8438H62.9297V24.2656H64.8672L65.2031 25.3984H65.3125C65.4688 25.1641 65.6589 24.9479 65.8828 24.75C66.1068 24.5521 66.375 24.3958 66.6875 24.2812C67.0052 24.1615 67.3724 24.1016 67.7891 24.1016ZM67.0234 26.0078C66.6068 26.0078 66.276 26.0938 66.0312 26.2656C65.7865 26.4375 65.6068 26.6953 65.4922 27.0391C65.3828 27.3828 65.3229 27.8177 65.3125 28.3438V28.6016C65.3125 29.1641 65.3646 29.6406 65.4688 30.0312C65.5781 30.4219 65.7578 30.7188 66.0078 30.9219C66.263 31.125 66.612 31.2266 67.0547 31.2266C67.4193 31.2266 67.7188 31.125 67.9531 30.9219C68.1875 30.7188 68.362 30.4219 68.4766 30.0312C68.5964 29.6354 68.6562 29.1536 68.6562 28.5859C68.6562 27.7318 68.5234 27.0885 68.2578 26.6562C67.9922 26.224 67.5807 26.0078 67.0234 26.0078ZM76.7344 31.2578C76.9948 31.2578 77.2474 31.2318 77.4922 31.1797C77.7422 31.1276 77.9896 31.0625 78.2344 30.9844V32.7578C77.9792 32.8724 77.6615 32.9661 77.2812 33.0391C76.9062 33.1172 76.4948 33.1562 76.0469 33.1562C75.526 33.1562 75.0573 33.0729 74.6406 32.9062C74.2292 32.7344 73.9036 32.4401 73.6641 32.0234C73.4297 31.6016 73.3125 31.0156 73.3125 30.2656V26.0547H72.1719V25.0469L73.4844 24.25L74.1719 22.4062H75.6953V24.2656H78.1406V26.0547H75.6953V30.2656C75.6953 30.599 75.7891 30.849 75.9766 31.0156C76.1693 31.1771 76.4219 31.2578 76.7344 31.2578ZM83.6094 24.1016C84.4167 24.1016 85.112 24.2578 85.6953 24.5703C86.2786 24.8776 86.7292 25.3255 87.0469 25.9141C87.3646 26.5026 87.5234 27.2214 87.5234 28.0703V29.2266H81.8906C81.9167 29.8984 82.1172 30.4271 82.4922 30.8125C82.8724 31.1927 83.3984 31.3828 84.0703 31.3828C84.6276 31.3828 85.138 31.3255 85.6016 31.2109C86.0651 31.0964 86.5417 30.9245 87.0312 30.6953V32.5391C86.599 32.7526 86.1458 32.9089 85.6719 33.0078C85.2031 33.1068 84.6328 33.1562 83.9609 33.1562C83.0859 33.1562 82.3099 32.9948 81.6328 32.6719C80.9609 32.349 80.4323 31.8568 80.0469 31.1953C79.6667 30.5339 79.4766 29.7005 79.4766 28.6953C79.4766 27.6745 79.6484 26.8255 79.9922 26.1484C80.3411 25.4661 80.8255 24.9557 81.4453 24.6172C82.0651 24.2734 82.7865 24.1016 83.6094 24.1016ZM83.625 25.7969C83.1615 25.7969 82.776 25.9453 82.4688 26.2422C82.1667 26.5391 81.9922 27.0052 81.9453 27.6406H85.2891C85.2839 27.2865 85.2188 26.9714 85.0938 26.6953C84.974 26.4193 84.7917 26.2005 84.5469 26.0391C84.3073 25.8776 84 25.7969 83.625 25.7969ZM99.7188 24.1016C100.708 24.1016 101.456 24.3568 101.961 24.8672C102.471 25.3724 102.727 26.1849 102.727 27.3047V33H100.336V27.8984C100.336 27.2734 100.229 26.8021 100.016 26.4844C99.8021 26.1667 99.4714 26.0078 99.0234 26.0078C98.3932 26.0078 97.9453 26.2344 97.6797 26.6875C97.4141 27.1354 97.2812 27.7786 97.2812 28.6172V33H94.8984V27.8984C94.8984 27.4818 94.8516 27.1328 94.7578 26.8516C94.6641 26.5703 94.5208 26.3594 94.3281 26.2188C94.1354 26.0781 93.888 26.0078 93.5859 26.0078C93.1432 26.0078 92.7943 26.1198 92.5391 26.3438C92.2891 26.5625 92.1094 26.888 92 27.3203C91.8958 27.7474 91.8438 28.2708 91.8438 28.8906V33H89.4609V24.2656H91.2812L91.6016 25.3828H91.7344C91.9115 25.0807 92.1328 24.8359 92.3984 24.6484C92.6693 24.4609 92.9661 24.3229 93.2891 24.2344C93.612 24.1458 93.9401 24.1016 94.2734 24.1016C94.9141 24.1016 95.4557 24.2057 95.8984 24.4141C96.3464 24.6224 96.6901 24.9453 96.9297 25.3828H97.1406C97.401 24.9349 97.7682 24.6094 98.2422 24.4062C98.7214 24.2031 99.2135 24.1016 99.7188 24.1016ZM107.562 20.8438V23.6719C107.562 24 107.552 24.3255 107.531 24.6484C107.516 24.9714 107.495 25.2214 107.469 25.3984H107.562C107.792 25.0391 108.104 24.7344 108.5 24.4844C108.896 24.2292 109.409 24.1016 110.039 24.1016C111.018 24.1016 111.812 24.4844 112.422 25.25C113.031 26.0156 113.336 27.138 113.336 28.6172C113.336 29.612 113.195 30.4479 112.914 31.125C112.633 31.7969 112.24 32.3047 111.734 32.6484C111.229 32.987 110.643 33.1562 109.977 33.1562C109.336 33.1562 108.831 33.0417 108.461 32.8125C108.091 32.5833 107.792 32.3255 107.562 32.0391H107.398L107 33H105.18V20.8438H107.562ZM109.273 26.0078C108.857 26.0078 108.526 26.0938 108.281 26.2656C108.036 26.4375 107.857 26.6953 107.742 27.0391C107.633 27.3828 107.573 27.8177 107.562 28.3438V28.6016C107.562 29.4505 107.688 30.1016 107.938 30.5547C108.188 31.0026 108.643 31.2266 109.305 31.2266C109.794 31.2266 110.182 31 110.469 30.5469C110.76 30.0938 110.906 29.4401 110.906 28.5859C110.906 27.7318 110.76 27.0885 110.469 26.6562C110.177 26.224 109.779 26.0078 109.273 26.0078ZM118.906 24.1016C119.714 24.1016 120.409 24.2578 120.992 24.5703C121.576 24.8776 122.026 25.3255 122.344 25.9141C122.661 26.5026 122.82 27.2214 122.82 28.0703V29.2266H117.188C117.214 29.8984 117.414 30.4271 117.789 30.8125C118.169 31.1927 118.695 31.3828 119.367 31.3828C119.924 31.3828 120.435 31.3255 120.898 31.2109C121.362 31.0964 121.839 30.9245 122.328 30.6953V32.5391C121.896 32.7526 121.443 32.9089 120.969 33.0078C120.5 33.1068 119.93 33.1562 119.258 33.1562C118.383 33.1562 117.607 32.9948 116.93 32.6719C116.258 32.349 115.729 31.8568 115.344 31.1953C114.964 30.5339 114.773 29.7005 114.773 28.6953C114.773 27.6745 114.945 26.8255 115.289 26.1484C115.638 25.4661 116.122 24.9557 116.742 24.6172C117.362 24.2734 118.083 24.1016 118.906 24.1016ZM118.922 25.7969C118.458 25.7969 118.073 25.9453 117.766 26.2422C117.464 26.5391 117.289 27.0052 117.242 27.6406H120.586C120.581 27.2865 120.516 26.9714 120.391 26.6953C120.271 26.4193 120.089 26.2005 119.844 26.0391C119.604 25.8776 119.297 25.7969 118.922 25.7969ZM129.633 24.1016C129.753 24.1016 129.891 24.1094 130.047 24.125C130.208 24.1354 130.339 24.151 130.438 24.1719L130.258 26.4062C130.18 26.3802 130.068 26.362 129.922 26.3516C129.781 26.3359 129.659 26.3281 129.555 26.3281C129.247 26.3281 128.948 26.3672 128.656 26.4453C128.37 26.5234 128.112 26.651 127.883 26.8281C127.654 27 127.471 27.2292 127.336 27.5156C127.206 27.7969 127.141 28.1432 127.141 28.5547V33H124.758V24.2656H126.562L126.914 25.7344H127.031C127.203 25.4375 127.417 25.1667 127.672 24.9219C127.932 24.6719 128.227 24.474 128.555 24.3281C128.888 24.1771 129.247 24.1016 129.633 24.1016ZM143.555 33H135.57V31.3203L138.438 28.4219C139.016 27.8281 139.479 27.3333 139.828 26.9375C140.182 26.5365 140.438 26.1719 140.594 25.8438C140.755 25.5156 140.836 25.1641 140.836 24.7891C140.836 24.3359 140.708 23.9974 140.453 23.7734C140.203 23.5443 139.867 23.4297 139.445 23.4297C139.003 23.4297 138.573 23.5312 138.156 23.7344C137.74 23.9375 137.305 24.2266 136.852 24.6016L135.539 23.0469C135.867 22.7656 136.214 22.5 136.578 22.25C136.948 22 137.375 21.7995 137.859 21.6484C138.349 21.4922 138.935 21.4141 139.617 21.4141C140.367 21.4141 141.01 21.5495 141.547 21.8203C142.089 22.0911 142.505 22.4609 142.797 22.9297C143.089 23.3932 143.234 23.9193 143.234 24.5078C143.234 25.138 143.109 25.7135 142.859 26.2344C142.609 26.7552 142.245 27.2708 141.766 27.7812C141.292 28.2917 140.719 28.8568 140.047 29.4766L138.578 30.8594V30.9688H143.555V33ZM145.859 33L150.148 23.6094H144.516V21.5781H152.711V23.0938L148.391 33H145.859ZM156.711 31.1406L156.828 31.3203C156.734 31.6953 156.612 32.099 156.461 32.5312C156.315 32.9635 156.154 33.3958 155.977 33.8281C155.805 34.2604 155.63 34.6719 155.453 35.0625H153.734C153.839 34.6406 153.94 34.1979 154.039 33.7344C154.138 33.2708 154.229 32.8151 154.312 32.3672C154.401 31.9193 154.471 31.5104 154.523 31.1406H156.711ZM170.586 33H162.602V31.3203L165.469 28.4219C166.047 27.8281 166.51 27.3333 166.859 26.9375C167.214 26.5365 167.469 26.1719 167.625 25.8438C167.786 25.5156 167.867 25.1641 167.867 24.7891C167.867 24.3359 167.74 23.9974 167.484 23.7734C167.234 23.5443 166.898 23.4297 166.477 23.4297C166.034 23.4297 165.604 23.5312 165.188 23.7344C164.771 23.9375 164.336 24.2266 163.883 24.6016L162.57 23.0469C162.898 22.7656 163.245 22.5 163.609 22.25C163.979 22 164.406 21.7995 164.891 21.6484C165.38 21.4922 165.966 21.4141 166.648 21.4141C167.398 21.4141 168.042 21.5495 168.578 21.8203C169.12 22.0911 169.536 22.4609 169.828 22.9297C170.12 23.3932 170.266 23.9193 170.266 24.5078C170.266 25.138 170.141 25.7135 169.891 26.2344C169.641 26.7552 169.276 27.2708 168.797 27.7812C168.323 28.2917 167.75 28.8568 167.078 29.4766L165.609 30.8594V30.9688H170.586V33ZM179.68 27.2891C179.68 28.2109 179.607 29.0339 179.461 29.7578C179.32 30.4818 179.091 31.0964 178.773 31.6016C178.461 32.1068 178.049 32.4922 177.539 32.7578C177.029 33.0234 176.409 33.1562 175.68 33.1562C174.763 33.1562 174.01 32.9245 173.422 32.4609C172.833 31.9922 172.398 31.3203 172.117 30.4453C171.836 29.5651 171.695 28.513 171.695 27.2891C171.695 26.0547 171.823 25 172.078 24.125C172.339 23.2448 172.76 22.5703 173.344 22.1016C173.927 21.6328 174.706 21.3984 175.68 21.3984C176.591 21.3984 177.341 21.6328 177.93 22.1016C178.523 22.5651 178.964 23.237 179.25 24.1172C179.536 24.9922 179.68 26.0495 179.68 27.2891ZM174.094 27.2891C174.094 28.1589 174.141 28.8854 174.234 29.4688C174.333 30.0469 174.497 30.4818 174.727 30.7734C174.956 31.0651 175.273 31.2109 175.68 31.2109C176.081 31.2109 176.396 31.0677 176.625 30.7812C176.859 30.4896 177.026 30.0547 177.125 29.4766C177.224 28.8932 177.273 28.1641 177.273 27.2891C177.273 26.4193 177.224 25.6927 177.125 25.1094C177.026 24.526 176.859 24.0885 176.625 23.7969C176.396 23.5 176.081 23.3516 175.68 23.3516C175.273 23.3516 174.956 23.5 174.727 23.7969C174.497 24.0885 174.333 24.526 174.234 25.1094C174.141 25.6927 174.094 26.4193 174.094 27.2891ZM188.898 33H180.914V31.3203L183.781 28.4219C184.359 27.8281 184.823 27.3333 185.172 26.9375C185.526 26.5365 185.781 26.1719 185.938 25.8438C186.099 25.5156 186.18 25.1641 186.18 24.7891C186.18 24.3359 186.052 23.9974 185.797 23.7734C185.547 23.5443 185.211 23.4297 184.789 23.4297C184.346 23.4297 183.917 23.5312 183.5 23.7344C183.083 23.9375 182.648 24.2266 182.195 24.6016L180.883 23.0469C181.211 22.7656 181.557 22.5 181.922 22.25C182.292 22 182.719 21.7995 183.203 21.6484C183.693 21.4922 184.279 21.4141 184.961 21.4141C185.711 21.4141 186.354 21.5495 186.891 21.8203C187.432 22.0911 187.849 22.4609 188.141 22.9297C188.432 23.3932 188.578 23.9193 188.578 24.5078C188.578 25.138 188.453 25.7135 188.203 26.2344C187.953 26.7552 187.589 27.2708 187.109 27.7812C186.635 28.2917 186.062 28.8568 185.391 29.4766L183.922 30.8594V30.9688H188.898V33ZM197.609 24.1328C197.609 24.6589 197.5 25.1146 197.281 25.5C197.062 25.8854 196.766 26.2005 196.391 26.4453C196.021 26.6901 195.604 26.8698 195.141 26.9844V27.0312C196.057 27.1458 196.753 27.4271 197.227 27.875C197.706 28.3229 197.945 28.9219 197.945 29.6719C197.945 30.3385 197.781 30.9349 197.453 31.4609C197.13 31.987 196.63 32.401 195.953 32.7031C195.276 33.0052 194.404 33.1562 193.336 33.1562C192.706 33.1562 192.117 33.1042 191.57 33C191.029 32.901 190.518 32.7474 190.039 32.5391V30.4844C190.529 30.7344 191.042 30.9245 191.578 31.0547C192.115 31.1797 192.615 31.2422 193.078 31.2422C193.943 31.2422 194.547 31.0938 194.891 30.7969C195.24 30.4948 195.414 30.0729 195.414 29.5312C195.414 29.2135 195.333 28.9453 195.172 28.7266C195.01 28.5078 194.729 28.3411 194.328 28.2266C193.932 28.112 193.378 28.0547 192.664 28.0547H191.797V26.2031H192.68C193.383 26.2031 193.917 26.138 194.281 26.0078C194.651 25.8724 194.901 25.6901 195.031 25.4609C195.167 25.2266 195.234 24.9609 195.234 24.6641C195.234 24.2578 195.109 23.9401 194.859 23.7109C194.609 23.4818 194.193 23.3672 193.609 23.3672C193.245 23.3672 192.911 23.4141 192.609 23.5078C192.312 23.5964 192.044 23.7057 191.805 23.8359C191.565 23.9609 191.354 24.0833 191.172 24.2031L190.055 22.5391C190.503 22.2161 191.026 21.9479 191.625 21.7344C192.229 21.5208 192.948 21.4141 193.781 21.4141C194.958 21.4141 195.891 21.651 196.578 22.125C197.266 22.599 197.609 23.2682 197.609 24.1328Z" fill="#152C5B"/>
<defs>
<clipPath id="clip0_610_1391">
<rect width="330" height="171" fill="white" transform="translate(30 64)"/>
</clipPath>
</defs>
</svg>
