<svg width="370" height="63" viewBox="0 0 370 63" fill="none" xmlns="http://www.w3.org/2000/svg">
<circle cx="132.5" cy="31.5" r="27.5" fill="#E5E5E5"/>
<circle cx="27.5" cy="31.5" r="27.5" fill="#1ABC9C"/>
<path d="M18.0354 30.5855L23.2283 39.2894C23.8738 40.3714 25.3469 40.5942 26.2835 39.7515L42.59 25.0806" stroke="white" stroke-width="4" stroke-linecap="round"/>
<circle cx="132.5" cy="31.5" r="31" stroke="#E5E5E5"/>
<circle cx="237.5" cy="31.5" r="27.5" fill="#E5E5E5"/>
<circle cx="342.5" cy="31.5" r="27.5" fill="#E5E5E5"/>
<line x1="164" y1="31.5" x2="210" y2="31.5" stroke="#E5E5E5"/>
<line x1="55" y1="31.5" x2="101" y2="31.5" stroke="#E5E5E5"/>
<line x1="265" y1="31.5" x2="315" y2="31.5" stroke="#E5E5E5"/>
<path d="M133.426 40H131.527V27.8594C131.527 27.3984 131.527 27.0039 131.527 26.6758C131.535 26.3398 131.543 26.0352 131.551 25.7617C131.566 25.4805 131.586 25.1953 131.609 24.9062C131.367 25.1562 131.141 25.3711 130.93 25.5508C130.719 25.7227 130.457 25.9375 130.145 26.1953L128.188 27.7656L127.168 26.4414L131.809 22.8672H133.426V40Z" fill="#898989"/>
<path d="M242.41 40H231.184V38.3711L235.766 33.7188C236.617 32.8594 237.332 32.0938 237.91 31.4219C238.496 30.75 238.941 30.0898 239.246 29.4414C239.551 28.7852 239.703 28.0664 239.703 27.2852C239.703 26.3164 239.414 25.5781 238.836 25.0703C238.266 24.5547 237.512 24.2969 236.574 24.2969C235.754 24.2969 235.027 24.4375 234.395 24.7188C233.762 25 233.113 25.3984 232.449 25.9141L231.406 24.6016C231.859 24.2188 232.352 23.8789 232.883 23.582C233.422 23.2852 233.996 23.0508 234.605 22.8789C235.223 22.707 235.879 22.6211 236.574 22.6211C237.629 22.6211 238.539 22.8047 239.305 23.1719C240.07 23.5391 240.66 24.0625 241.074 24.7422C241.496 25.4219 241.707 26.2305 241.707 27.168C241.707 28.0742 241.527 28.918 241.168 29.6992C240.809 30.4727 240.305 31.2422 239.656 32.0078C239.008 32.7656 238.25 33.5703 237.383 34.4219L233.656 38.1367V38.2188H242.41V40Z" fill="#898989"/>
<path d="M346.777 26.8633C346.777 27.6289 346.629 28.293 346.332 28.8555C346.035 29.418 345.621 29.8789 345.09 30.2383C344.559 30.5898 343.934 30.8359 343.215 30.9766V31.0703C344.574 31.2422 345.594 31.6797 346.273 32.3828C346.961 33.0859 347.305 34.0078 347.305 35.1484C347.305 36.1406 347.07 37.0195 346.602 37.7852C346.141 38.5508 345.43 39.1523 344.469 39.5898C343.516 40.0195 342.293 40.2344 340.801 40.2344C339.895 40.2344 339.055 40.1602 338.281 40.0117C337.516 39.8711 336.781 39.6328 336.078 39.2969V37.4688C336.789 37.8203 337.562 38.0977 338.398 38.3008C339.234 38.4961 340.043 38.5938 340.824 38.5938C342.387 38.5938 343.516 38.2852 344.211 37.668C344.906 37.043 345.254 36.1914 345.254 35.1133C345.254 34.3711 345.059 33.7734 344.668 33.3203C344.285 32.8594 343.73 32.5234 343.004 32.3125C342.285 32.0938 341.418 31.9844 340.402 31.9844H338.691V30.3203H340.414C341.344 30.3203 342.133 30.1836 342.781 29.9102C343.43 29.6367 343.922 29.2539 344.258 28.7617C344.602 28.2617 344.773 27.6719 344.773 26.9922C344.773 26.125 344.484 25.457 343.906 24.9883C343.328 24.5117 342.543 24.2734 341.551 24.2734C340.941 24.2734 340.387 24.3359 339.887 24.4609C339.387 24.5859 338.918 24.7578 338.48 24.9766C338.043 25.1953 337.605 25.4492 337.168 25.7383L336.184 24.4023C336.809 23.918 337.57 23.5 338.469 23.1484C339.367 22.7969 340.387 22.6211 341.527 22.6211C343.277 22.6211 344.59 23.0195 345.465 23.8164C346.34 24.6133 346.777 25.6289 346.777 26.8633Z" fill="#898989"/>
</svg>
