<svg width="240" height="41" viewBox="0 0 240 41" fill="none" xmlns="http://www.w3.org/2000/svg">
<circle cx="17.5" cy="20.5" r="17.5" fill="#1ABC9C"/>
<path d="M10.0201 19.4072L12.7016 23.9018C13.3472 24.9838 14.8202 25.2066 15.7569 24.3639L24.9986 16.0492" stroke="white" stroke-width="2" stroke-linecap="round"/>
<circle cx="85.5" cy="20.5" r="17.5" fill="#1ABC9C"/>
<path d="M78.0201 19.4072L80.7016 23.9018C81.3472 24.9838 82.8202 25.2066 83.7569 24.3639L92.9986 16.0492" stroke="white" stroke-width="2" stroke-linecap="round"/>
<circle cx="152.5" cy="20.5" r="17.5" fill="#1ABC9C"/>
<path d="M145.02 19.4072L147.702 23.9018C148.347 24.9838 149.82 25.2066 150.757 24.3639L159.999 16.0492" stroke="white" stroke-width="2" stroke-linecap="round"/>
<path d="M239.5 20.5C239.5 31.5574 230.758 40.5 220 40.5C209.242 40.5 200.5 31.5574 200.5 20.5C200.5 9.44259 209.242 0.5 220 0.5C230.758 0.5 239.5 9.44259 239.5 20.5Z" stroke="#E5E5E5"/>
<circle cx="220.5" cy="20.5" r="17.5" fill="#E5E5E5"/>
<line x1="103" y1="20.5" x2="135" y2="20.5" stroke="#E5E5E5"/>
<line x1="35" y1="20.5" x2="68" y2="20.5" stroke="#E5E5E5"/>
<line x1="170" y1="20.5" x2="200" y2="20.5" stroke="#E5E5E5"/>
<path d="M222.852 17.2422C222.852 17.7526 222.753 18.1953 222.555 18.5703C222.357 18.9453 222.081 19.2526 221.727 19.4922C221.372 19.7266 220.956 19.8906 220.477 19.9844V20.0469C221.383 20.1615 222.062 20.4531 222.516 20.9219C222.974 21.3906 223.203 22.0052 223.203 22.7656C223.203 23.4271 223.047 24.013 222.734 24.5234C222.427 25.0339 221.953 25.4349 221.312 25.7266C220.677 26.013 219.862 26.1562 218.867 26.1562C218.263 26.1562 217.703 26.1068 217.188 26.0078C216.677 25.9141 216.188 25.7552 215.719 25.5312V24.3125C216.193 24.5469 216.708 24.7318 217.266 24.8672C217.823 24.9974 218.362 25.0625 218.883 25.0625C219.924 25.0625 220.677 24.8568 221.141 24.4453C221.604 24.0286 221.836 23.4609 221.836 22.7422C221.836 22.2474 221.706 21.849 221.445 21.5469C221.19 21.2396 220.82 21.0156 220.336 20.875C219.857 20.7292 219.279 20.6562 218.602 20.6562H217.461V19.5469H218.609C219.229 19.5469 219.755 19.4557 220.188 19.2734C220.62 19.0911 220.948 18.8359 221.172 18.5078C221.401 18.1745 221.516 17.7812 221.516 17.3281C221.516 16.75 221.323 16.3047 220.938 15.9922C220.552 15.6745 220.029 15.5156 219.367 15.5156C218.961 15.5156 218.591 15.5573 218.258 15.6406C217.924 15.724 217.612 15.8385 217.32 15.9844C217.029 16.1302 216.737 16.2995 216.445 16.4922L215.789 15.6016C216.206 15.2786 216.714 15 217.312 14.7656C217.911 14.5312 218.591 14.4141 219.352 14.4141C220.518 14.4141 221.393 14.6797 221.977 15.2109C222.56 15.7422 222.852 16.4193 222.852 17.2422Z" fill="#898989"/>
</svg>
