<svg width="238" height="41" viewBox="0 0 238 41" fill="none" xmlns="http://www.w3.org/2000/svg">
<circle cx="85.5" cy="20.5" r="17.5" fill="#E5E5E5"/>
<circle cx="17.5" cy="20.5" r="17.5" fill="#1ABC9C"/>
<path d="M10.022 19.4072L12.7036 23.9018C13.3491 24.9838 14.8222 25.2066 15.7588 24.3639L25.0005 16.0492" stroke="white" stroke-width="2" stroke-linecap="round"/>
<path d="M104.5 20.5C104.5 31.5574 95.758 40.5 85 40.5C74.242 40.5 65.5 31.5574 65.5 20.5C65.5 9.44259 74.242 0.5 85 0.5C95.758 0.5 104.5 9.44259 104.5 20.5Z" stroke="#E5E5E5"/>
<circle cx="152.5" cy="20.5" r="17.5" fill="#E5E5E5"/>
<circle cx="220.5" cy="20.5" r="17.5" fill="#E5E5E5"/>
<line x1="105" y1="20.5" x2="135" y2="20.5" stroke="#E5E5E5"/>
<line x1="35" y1="20.5" x2="65" y2="20.5" stroke="#E5E5E5"/>
<line x1="170" y1="20.5" x2="203" y2="20.5" stroke="#E5E5E5"/>
<path d="M85.6172 26H84.3516V17.9062C84.3516 17.599 84.3516 17.3359 84.3516 17.1172C84.3568 16.8932 84.362 16.6901 84.3672 16.5078C84.3776 16.3203 84.3906 16.1302 84.4062 15.9375C84.2448 16.1042 84.0938 16.2474 83.9531 16.3672C83.8125 16.4818 83.638 16.625 83.4297 16.7969L82.125 17.8438L81.4453 16.9609L84.5391 14.5781H85.6172V26Z" fill="#898989"/>
<path d="M156.273 26H148.789V24.9141L151.844 21.8125C152.411 21.2396 152.888 20.7292 153.273 20.2812C153.664 19.8333 153.961 19.3932 154.164 18.9609C154.367 18.5234 154.469 18.0443 154.469 17.5234C154.469 16.8776 154.276 16.3854 153.891 16.0469C153.51 15.7031 153.008 15.5312 152.383 15.5312C151.836 15.5312 151.352 15.625 150.93 15.8125C150.508 16 150.076 16.2656 149.633 16.6094L148.938 15.7344C149.24 15.4792 149.568 15.2526 149.922 15.0547C150.281 14.8568 150.664 14.7005 151.07 14.5859C151.482 14.4714 151.919 14.4141 152.383 14.4141C153.086 14.4141 153.693 14.5365 154.203 14.7812C154.714 15.026 155.107 15.375 155.383 15.8281C155.664 16.2812 155.805 16.8203 155.805 17.4453C155.805 18.0495 155.685 18.612 155.445 19.1328C155.206 19.6484 154.87 20.1615 154.438 20.6719C154.005 21.1771 153.5 21.7135 152.922 22.2812L150.438 24.7578V24.8125H156.273V26Z" fill="#898989"/>
<path d="M222.852 17.2422C222.852 17.7526 222.753 18.1953 222.555 18.5703C222.357 18.9453 222.081 19.2526 221.727 19.4922C221.372 19.7266 220.956 19.8906 220.477 19.9844V20.0469C221.383 20.1615 222.062 20.4531 222.516 20.9219C222.974 21.3906 223.203 22.0052 223.203 22.7656C223.203 23.4271 223.047 24.013 222.734 24.5234C222.427 25.0339 221.953 25.4349 221.312 25.7266C220.677 26.013 219.862 26.1562 218.867 26.1562C218.263 26.1562 217.703 26.1068 217.188 26.0078C216.677 25.9141 216.188 25.7552 215.719 25.5312V24.3125C216.193 24.5469 216.708 24.7318 217.266 24.8672C217.823 24.9974 218.362 25.0625 218.883 25.0625C219.924 25.0625 220.677 24.8568 221.141 24.4453C221.604 24.0286 221.836 23.4609 221.836 22.7422C221.836 22.2474 221.706 21.849 221.445 21.5469C221.19 21.2396 220.82 21.0156 220.336 20.875C219.857 20.7292 219.279 20.6562 218.602 20.6562H217.461V19.5469H218.609C219.229 19.5469 219.755 19.4557 220.188 19.2734C220.62 19.0911 220.948 18.8359 221.172 18.5078C221.401 18.1745 221.516 17.7812 221.516 17.3281C221.516 16.75 221.323 16.3047 220.938 15.9922C220.552 15.6745 220.029 15.5156 219.367 15.5156C218.961 15.5156 218.591 15.5573 218.258 15.6406C217.924 15.724 217.612 15.8385 217.32 15.9844C217.029 16.1302 216.737 16.2995 216.445 16.4922L215.789 15.6016C216.206 15.2786 216.714 15 217.312 14.7656C217.911 14.5312 218.591 14.4141 219.352 14.4141C220.518 14.4141 221.393 14.6797 221.977 15.2109C222.56 15.7422 222.852 16.4193 222.852 17.2422Z" fill="#898989"/>
</svg>
