<svg width="181" height="173" viewBox="0 0 181 173" fill="none" xmlns="http://www.w3.org/2000/svg">
<g id="Group 288">
<g id="Group 162">
<g id="&#240;&#159;&#166;&#134; icon &#34;shopping bags&#34;">
<g id="Group">
<path id="Vector" d="M5.4049 168.094H41.758V172.5H0.5V31.7725H103.292V73.1196H98.8856V36.6787V36.1787H98.3856H5.4049H4.9049V36.6787V167.594V168.094H5.4049Z" fill="#DFD686" stroke="#555438"/>
<path id="Vector_2" d="M85.3535 45.8867H89.7598V73.8466H85.3535V45.8867Z" fill="#DFD686" stroke="#555438"/>
<path id="Vector_3" d="M39.2734 46.834H63.549V51.2402H39.2734V46.834Z" fill="#DFD686" stroke="#555438"/>
<path id="Vector_4" d="M18.9404 153.03H41.7576V157.437H14.0342V45.8867H18.4404V152.53V153.03H18.9404Z" fill="#DFD686" stroke="#555438"/>
<path id="Vector_5" d="M78.1054 52.5813H73.6992V24.5674C73.6992 13.7324 65.0006 4.90625 54.2936 4.90625H49.4996C38.7913 4.90625 30.0898 13.7323 30.0898 24.5674V52.5813H25.6836V24.5674C25.6836 11.2919 36.3717 0.5 49.4982 0.5H54.2922C67.416 0.5 78.1041 11.2919 78.1041 24.5674L78.1054 52.5813Z" fill="#DFD686" stroke="#555438"/>
<path id="Vector_6" d="M54.3711 167.594V168.094H54.8711H166.505H167.005V167.594V86.5107V86.0107H166.505H54.8711H54.3711V86.5107V167.594ZM171.412 172.5H49.9648V81.6045H171.411L171.412 172.5Z" fill="#DFD686" stroke="#555438"/>
<path id="Vector_7" d="M112.181 131.968H109.193C96.066 131.968 85.3779 121.177 85.3779 107.902V96.3213H89.7842V107.902C89.7842 118.737 98.4828 127.563 109.193 127.563H112.181C122.888 127.563 131.587 118.738 131.587 107.902V96.3213H135.995V107.902C135.997 121.176 125.307 131.968 112.181 131.968Z" fill="#DFD686" stroke="#555438"/>
<path id="Vector_8" d="M55.0771 151.695H166.864V156.102H55.0771V151.695Z" fill="#DFD686" stroke="#555438"/>
</g>
</g>
</g>
<g id="&#240;&#159;&#166;&#134; icon &#34;stars&#34;">
<path id="Vector_9" d="M145.054 136.161C145.604 135.896 146.107 135.526 146.559 135.053C146.956 134.639 147.274 134.189 147.51 133.706C147.742 134.189 148.056 134.638 148.453 135.053C148.906 135.526 149.408 135.896 149.959 136.161C149.408 136.427 148.906 136.797 148.453 137.269C148.058 137.682 147.746 138.129 147.514 138.608C147.279 138.128 146.961 137.68 146.557 137.267C146.105 136.796 145.603 136.427 145.054 136.161ZM150.241 122.207C151.682 121.719 152.97 120.883 154.099 119.703C155.121 118.634 155.855 117.448 156.296 116.145C156.737 117.448 157.471 118.634 158.493 119.703C159.63 120.892 160.928 121.722 162.383 122.207C161.694 122.441 161.03 122.757 160.392 123.159C158.982 124.038 157.858 125.224 157.024 126.688L157.024 126.688L157.022 126.693C156.729 127.219 156.489 127.759 156.301 128.314C155.861 127.001 155.126 125.804 154.1 124.73C152.97 123.537 151.682 122.696 150.241 122.207ZM160.56 147.263C160.217 146.392 159.697 145.593 159.003 144.867L159 144.864C158.216 144.057 157.342 143.466 156.374 143.086C157.349 142.703 158.228 142.104 159.002 141.294C159.697 140.568 160.217 139.769 160.56 138.898C160.903 139.769 161.423 140.568 162.117 141.294C162.888 142.1 163.756 142.698 164.721 143.081C163.756 143.464 162.888 144.061 162.117 144.867C161.423 145.593 160.903 146.392 160.56 147.263ZM172.185 135.663L172.185 135.663L172.18 135.658C171.41 134.865 170.544 134.273 169.581 133.893C170.545 133.51 171.412 132.912 172.182 132.107C172.877 131.381 173.39 130.583 173.728 129.712C174.072 130.575 174.589 131.367 175.278 132.088C176.049 132.894 176.923 133.492 177.893 133.874C176.923 134.257 176.049 134.854 175.278 135.661C174.584 136.386 174.065 137.184 173.721 138.054C173.381 137.185 172.867 136.388 172.185 135.663Z" fill="#A49100" stroke="#555438"/>
</g>
<g id="&#240;&#159;&#166;&#134; icon &#34;stars&#34;_2">
<path id="Vector_10" d="M55.6015 88.7092C56.8102 88.2726 57.8928 87.5563 58.844 86.5628C59.7028 85.6659 60.3358 84.6715 60.7352 83.5832C61.1252 84.67 61.7478 85.6647 62.6077 86.5628C63.5589 87.5563 64.6415 88.2726 65.8502 88.7092C64.6415 89.1459 63.5589 89.8622 62.6077 90.8557C61.7519 91.7495 61.1311 92.7389 60.7408 93.8196C60.3465 92.7383 59.717 91.7481 58.8422 90.8537C57.8914 89.8613 56.8094 89.1456 55.6015 88.7092ZM64.1593 64.7843C67.0412 64.0486 69.5812 62.5336 71.7705 60.2449C73.7825 58.1414 75.1254 55.772 75.7954 53.1342C76.4655 55.772 77.8084 58.1414 79.8204 60.2449C82.0239 62.5485 84.581 64.0487 87.494 64.7826C85.9225 65.1852 84.4283 65.826 83.0068 66.7195C80.6412 68.1939 78.7565 70.1829 77.3547 72.6446L77.3547 72.6446L77.3521 72.6492C76.6617 73.892 76.145 75.1792 75.8021 76.5183C75.1346 73.861 73.7901 71.4682 71.7715 69.3575C69.582 67.0438 67.0414 65.522 64.1593 64.7843ZM74.8292 100.581C76.8439 99.9886 78.6327 98.8776 80.1775 97.2625C81.589 95.7869 82.5659 94.1344 83.1059 92.303C83.6459 94.1344 84.6229 95.7869 86.0343 97.2625C87.5714 98.8694 89.3352 99.9779 91.3292 100.572C89.3352 101.166 87.5714 102.275 86.0343 103.882C84.6229 105.357 83.6459 107.01 83.1059 108.841C82.5659 107.01 81.589 105.357 80.1775 103.882L80.1749 103.879C78.6091 102.267 76.8316 101.173 74.8292 100.581ZM102.776 88.1006L102.776 88.1005L102.771 88.0952C101.235 86.5128 99.473 85.4126 97.4807 84.8208C99.4738 84.2264 101.237 83.1181 102.774 81.5118C104.185 80.0364 105.148 78.3854 105.678 76.5501C106.22 78.369 107.194 80.0113 108.597 81.4785C110.135 83.086 111.914 84.1941 113.917 84.7882C111.914 85.3822 110.135 86.4903 108.597 88.0978C107.187 89.5725 106.21 91.2241 105.67 93.0542C105.133 91.225 104.165 89.5745 102.776 88.1006Z" fill="#A49100" stroke="#555438"/>
</g>
</g>
</svg>
