<svg width="24" height="18" viewBox="0 0 24 18" fill="none" xmlns="http://www.w3.org/2000/svg">
<g id="Group 117">
<path id="Vector" d="M22.5406 3.88973C22.4218 3.41514 22.1799 2.9803 21.8392 2.62913C21.4986 2.27797 21.0713 2.02291 20.6006 1.88973C18.8806 1.46973 12.0006 1.46973 12.0006 1.46973C12.0006 1.46973 5.12057 1.46973 3.40057 1.92973C2.92982 2.06291 2.50255 2.31797 2.16192 2.66913C1.82129 3.0203 1.57936 3.45514 1.46057 3.92973C1.14579 5.67528 0.991808 7.44604 1.00057 9.21973C0.989351 11.0068 1.14334 12.791 1.46057 14.5497C1.59153 15.0096 1.83888 15.4279 2.17872 15.7642C2.51855 16.1005 2.93939 16.3435 3.40057 16.4697C5.12057 16.9297 12.0006 16.9297 12.0006 16.9297C12.0006 16.9297 18.8806 16.9297 20.6006 16.4697C21.0713 16.3365 21.4986 16.0815 21.8392 15.7303C22.1799 15.3792 22.4218 14.9443 22.5406 14.4697C22.8529 12.7373 23.0069 10.9801 23.0006 9.21973C23.0118 7.43268 22.8578 5.64842 22.5406 3.88973Z" stroke="black" stroke-width="2" stroke-linecap="round" stroke-linejoin="round"/>
<path id="Vector_2" d="M9.75098 12.4892L15.501 9.21922L9.75098 5.94922V12.4892Z" stroke="black" stroke-width="2" stroke-linecap="round" stroke-linejoin="round"/>
</g>
</svg>
