<svg width="22" height="23" viewBox="0 0 22 23" fill="none" xmlns="http://www.w3.org/2000/svg">
<g id="Group 116">
<path id="Vector" d="M16 1.46973H6C3.23858 1.46973 1 3.7083 1 6.46973V16.4697C1 19.2311 3.23858 21.4697 6 21.4697H16C18.7614 21.4697 21 19.2311 21 16.4697V6.46973C21 3.7083 18.7614 1.46973 16 1.46973Z" stroke="black" stroke-width="2" stroke-linecap="round" stroke-linejoin="round"/>
<path id="Vector_2" d="M14.9997 10.84C15.1231 11.6723 14.981 12.5222 14.5935 13.269C14.206 14.0158 13.5929 14.6214 12.8413 14.9997C12.0898 15.378 11.2382 15.5096 10.4075 15.376C9.57683 15.2423 8.80947 14.8501 8.21455 14.2552C7.61962 13.6603 7.22744 12.8929 7.09377 12.0622C6.96011 11.2316 7.09177 10.3799 7.47003 9.6284C7.84829 8.87688 8.45389 8.26377 9.20069 7.87627C9.94749 7.48877 10.7975 7.34662 11.6297 7.47003C12.4786 7.59591 13.2646 7.99149 13.8714 8.59833C14.4782 9.20518 14.8738 9.99111 14.9997 10.84Z" stroke="black" stroke-width="2" stroke-linecap="round" stroke-linejoin="round"/>
<path id="Vector_3" d="M16.5 5.96973H16.51" stroke="black" stroke-width="2" stroke-linecap="round" stroke-linejoin="round"/>
</g>
</svg>
