<svg width="61" height="61" viewBox="0 0 61 61" fill="none" xmlns="http://www.w3.org/2000/svg">
<g id="&#240;&#159;&#166;&#134; icon &#34;menu book&#34;">
<path id="Vector" d="M53.2625 12.6812C50.4472 11.7935 47.3529 11.4131 44.3854 11.4131C42.0454 11.4131 39.6203 11.6402 37.3248 12.175C32.9566 13.1927 27.9147 13.1927 23.5465 12.175C21.2511 11.6402 18.8259 11.4131 16.4859 11.4131C13.2692 11.4131 9.89163 11.8422 6.91132 12.9098C3.96633 13.9648 2.53613 17.055 2.53613 20.1833V52.3747C2.53613 53.0087 3.17021 53.6428 3.80429 53.6428C4.23208 53.6428 4.63686 53.4171 5.02794 53.2437C8.41282 51.743 13.0144 50.7261 16.4859 50.7261C19.0463 50.7261 21.7088 50.998 24.1916 51.6474C28.2205 52.7011 32.7998 53.0117 36.8111 51.8931C39.4117 51.1678 42.1534 50.7261 44.3854 50.7261C48.5704 50.7261 52.8821 51.4869 56.4329 53.3892C56.6866 53.516 56.8134 53.516 57.067 53.516C57.7011 53.516 58.3352 52.8819 58.3352 52.2478V20.2176C58.3352 17.07 56.8809 13.9806 53.9211 12.9098C53.7049 12.8316 53.4855 12.7556 53.2625 12.6812ZM16.4859 45.6534C12.0307 45.6534 7.60877 42.3744 7.60877 37.9192V25.0661C7.60877 20.7113 10.4465 16.7339 14.7963 16.5257C15.3584 16.4988 15.9222 16.4857 16.4859 16.4857C18.0171 16.4857 19.78 16.6968 21.5727 17.0633C25.5076 17.8677 27.8993 21.606 27.8993 25.6224V36.4107C27.8993 41.9868 22.0619 45.6534 16.4859 45.6534ZM53.2625 37.9192C53.2625 42.3744 48.8406 45.6534 44.3854 45.6534C38.8094 45.6534 32.972 41.9868 32.972 36.4107V25.578C32.972 21.5841 35.3386 17.8627 39.2519 17.0643C41.0607 16.6952 42.8409 16.4857 44.3854 16.4857C44.9492 16.4857 45.5129 16.4988 46.075 16.5257C50.4248 16.7339 53.2625 20.7113 53.2625 25.0661V37.9192Z" fill="#1D1D1B"/>
<path id="Vector_2" opacity="0.3" d="M27.8999 25.623C27.8999 21.6066 25.5082 17.8683 21.5733 17.0639C19.7806 16.6974 18.0177 16.4863 16.4865 16.4863C15.9228 16.4863 15.359 16.4994 14.7969 16.5263C10.4471 16.7345 7.60938 20.7119 7.60938 25.0667V37.9198C7.60938 42.375 12.0313 45.654 16.4865 45.654C22.0625 45.654 27.8999 41.9874 27.8999 36.4113V25.623Z" fill="#1D1D1B"/>
<path id="Vector_3" d="M44.3859 26.6316C45.7795 26.6316 47.1434 26.7206 48.4468 26.8924C49.6254 27.0478 50.7267 26.1646 50.7267 24.9758C50.7267 24.0824 50.0922 23.3099 49.208 23.1818C47.6509 22.9561 46.0256 22.8271 44.3859 22.8271C41.6723 22.8271 39.1359 23.1107 36.8359 23.6629C36.043 23.8533 35.5088 24.5782 35.5088 25.3937C35.5088 26.6663 36.7731 27.5646 38.0153 27.2882C39.9452 26.8587 42.0879 26.6316 44.3859 26.6316Z" fill="#1D1D1B"/>
<path id="Vector_4" d="M44.3859 33.3777C45.7795 33.3777 47.1434 33.4667 48.4468 33.6385C49.6254 33.7939 50.7267 32.9107 50.7267 31.7219C50.7267 30.8285 50.0922 30.056 49.208 29.9279C47.6509 29.7022 46.0256 29.5732 44.3859 29.5732C41.6756 29.5732 39.142 29.8561 36.8443 30.407C36.0463 30.5983 35.5088 31.3278 35.5088 32.1483C35.5088 33.4218 36.767 34.3231 38.0101 34.0466C39.9414 33.6171 42.0858 33.3777 44.3859 33.3777Z" fill="#1D1D1B"/>
<path id="Vector_5" d="M44.3859 40.1502C45.7795 40.1502 47.1434 40.2392 48.4468 40.411C49.6254 40.5663 50.7267 39.6832 50.7267 38.4944C50.7267 37.601 50.0922 36.8285 49.208 36.7003C47.6509 36.4747 46.0256 36.3457 44.3859 36.3457C41.6723 36.3457 39.1359 36.6292 36.8359 37.1815C36.043 37.3719 35.5088 38.0967 35.5088 38.9122C35.5088 40.1848 36.7731 41.0831 38.0153 40.8067C39.9452 40.3772 42.0879 40.1502 44.3859 40.1502Z" fill="#1D1D1B"/>
</g>
</svg>
