<svg width="178" height="178" viewBox="0 0 178 178" fill="none" xmlns="http://www.w3.org/2000/svg">
<g id="&#240;&#159;&#166;&#134; emoji &#34;package&#34;">
<path id="Vector" d="M88.2997 106.842V176.716L0.5 124.036V54.1624L88.2997 106.842Z" fill="#BDBA66" stroke="#555438"/>
<path id="Vector_2" d="M177.099 54.1624V124.036L89.2998 176.716V106.842L177.099 54.1624Z" fill="#F2ECBE" stroke="#555438"/>
<path id="Vector_3" d="M176.628 53.2798L88.7997 105.977L0.971823 53.2798L88.7997 0.583095L176.628 53.2798Z" fill="#DFD686" stroke="#555438"/>
<path id="Vector_4" d="M37.047 31.6355L52.7247 22.2288L140.283 74.9282L124.873 84.3309L37.047 31.6355Z" fill="#BDBA66" stroke="#555438"/>
<path id="Vector_5" d="M73.945 16.6485L89.3528 7.24712L108.093 18.8608L92.6875 27.9996L73.945 16.6485Z" fill="#D0D0D0" stroke="#555438"/>
<path id="Vector_6" d="M125.93 109.279V84.9185L140.47 76.0907V100.451L125.93 109.279Z" fill="#DFD686" stroke="#555438"/>
<path id="Vector_7" d="M158.12 95.4116V71.0461L172.937 62.2076V86.5731L158.12 95.4116ZM94.5723 167.551V133.761L114.94 121.593V155.119L94.5723 167.551Z" fill="white" stroke="#555438"/>
<path id="Vector_8" d="M140.47 145.96L125.93 154.788V130.428L140.47 121.6V145.96Z" fill="#DFD686" stroke="#555438"/>
</g>
</svg>
