<svg width="237" height="178" viewBox="0 0 237 178" fill="none" xmlns="http://www.w3.org/2000/svg">
<g id="&#240;&#159;&#166;&#134; icon &#34;running shoes&#34;">
<path id="Vector" d="M122.435 122.075C80.683 87.311 32.7546 53.6197 21.0325 45.4707C20.2787 45.9043 19.4982 46.2964 18.6753 46.6092L13.4093 48.6167C7.41719 51.305 3.25918 56.9235 2.43994 63.4396C1.58656 70.226 4.88382 76.862 10.8067 80.282L152.578 162.133C192.319 185.078 217.454 172.538 226.828 165.651C228.51 164.416 229.939 162.892 231.076 161.185C210.975 165.246 168.325 160.286 122.435 122.075Z" fill="#F1F1DA"/>
<path id="Vector_2" d="M21.0325 45.4707C20.2787 45.9043 19.4982 46.2964 18.6753 46.6092L13.4093 48.6167C7.41719 51.305 3.25918 56.9235 2.43994 63.4396C1.58656 70.226 4.88382 76.862 10.8067 80.282L39.339 96.7554L84.3871 91.7781C55.2164 69.4178 29.2433 51.1786 21.0325 45.4707Z" fill="#E8C56D"/>
<path id="Vector_3" d="M147.526 38.2383C143.903 30.9694 133.972 29.9988 128.926 36.3636C124.598 41.8225 121.503 48.3294 119.678 52.7983C122.601 52.0473 125.188 51.1644 127.274 50.3544C130.661 49.0388 134.501 50.1911 136.62 53.1415L170.884 100.834C173.39 104.321 177.548 106.23 181.826 105.856C183.359 105.722 184.877 105.896 186.316 106.318C171.683 85.4268 155.741 54.7154 147.526 38.2383Z" fill="#F1F1DA"/>
<path id="Vector_4" d="M232.726 146.201C231.829 143.957 230.191 142.076 228.132 140.809C213.21 131.626 198.547 116.891 191.751 109.643C189.199 106.921 185.544 105.53 181.827 105.855C177.549 106.228 173.391 104.319 170.885 100.832L136.621 53.1399C134.501 50.1895 130.662 49.0363 127.275 50.3528C118.755 53.663 101.937 58.1928 87.5697 49.898C72.7256 41.3292 71.3464 22.03 71.6601 12.3892C71.7772 8.78468 69.909 5.41361 66.7861 3.61092C63.6466 1.79807 59.77 1.89401 56.6905 3.8065C40.4127 13.916 31.6271 29.5305 27.8095 38.0255C26.3896 41.1844 23.9983 43.7648 21.0332 45.4706C32.7554 53.6197 80.6837 87.3109 122.436 122.075C168.327 160.285 210.977 165.245 231.077 161.185C232.711 158.734 233.723 155.896 233.856 152.902C233.976 150.222 233.427 147.956 232.726 146.201Z" fill="#EFB544"/>
<path id="Vector_5" d="M232.725 146.201C231.828 143.957 230.19 142.076 228.132 140.809C213.209 131.627 198.547 116.891 191.75 109.643C189.198 106.921 185.543 105.53 181.826 105.855C179.664 106.044 177.533 105.645 175.63 104.759C171.496 112.008 159.165 127.643 129.681 127.84C172.769 160.764 212.038 165.03 231.076 161.185C232.71 158.735 233.722 155.896 233.855 152.902C233.975 150.222 233.426 147.956 232.725 146.201Z" fill="#9E8440"/>
<path id="Vector_6" d="M232.725 146.201C231.828 143.956 230.19 142.075 228.132 140.808C227.608 140.486 227.084 140.155 226.561 139.82C223.496 143.531 217.437 147.944 206.517 146.128C190.108 143.399 171.549 139.949 162.568 148.222C192.012 162.431 217.042 164.019 231.076 161.184C232.709 158.734 233.721 155.895 233.854 152.901C233.975 150.221 233.426 147.956 232.725 146.201Z" fill="#DBCD52"/>
<path id="Vector_7" d="M71.66 12.3892C71.7772 8.78468 69.909 5.41362 66.7861 3.61092C63.6466 1.79807 59.77 1.89401 56.6905 3.8065C54.9542 4.88498 53.3212 6.03635 51.752 7.22462C52.8913 16.7483 58.245 33.254 80.4715 43.9696C72.2643 34.3223 71.4063 20.1932 71.66 12.3892Z" fill="#F1F1DA"/>
<path id="Vector_8" d="M105.855 54.5991C101.832 54.5715 97.6575 54.0032 93.5576 52.6055C108.788 81.6166 94.7265 89.6798 84.5303 91.8866C94.6841 99.6712 105.221 107.954 115.53 116.38C133.395 99.6066 113.18 65.5906 105.855 54.5991Z" fill="#E8C56D"/>
<path id="Vector_9" d="M232.356 159.266C231.294 158.56 229.863 158.845 229.157 159.906C228.141 161.428 226.899 162.737 225.462 163.792C199.489 182.874 166.644 167.592 153.731 160.136L11.9613 78.2857C6.82909 75.3224 3.98943 69.608 4.72933 63.7276C5.44063 58.0704 9.10322 53.1024 14.2954 50.748L19.4969 48.7654C20.365 48.4351 21.2451 48.0107 22.1843 47.4701C23.2877 46.8344 23.6669 45.4238 23.0312 44.3204C22.3965 43.2152 20.9841 42.8388 19.8816 43.4726C19.1565 43.8905 18.4931 44.2116 17.8547 44.4551L12.5887 46.4626C12.5472 46.4783 12.5066 46.4949 12.466 46.5134C5.78382 49.5117 1.06673 55.8876 0.152467 63.1528C-0.818998 70.8793 2.91095 78.3872 9.65492 82.2804L151.425 164.132C168.927 174.236 183.734 177.601 195.698 177.6C211.843 177.6 222.805 171.47 228.195 167.51C230.067 166.134 231.682 164.437 232.996 162.465C233.702 161.404 233.416 159.973 232.356 159.266Z" fill="#555438"/>
<path id="Vector_10" d="M158.441 49.1162C157.86 47.9824 156.472 47.5322 155.337 48.1134L136.526 57.7376C135.392 58.3179 134.943 59.7073 135.523 60.8412C135.931 61.6392 136.739 62.0977 137.579 62.0977C137.932 62.0977 138.291 62.0165 138.628 61.844L157.439 52.2198C158.573 51.6404 159.021 50.2501 158.441 49.1162Z" fill="#555438"/>
<path id="Vector_11" d="M181.581 89.9332C181.001 88.7994 179.612 88.3501 178.478 88.9304L164.639 96.0102C163.505 96.5905 163.056 97.9799 163.636 99.1137C164.044 99.9117 164.852 100.37 165.692 100.37C166.045 100.37 166.404 100.289 166.741 100.117L180.579 93.0367C181.713 92.4574 182.162 91.0671 181.581 89.9332Z" fill="#555438"/>
<path id="Vector_12" d="M175.594 79.833C175.013 78.6992 173.623 78.249 172.49 78.8302L157.611 86.4423C156.477 87.0226 156.028 88.412 156.608 89.5458C157.016 90.3439 157.824 90.8024 158.664 90.8024C159.017 90.8024 159.376 90.7212 159.713 90.5487L174.592 82.9366C175.726 82.3572 176.174 80.9669 175.594 79.833Z" fill="#555438"/>
<path id="Vector_13" d="M169.748 69.6598C169.168 68.5259 167.779 68.0767 166.645 68.6569L150.584 76.8743C149.45 77.4546 149 78.8439 149.581 79.9778C149.989 80.7758 150.797 81.2343 151.636 81.2343C151.99 81.2343 152.348 81.1531 152.685 80.9806L168.746 72.7633C169.88 72.183 170.328 70.7936 169.748 69.6598Z" fill="#555438"/>
<path id="Vector_14" d="M164.116 59.3776C163.535 58.2437 162.146 57.7944 161.012 58.3747L143.555 67.3061C142.421 67.8864 141.972 69.2758 142.552 70.4096C142.96 71.2076 143.768 71.6662 144.608 71.6662C144.961 71.6662 145.32 71.585 145.657 71.4125L163.114 62.4811C164.247 61.9008 164.696 60.5114 164.116 59.3776Z" fill="#555438"/>
<path id="Vector_15" d="M167.871 114.248L121.15 51.2291C120.393 50.2059 118.949 49.991 117.924 50.7493C116.902 51.5077 116.686 52.9524 117.444 53.9756L164.165 116.994C164.617 117.605 165.314 117.927 166.019 117.927C166.497 117.927 166.978 117.779 167.391 117.473C168.414 116.716 168.629 115.271 167.871 114.248Z" fill="#555438"/>
<path id="Vector_16" d="M82.8481 141.401C78.6965 140.663 75.4675 137.434 74.6372 133.375C74.6372 133.19 74.2682 133.19 74.2682 133.375C73.4379 137.434 70.2089 140.663 66.0573 141.401C65.8728 141.401 65.8728 141.678 66.0573 141.77C70.2089 142.508 73.4379 145.737 74.2682 149.796C74.2682 149.981 74.6372 149.981 74.6372 149.796C75.4675 145.737 78.6965 142.508 82.8481 141.77C83.0326 141.678 83.0326 141.401 82.8481 141.401Z" fill="#C6D147"/>
<path id="Vector_17" d="M121.315 24.8128C118.454 24.3045 116.23 22.0792 115.657 19.282C115.657 19.1547 115.402 19.1547 115.402 19.282C114.83 22.0792 112.605 24.3035 109.744 24.8128C109.617 24.8128 109.617 25.0038 109.744 25.0674C112.605 25.5758 114.829 27.801 115.402 30.5982C115.402 30.7256 115.657 30.7256 115.657 30.5982C116.229 27.801 118.454 25.5767 121.315 25.0674C121.442 25.0038 121.442 24.8128 121.315 24.8128Z" fill="#F5C84C"/>
<path id="Vector_18" d="M184.699 43.5165H182.577V41.3946C182.577 39.8262 181.286 38.4424 179.625 38.4424C177.964 38.4424 176.673 39.734 176.673 41.3946V43.5165H174.551C172.982 43.5165 171.599 44.8081 171.599 46.4687C171.599 48.1293 172.89 49.4209 174.551 49.4209H176.673V51.5429C176.673 53.1112 177.964 54.4951 179.625 54.4951C181.286 54.4951 182.577 53.2035 182.577 51.5429V49.4209H184.699C186.267 49.4209 187.651 48.1293 187.651 46.4687C187.651 44.8081 186.36 43.5165 184.699 43.5165Z" fill="#E8D592"/>
<path id="Vector_19" d="M55.1709 121.566C53.4383 121.566 52.0342 122.971 52.0342 124.703C52.0342 126.436 53.4383 127.84 55.1709 127.84C56.9035 127.84 58.3076 126.436 58.3076 124.703C58.3076 122.971 56.9035 121.566 55.1709 121.566Z" fill="#E8D592"/>
<path id="Vector_20" d="M186.176 67.1348C184.443 67.1348 183.039 68.5389 183.039 70.2715C183.039 72.0041 184.443 73.4082 186.176 73.4082C187.908 73.4082 189.313 72.0041 189.313 70.2715C189.313 68.5389 187.908 67.1348 186.176 67.1348Z" fill="#E8C56D"/>
<path id="Vector_21" d="M86.2067 91.578C86.0674 90.3113 84.9188 89.4017 83.6604 89.5391L39.6954 94.3964C38.4297 94.5358 37.5163 95.6761 37.6556 96.9418C37.7866 98.1218 38.7858 98.9955 39.9455 98.9955C40.0303 98.9955 40.1161 98.9908 40.201 98.9816L84.166 94.1243C85.4336 93.9841 86.347 92.8438 86.2067 91.578Z" fill="#555438"/>
<path id="Vector_22" d="M187.75 104.34C173.311 83.5639 157.644 53.3636 149.591 37.2094C147.546 33.1077 143.606 30.375 139.049 29.8999C134.456 29.4202 129.996 31.3022 127.119 34.9316C122.871 40.2899 119.791 46.5938 117.953 50.9391C117.457 52.1117 118.006 53.4651 119.179 53.9614C120.352 54.4568 121.705 53.9079 122.201 52.7344C123.926 48.653 126.807 42.7485 130.732 37.7971C132.625 35.4104 135.564 34.1732 138.569 34.4878C141.592 34.8034 144.104 36.5452 145.462 39.2677C153.57 55.5335 169.355 85.9579 183.961 106.973C184.408 107.618 185.127 107.963 185.857 107.963C186.311 107.963 186.77 107.829 187.171 107.551C188.218 106.824 188.477 105.386 187.75 104.34Z" fill="#555438"/>
<path id="Vector_23" d="M234.868 145.346C233.809 142.695 231.846 140.386 229.342 138.845C214.842 129.923 200.62 115.732 193.434 108.066C190.383 104.813 186.088 103.174 181.626 103.557C178.185 103.86 174.778 102.3 172.758 99.487L138.494 51.7949C135.757 47.9865 130.8 46.5095 126.439 48.2033C118.136 51.4295 102.196 55.6798 88.722 47.9007C82.8904 44.5333 73.2173 35.4525 73.9655 12.463C74.1103 7.99964 71.8011 3.84162 67.9393 1.61269C64.0737 -0.618076 59.2976 -0.529508 55.4726 1.84703C38.656 12.2923 29.6047 28.405 25.705 37.0799C24.4983 39.7637 22.4853 41.9741 19.8818 43.4715C19.1972 43.8654 18.7618 44.5832 18.7276 45.3729C18.6944 46.1617 19.0671 46.9136 19.7157 47.3647C33.0579 56.6402 79.7906 89.5704 120.958 123.848C157.536 154.305 193.297 164.711 217.8 164.711C222.894 164.711 227.506 164.261 231.533 163.447C232.131 163.326 232.657 162.973 232.995 162.465C234.919 159.58 236.013 156.309 236.159 153.005C236.278 150.362 235.843 147.785 234.868 145.346ZM229.658 159.102C221.384 160.506 177.789 165.164 123.911 120.303C85.0262 87.9254 41.2152 56.7629 25.0454 45.4559C27.1276 43.6818 28.7836 41.4833 29.9129 38.9703C33.5967 30.7751 42.1313 15.5628 57.9073 5.76517C60.2838 4.28814 63.2443 4.22817 65.6329 5.60741C68.0186 6.98481 69.4449 9.55416 69.3545 12.3136C68.5288 37.7063 79.6891 48.0123 86.4155 51.8954C101.557 60.6368 119.037 56.0276 128.109 52.5025C130.512 51.5716 133.24 52.3872 134.747 54.4851L169.011 102.177C171.976 106.305 176.959 108.595 182.027 108.152C185.06 107.888 187.992 109.004 190.068 111.219C197.413 119.053 211.966 133.569 226.923 142.772C228.59 143.797 229.89 145.318 230.584 147.057C231.314 148.883 231.64 150.815 231.552 152.799C231.455 154.965 230.804 157.126 229.658 159.102Z" fill="#555438"/>
<path id="Vector_24" d="M176.449 103.403C175.354 102.751 173.938 103.107 173.285 104.201C168.603 112.042 156.755 125.239 130.012 125.531C128.738 125.545 127.718 126.588 127.731 127.863C127.745 129.128 128.775 130.144 130.036 130.144H130.062C142.885 130.004 153.929 127.004 162.885 121.227C170.419 116.369 174.853 110.573 177.245 106.566C177.899 105.473 177.541 104.057 176.449 103.403Z" fill="#555438"/>
<path id="Vector_25" d="M227.8 138.396C226.836 137.563 225.381 137.669 224.547 138.632C221.734 141.885 216.388 145.431 206.896 143.853L205.192 143.568C189.234 140.903 171.145 137.88 161.513 146.078C160.543 146.904 160.425 148.359 161.252 149.329C161.708 149.865 162.356 150.14 163.009 150.14C163.537 150.14 164.069 149.959 164.502 149.59C172.501 142.782 189.466 145.617 204.431 148.118L206.139 148.403C217.743 150.333 224.452 145.795 228.036 141.649C228.869 140.685 228.764 139.229 227.8 138.396Z" fill="#555438"/>
<path id="Vector_26" d="M81.0248 41.6742C61.4811 32.0804 55.6329 18.0196 54.1688 7.91282C53.9861 6.65167 52.8145 5.778 51.5552 5.96067C50.2949 6.14333 49.4213 7.31315 49.603 8.5743C50.9324 17.7474 56.5177 34.7826 78.9924 45.8156C79.3189 45.9761 79.6649 46.0518 80.0072 46.0518C80.8596 46.0518 81.6789 45.5776 82.0793 44.7611C82.6402 43.6181 82.1678 42.236 81.0248 41.6742Z" fill="#555438"/>
<path id="Vector_27" d="M108.276 54.0782C107.577 53.0135 106.148 52.7164 105.082 53.4158C104.017 54.1151 103.72 55.545 104.42 56.6097C110.661 66.1131 129.84 98.3393 114.644 114.017C113.758 114.931 113.78 116.391 114.695 117.278C115.144 117.712 115.722 117.928 116.3 117.928C116.902 117.928 117.504 117.694 117.957 117.227C135.06 99.5829 116.884 67.1879 108.276 54.0782Z" fill="#555438"/>
<path id="Vector_28" d="M95.9883 52.2792C95.4053 51.1472 94.0159 50.7007 92.8821 51.2828C91.7492 51.865 91.3035 53.2562 91.8857 54.3891C97.8206 65.9267 99.4258 74.8692 96.6572 80.9664C94.7752 85.1143 90.8312 87.9604 84.9351 89.4255C83.6988 89.7327 82.946 90.9837 83.2532 92.2199C83.5134 93.2689 84.4553 93.97 85.4895 93.97C85.6731 93.97 85.8604 93.9479 86.0468 93.9018C93.2769 92.1055 98.3981 88.2916 100.859 82.8725C104.237 75.4273 102.599 65.1343 95.9883 52.2792Z" fill="#555438"/>
</g>
</svg>
