<svg width="59" height="60" viewBox="0 0 59 60" fill="none" xmlns="http://www.w3.org/2000/svg">
<path d="M29.7257 7.5C16.5511 7.5 5.87207 18.4125 5.87207 31.875C5.87207 45.3375 16.5511 56.25 29.7257 56.25C42.9002 56.25 53.5793 45.3375 53.5793 31.875C53.5793 18.4125 42.9002 7.5 29.7257 7.5ZM20.284 20.8992L32.3255 29.2195C33.1204 29.8045 33.6579 30.6858 33.8218 31.6726C33.9858 32.6595 33.7629 33.6726 33.2015 34.4928C32.6401 35.3131 31.7852 35.8745 30.8219 36.0557C29.8585 36.2369 28.864 36.0232 28.0536 35.4609C27.6976 35.2044 27.3873 34.8873 27.1362 34.5234L18.9938 22.2188C18.8685 22.0353 18.8104 21.8126 18.8296 21.5897C18.8489 21.3668 18.9443 21.1579 19.0991 20.9997C19.2539 20.8415 19.4583 20.744 19.6764 20.7244C19.8946 20.7047 20.1125 20.7641 20.292 20.8922L20.284 20.8992ZM29.7257 52.5C18.6016 52.5 9.54186 43.248 9.54186 31.875C9.5324 29.101 10.0752 26.3541 11.1372 23.8012C12.1993 21.2483 13.7584 18.9429 15.7197 17.025C15.8722 16.8696 16.0535 16.7468 16.253 16.6637C16.4524 16.5807 16.6661 16.539 16.8814 16.5412C17.0968 16.5434 17.3096 16.5893 17.5074 16.6764C17.7052 16.7635 17.8841 16.8899 18.0336 17.0484C18.1831 17.2068 18.3002 17.3941 18.3781 17.5993C18.4561 17.8044 18.4933 18.0234 18.4876 18.2434C18.4818 18.4634 18.4333 18.6801 18.3448 18.8807C18.2563 19.0814 18.1296 19.262 17.972 19.4121C16.3262 21.0218 15.0179 22.9567 14.1266 25.0992C13.2353 27.2417 12.7796 29.547 12.7873 31.875C12.7873 41.4188 20.3861 49.1836 29.7257 49.1836C39.0653 49.1836 46.664 41.4188 46.664 31.875C46.664 22.8902 39.93 15.4828 31.3484 14.6484V21.0938C31.3484 21.5335 31.1774 21.9553 30.8731 22.2663C30.5688 22.5772 30.1561 22.752 29.7257 22.752C29.2953 22.752 28.8826 22.5772 28.5782 22.2663C28.2739 21.9553 28.1029 21.5335 28.1029 21.0938V12.9082C28.1029 12.4684 28.2739 12.0466 28.5782 11.7357C28.8826 11.4247 29.2953 11.25 29.7257 11.25C40.8555 11.25 49.9095 20.5078 49.9095 31.875C49.9095 43.2422 40.8555 52.5 29.7257 52.5Z" fill="#F2ECBE"/>
</svg>
