<svg width="142" height="143" viewBox="0 0 142 143" fill="none" xmlns="http://www.w3.org/2000/svg">
<path d="M141.64 31.087L140.417 47.0346C138.834 67.5987 131.533 87.369 119.284 104.259C107.034 121.15 90.2909 134.534 70.8202 143C51.3495 134.534 34.6061 121.15 22.3566 104.259C10.1072 87.369 2.80594 67.5987 1.22326 47.0346L0 31.087L70.8202 0L141.64 31.087Z" fill="#DFD686"/>
<path d="M141.64 31.087L140.417 47.0346C139.04 65.3105 133.14 83.0003 123.214 98.6175C113.288 114.235 99.6255 127.323 83.3743 136.783C63.9597 128.279 47.2785 114.877 35.0872 97.9889C22.8959 81.1004 15.6454 61.35 14.0992 40.8172L12.876 25.4291L70.8198 0L141.64 31.087Z" fill="#F2ECBE"/>
<path d="M125.545 40.4125L124.161 54.4638C122.603 70.0573 116.865 84.9897 107.512 97.7893C98.1581 110.589 85.5123 120.814 70.8204 127.456C56.1286 120.814 43.4827 110.589 34.1292 97.7893C24.7756 84.9897 19.0374 70.0573 17.4799 54.4638L16.0957 40.4125C25.077 36.3712 14.8081 41.0032 70.8204 15.543L125.545 40.4125Z" fill="#C6C3D8"/>
<path d="M125.545 40.4125L124.161 54.4638C122.762 68.9023 117.765 82.7993 109.598 94.9684C101.43 107.138 90.3351 117.217 77.2589 124.347C62.5555 117.72 49.8994 107.499 40.5437 94.6969C31.188 81.8943 25.4571 66.954 23.9184 51.3551L22.5342 37.4904L70.8207 15.543L125.545 40.4125Z" fill="#DAD7E5"/>
<path d="M103.011 46.6314C72.3329 61.3977 95.9933 50.0509 70.8199 62.1748L38.6289 46.6314C67.3755 32.7977 46.4191 42.8388 70.8199 31.0879L103.011 46.6314Z" fill="#A87E6B"/>
<path d="M103.011 46.6298C53.791 70.4424 119.107 38.8891 74.0392 60.6189L50.8294 49.3965C50.3022 49.1356 49.8596 48.7393 49.5506 48.2511C49.2416 47.7629 49.0781 47.2019 49.0781 46.6298C49.0781 46.0576 49.2416 45.4966 49.5506 45.0084C49.8596 44.5202 50.3022 44.1239 50.8294 43.863L74.0392 32.6406L103.011 46.6298Z" fill="#BE927C"/>
<path d="M103.011 46.6309V83.9352L70.8203 99.4787V62.1743L103.011 46.6309Z" fill="#A87E6B"/>
<path d="M103.011 46.6309V83.9352L70.8203 99.4787V62.1743L103.011 46.6309Z" fill="#A87E6B"/>
<path d="M70.82 99.4778L64.3818 102.587V96.3691L70.82 99.4778Z" fill="#C6C3D8"/>
<path d="M103.011 46.6309V77.7178L83.3423 87.1993C82.3609 87.6702 81.2714 87.8915 80.1768 87.8421C79.0822 87.7927 78.0188 87.4743 77.0872 86.9171C76.1556 86.3599 75.3867 85.5823 74.8533 84.6579C74.3199 83.7335 74.0396 82.693 74.0391 81.6348V60.62L103.011 46.6309Z" fill="#BE927C"/>
<path d="M70.8199 62.1743V99.4787L38.6289 83.9352V46.6309L70.8199 62.1743Z" fill="#A07765"/>
<path d="M52.5037 39.9463C59.6823 36.4335 59.7467 36.4335 53.0832 39.6354C45.8402 43.1483 45.2608 43.5213 52.5037 39.9463Z" fill="#C6C3D8"/>
<path d="M64.3824 96.368V102.585L32.1914 87.042V49.7376L38.6296 46.6289V83.9333L64.3824 96.368Z" fill="#C6C3D8"/>
<path d="M83.6962 62.1751C83.6962 55.0251 83.6962 55.9577 83.4065 56.1131L55.5935 41.5645L52.6963 42.9634L80.4771 57.5121V62.1751C80.4861 62.7166 80.6413 63.2464 80.9275 63.7121C81.2137 64.1778 81.6209 64.5632 82.1088 64.8302C82.5966 65.0971 83.1483 65.2364 83.709 65.2342C84.2698 65.232 84.8202 65.0883 85.3058 64.8175C84.8239 64.5489 84.4223 64.1643 84.1403 63.7012C83.8582 63.2381 83.7052 62.7123 83.6962 62.1751Z" fill="#A87E6B"/>
<path d="M89.8133 53.0656C88.3647 51.2936 93.0324 54.0293 59.5215 36.5273L52.5039 39.9469L83.4073 56.1121C83.8258 56.3297 83.697 55.4282 83.697 62.1741C83.697 62.9986 84.0361 63.7893 84.6398 64.3723C85.2435 64.9553 86.0623 65.2828 86.9161 65.2828C87.7699 65.2828 88.5886 64.9553 89.1923 64.3723C89.796 63.7893 90.1352 62.9986 90.1352 62.1741C90.1352 53.3454 90.1352 53.9982 89.8133 53.0656Z" fill="#F6CCAF"/>
</svg>
