<svg width="67" height="42" viewBox="0 0 67 42" fill="none" xmlns="http://www.w3.org/2000/svg">
<path d="M23.1663 2.08333V0C22.6138 0 22.0839 0.219493 21.6932 0.610194C21.3025 1.0009 21.083 1.5308 21.083 2.08333H23.1663ZM46.083 2.08333H48.1663C48.1663 1.5308 47.9468 1.0009 47.5561 0.610194C47.1654 0.219493 46.6355 0 46.083 0V2.08333ZM46.083 14.5833V12.5C45.5305 12.5 45.0006 12.7195 44.6099 13.1102C44.2192 13.5009 43.9997 14.0308 43.9997 14.5833H46.083ZM23.1663 4.16667H46.083V0H23.1663V4.16667ZM43.9997 2.08333V35.4167H48.1663V2.08333H43.9997ZM25.2497 31.25V2.08333H21.083V31.25H25.2497ZM46.083 16.6667H56.4997V12.5H46.083V16.6667ZM62.7497 22.9167V31.25H66.9163V22.9167H62.7497ZM48.1663 35.4167V14.5833H43.9997V35.4167H48.1663ZM57.9726 36.8896C57.5819 37.2802 57.0521 37.4996 56.4997 37.4996C55.9472 37.4996 55.4174 37.2802 55.0268 36.8896L52.0809 39.8354C53.253 41.0071 54.8424 41.6653 56.4997 41.6653C58.1569 41.6653 59.7464 41.0071 60.9184 39.8354L57.9726 36.8896ZM55.0268 33.9438C55.4174 33.5532 55.9472 33.3338 56.4997 33.3338C57.0521 33.3338 57.5819 33.5532 57.9726 33.9438L60.9184 30.9979C59.7464 29.8262 58.1569 29.168 56.4997 29.168C54.8424 29.168 53.253 29.8262 52.0809 30.9979L55.0268 33.9438ZM32.9726 36.8896C32.5819 37.2802 32.0521 37.4996 31.4997 37.4996C30.9472 37.4996 30.4174 37.2802 30.0268 36.8896L27.0809 39.8354C28.253 41.0071 29.8424 41.6653 31.4997 41.6653C33.1569 41.6653 34.7464 41.0071 35.9184 39.8354L32.9726 36.8896ZM30.0268 33.9438C30.4174 33.5532 30.9472 33.3338 31.4997 33.3338C32.0521 33.3338 32.5819 33.5532 32.9726 33.9438L35.9184 30.9979C34.7464 29.8262 33.1569 29.168 31.4997 29.168C29.8424 29.168 28.253 29.8262 27.0809 30.9979L30.0268 33.9438ZM57.9726 33.9438C58.3809 34.35 58.583 34.8813 58.583 35.4167H62.7497C62.7497 33.8208 62.1393 32.2167 60.9184 30.9979L57.9726 33.9438ZM58.583 35.4167C58.5836 35.6903 58.53 35.9614 58.4252 36.2142C58.3205 36.467 58.1666 36.6966 57.9726 36.8896L60.9184 39.8354C61.4994 39.2556 61.9602 38.5668 62.2744 37.8086C62.5887 37.0503 62.7502 36.2375 62.7497 35.4167H58.583ZM52.333 33.3333H46.083V37.5H52.333V33.3333ZM55.0268 36.8896C54.8327 36.6966 54.6789 36.467 54.5741 36.2142C54.4693 35.9614 54.4157 35.6903 54.4163 35.4167H50.2497C50.2497 37.0125 50.8601 38.6167 52.0809 39.8354L55.0268 36.8896ZM54.4163 35.4167C54.4153 35.1429 54.4687 34.8717 54.5735 34.6188C54.6783 34.366 54.8324 34.1365 55.0268 33.9438L52.0809 30.9979C51.5 31.5777 51.0392 32.2665 50.7249 33.0248C50.4107 33.783 50.2492 34.5959 50.2497 35.4167H54.4163ZM30.0268 36.8896C29.8327 36.6966 29.6789 36.467 29.5741 36.2142C29.4693 35.9614 29.4157 35.6903 29.4163 35.4167H25.2497C25.2497 37.0125 25.8601 38.6167 27.0809 39.8354L30.0268 36.8896ZM29.4163 35.4167C29.4153 35.1429 29.4687 34.8717 29.5735 34.6188C29.6783 34.366 29.8324 34.1365 30.0268 33.9438L27.0809 30.9979C26.5 31.5777 26.0392 32.2665 25.7249 33.0248C25.4107 33.783 25.2492 34.5959 25.2497 35.4167H29.4163ZM46.083 33.3333H35.6663V37.5H46.083V33.3333ZM32.9726 33.9438C33.3809 34.35 33.583 34.8813 33.583 35.4167H37.7497C37.7497 33.8208 37.1393 32.2167 35.9184 30.9979L32.9726 33.9438ZM33.583 35.4167C33.5836 35.6903 33.53 35.9614 33.4252 36.2142C33.3205 36.467 33.1666 36.6966 32.9726 36.8896L35.9184 39.8354C36.4994 39.2556 36.9602 38.5668 37.2744 37.8086C37.5887 37.0503 37.7502 36.2375 37.7497 35.4167H33.583ZM62.7497 31.25C62.7497 31.8025 62.5302 32.3324 62.1395 32.7231C61.7488 33.1138 61.2189 33.3333 60.6663 33.3333V37.5C62.3239 37.5 63.9137 36.8415 65.0858 35.6694C66.2579 34.4973 66.9163 32.9076 66.9163 31.25H62.7497ZM56.4997 16.6667C58.1573 16.6667 59.747 17.3251 60.9191 18.4972C62.0912 19.6694 62.7497 21.2591 62.7497 22.9167H66.9163C66.9163 21.5487 66.6469 20.1942 66.1234 18.9304C65.5999 17.6666 64.8326 16.5182 63.8654 15.551C62.8981 14.5837 61.7498 13.8164 60.486 13.2929C59.2222 12.7694 57.8676 12.5 56.4997 12.5V16.6667ZM21.083 31.25C21.083 32.9076 21.7415 34.4973 22.9136 35.6694C24.0857 36.8415 25.6754 37.5 27.333 37.5V33.3333C26.7805 33.3333 26.2506 33.1138 25.8599 32.7231C25.4692 32.3324 25.2497 31.8025 25.2497 31.25H21.083Z" fill="black"/>
<path d="M15.043 8.83398L40 8.83398L15.043 8.83398ZM1 19.834H30.0018H1Z" fill="black"/>
<path d="M15.043 8.83398L40 8.83398M1 19.834H30.0018M6.00678 14.4911H35.0086" stroke="black" stroke-width="2" stroke-linecap="round" stroke-linejoin="round"/>
</svg>
