<svg width="60" height="60" viewBox="0 0 60 60" fill="none" xmlns="http://www.w3.org/2000/svg">
<g clip-path="url(#clip0_262_207)">
<path d="M56.5255 8.1973C55.829 7.50068 55.0022 6.94808 54.0921 6.57107C53.1821 6.19405 52.2066 6 51.2216 6C50.2365 6 49.2611 6.19405 48.3511 6.57107C47.441 6.94808 46.6141 7.50068 45.9177 8.1973C45.8942 8.22074 45.8708 8.24418 45.8497 8.26996L32.9802 22.609L30.8286 20.4504C30.3063 19.9278 29.686 19.5132 29.0034 19.2303C28.3207 18.9475 27.589 18.8019 26.8501 18.8019C26.1112 18.8019 25.3795 18.9475 24.6968 19.2303C24.0142 19.5132 23.394 19.9278 22.8716 20.4504L4.89737 38.427C4.54601 38.7786 4.34863 39.2553 4.34863 39.7524C4.34863 40.2494 4.54601 40.7262 4.89737 41.0778L23.6474 59.8278C23.999 60.1791 24.4757 60.3765 24.9728 60.3765C25.4698 60.3765 25.9466 60.1791 26.2982 59.8278L44.2724 41.8629C44.795 41.3406 45.2096 40.7203 45.4925 40.0377C45.7753 39.355 45.9209 38.6233 45.9209 37.8844C45.9209 37.1455 45.7753 36.4138 45.4925 35.7311C45.2096 35.0485 44.795 34.4283 44.2724 33.9059L42.1138 31.7496L56.4528 18.8801C56.4788 18.8585 56.503 18.835 56.5255 18.8098C57.2228 18.1133 57.776 17.2861 58.1534 16.3756C58.5309 15.4651 58.7251 14.4892 58.7251 13.5036C58.7251 12.5179 58.5309 11.542 58.1534 10.6315C57.776 9.72102 57.2228 8.89385 56.5255 8.1973ZM24.9692 55.8528L21.0599 51.9411L26.2958 46.7028C26.6326 46.3483 26.8176 45.8762 26.8113 45.3873C26.8051 44.8984 26.6081 44.4313 26.2623 44.0855C25.9165 43.7397 25.4494 43.5427 24.9605 43.5365C24.4716 43.5302 23.9995 43.7152 23.645 44.052L18.4067 49.2879L15.4349 46.3161L20.6708 41.0778C21.0076 40.7233 21.1926 40.2513 21.1863 39.7623C21.1801 39.2734 20.9831 38.8063 20.6373 38.4605C20.2915 38.1147 19.8244 37.9177 19.3355 37.9115C18.8466 37.9052 18.3745 38.0902 18.02 38.427L12.7817 43.6629L8.87003 39.7536L19.3442 29.2793L35.4435 45.3786L24.9692 55.8528Z" fill="#F2ECBE"/>
</g>
<defs>
<clipPath id="clip0_262_207">
<rect width="60" height="60" fill="white"/>
</clipPath>
</defs>
</svg>
