<svg width="60" height="60" viewBox="0 0 60 60" fill="none" xmlns="http://www.w3.org/2000/svg">
<g clip-path="url(#clip0_262_181)">
<path fill-rule="evenodd" clip-rule="evenodd" d="M47.5 12.4723V14.9998C48.8261 14.9998 50.0979 15.5266 51.0355 16.4643C51.9732 17.4019 52.5 18.6737 52.5 19.9998V44.9998C52.5 46.3259 51.9732 47.5976 51.0355 48.5353C50.0979 49.473 48.8261 49.9998 47.5 49.9998H12.5C11.1739 49.9998 9.90215 49.473 8.96447 48.5353C8.02678 47.5976 7.5 46.3259 7.5 44.9998V19.9998C7.5 17.3873 9.5875 15.0173 12.0325 14.3198L39.5325 6.4623C40.4627 6.19643 41.442 6.15016 42.3931 6.32711C43.3443 6.50406 44.2414 6.89942 45.0138 7.48203C45.7861 8.06465 46.4127 8.81862 46.8442 9.68458C47.2756 10.5505 47.5001 11.5048 47.5 12.4723ZM38.75 28.7498C37.7554 28.7498 36.8016 29.1449 36.0983 29.8481C35.3951 30.5514 35 31.5052 35 32.4998C35 33.4944 35.3951 34.4482 36.0983 35.1514C36.8016 35.8547 37.7554 36.2498 38.75 36.2498C39.7446 36.2498 40.6984 35.8547 41.4016 35.1514C42.1049 34.4482 42.5 33.4944 42.5 32.4998C42.5 31.5052 42.1049 30.5514 41.4016 29.8481C40.6984 29.1449 39.7446 28.7498 38.75 28.7498ZM42.5 12.4723C42.5001 12.2958 42.4629 12.1213 42.3907 11.9603C42.3186 11.7992 42.2132 11.6553 42.0814 11.5379C41.9496 11.4206 41.7945 11.3324 41.6262 11.2793C41.4579 11.2262 41.2803 11.2093 41.105 11.2298L40.905 11.2698L27.85 14.9998H42.5V12.4723Z" fill="#F2ECBE"/>
</g>
<defs>
<clipPath id="clip0_262_181">
<rect width="60" height="60" fill="white"/>
</clipPath>
</defs>
</svg>
