<svg width="223" height="296" viewBox="0 0 223 296" fill="none" xmlns="http://www.w3.org/2000/svg">
<path d="M111.909 256.233C148.805 256.233 178.715 226.323 178.715 189.427C178.715 152.531 148.805 122.621 111.909 122.621C75.0135 122.621 45.1035 152.531 45.1035 189.427C45.1035 226.323 75.0135 256.233 111.909 256.233Z" stroke="#F2ECBE" stroke-width="11.1343" stroke-miterlimit="10"/>
<path d="M111.909 228.396C133.432 228.396 150.88 210.949 150.88 189.426C150.88 167.904 133.432 150.456 111.909 150.456C90.3869 150.456 72.9395 167.904 72.9395 189.426C72.9395 210.949 90.3869 228.396 111.909 228.396Z" stroke="#F2ECBE" stroke-width="11.1343" stroke-miterlimit="10"/>
<path d="M211.474 289.721H11.6179C8.54319 289.721 6.05078 287.229 6.05078 284.154V11.5671C6.05078 8.49241 8.54319 6 11.6179 6H211.474C214.548 6 217.041 8.49241 217.041 11.5671V284.154C217.041 287.229 214.548 289.721 211.474 289.721Z" stroke="#F2ECBE" stroke-width="11.1343" stroke-miterlimit="10" stroke-linecap="round" stroke-linejoin="round"/>
<path d="M6 33.5078H95.0744V88.9015H6V33.5078Z" stroke="#F2ECBE" stroke-width="11.1343" stroke-miterlimit="10" stroke-linecap="round" stroke-linejoin="round"/>
<path d="M117.344 44.5938H156.314" stroke="#F2ECBE" stroke-width="11.1343" stroke-miterlimit="10" stroke-linecap="round" stroke-linejoin="round"/>
<path d="M117.344 66.8633H156.314" stroke="#F2ECBE" stroke-width="11.1343" stroke-miterlimit="10" stroke-linecap="round" stroke-linejoin="round"/>
<path d="M39.4023 55.7285H61.6709" stroke="#F2ECBE" stroke-width="11.1343" stroke-miterlimit="10" stroke-linecap="round" stroke-linejoin="round"/>
<path d="M190.134 65.2686C196.284 65.2686 201.269 60.2836 201.269 54.1343C201.269 47.985 196.284 43 190.134 43C183.985 43 179 47.985 179 54.1343C179 60.2836 183.985 65.2686 190.134 65.2686Z" fill="#F2ECBE"/>
</svg>
