<svg width="60" height="60" viewBox="0 0 60 60" fill="none" xmlns="http://www.w3.org/2000/svg">
<mask id="mask0_262_213" style="mask-type:luminance" maskUnits="userSpaceOnUse" x="8" y="3" width="44" height="54">
<path d="M47.5 5H12.5C11.1193 5 10 6.11929 10 7.5V52.5C10 53.8807 11.1193 55 12.5 55H47.5C48.8807 55 50 53.8807 50 52.5V7.5C50 6.11929 48.8807 5 47.5 5Z" stroke="white" stroke-width="4"/>
<path d="M10 15C10 15.663 10.2634 16.2989 10.7322 16.7678C11.2011 17.2366 11.837 17.5 12.5 17.5H47.5C48.163 17.5 48.7989 17.2366 49.2678 16.7678C49.7366 16.2989 50 15.663 50 15V7.5C50 6.83696 49.7366 6.20107 49.2678 5.73223C48.7989 5.26339 48.163 5 47.5 5H12.5C11.837 5 11.2011 5.26339 10.7322 5.73223C10.2634 6.20107 10 6.83696 10 7.5V15Z" fill="white" stroke="white" stroke-width="4"/>
<path d="M17.5 13.75C18.8807 13.75 20 12.6307 20 11.25C20 9.86929 18.8807 8.75 17.5 8.75C16.1193 8.75 15 9.86929 15 11.25C15 12.6307 16.1193 13.75 17.5 13.75Z" fill="black"/>
<path d="M25 13.75C26.3807 13.75 27.5 12.6307 27.5 11.25C27.5 9.86929 26.3807 8.75 25 8.75C23.6193 8.75 22.5 9.86929 22.5 11.25C22.5 12.6307 23.6193 13.75 25 13.75Z" fill="black"/>
<path d="M30 45C34.8325 45 38.75 41.0825 38.75 36.25C38.75 31.4175 34.8325 27.5 30 27.5C25.1675 27.5 21.25 31.4175 21.25 36.25C21.25 41.0825 25.1675 45 30 45Z" fill="white" stroke="white" stroke-width="4"/>
</mask>
<g mask="url(#mask0_262_213)">
<path d="M0 0H60V60H0V0Z" fill="#F2ECBE"/>
</g>
</svg>
