<svg width="15" height="15" viewBox="0 0 15 15" fill="none" xmlns="http://www.w3.org/2000/svg">
<path d="M13.2147 4.28599H5.35756M3.92899 4.28599H1.78613M13.2147 11.4289H5.35756M3.92899 11.4289H1.78613M9.64328 7.85742H1.78613M13.2147 7.85742H11.0718M4.64328 2.85742C4.83272 2.85742 5.0144 2.93268 5.14835 3.06663C5.28231 3.20059 5.35756 3.38227 5.35756 3.57171V5.00028C5.35756 5.18972 5.28231 5.3714 5.14835 5.50536C5.0144 5.63931 4.83272 5.71456 4.64328 5.71456C4.45384 5.71456 4.27215 5.63931 4.1382 5.50536C4.00425 5.3714 3.92899 5.18972 3.92899 5.00028V3.57171C3.92899 3.38227 4.00425 3.20059 4.1382 3.06663C4.27215 2.93268 4.45384 2.85742 4.64328 2.85742V2.85742ZM4.64328 10.0003C4.83272 10.0003 5.0144 10.0755 5.14835 10.2095C5.28231 10.3434 5.35756 10.5251 5.35756 10.7146V12.1431C5.35756 12.3326 5.28231 12.5143 5.14835 12.6482C5.0144 12.7822 4.83272 12.8574 4.64328 12.8574C4.45384 12.8574 4.27215 12.7822 4.1382 12.6482C4.00425 12.5143 3.92899 12.3326 3.92899 12.1431V10.7146C3.92899 10.5251 4.00425 10.3434 4.1382 10.2095C4.27215 10.0755 4.45384 10.0003 4.64328 10.0003ZM10.3576 6.42885C10.547 6.42885 10.7287 6.50411 10.8626 6.63806C10.9966 6.77201 11.0718 6.9537 11.0718 7.14314V8.57171C11.0718 8.76115 10.9966 8.94283 10.8626 9.07678C10.7287 9.21074 10.547 9.28599 10.3576 9.28599C10.1681 9.28599 9.98644 9.21074 9.85249 9.07678C9.71853 8.94283 9.64328 8.76115 9.64328 8.57171V7.14314C9.64328 6.9537 9.71853 6.77201 9.85249 6.63806C9.98644 6.50411 10.1681 6.42885 10.3576 6.42885V6.42885Z" stroke="black" stroke-linecap="round" stroke-linejoin="round"/>
</svg>
