<svg width="50" height="50" viewBox="0 0 50 50" fill="none" xmlns="http://www.w3.org/2000/svg">
<g clip-path="url(#clip0_626_2899)">
<rect width="50" height="50" rx="10" fill="white"/>
<path d="M24.9996 2.77734C20.6044 2.77734 16.308 4.08065 12.6536 6.52246C8.99914 8.96427 6.15087 12.4349 4.46892 16.4955C2.78697 20.5561 2.3469 25.0242 3.20435 29.3349C4.0618 33.6456 6.17826 37.6052 9.28609 40.7131C12.3939 43.8209 16.3535 45.9373 20.6642 46.7948C24.9749 47.6522 29.4431 47.2122 33.5037 45.5302C37.5642 43.8483 41.0349 41 43.4767 37.3456C45.9185 33.6911 47.2218 29.3947 47.2218 24.9996C47.2218 19.1059 44.8805 13.4536 40.7131 9.28608C36.5456 5.11861 30.8933 2.77734 24.9996 2.77734ZM24.9996 44.444C21.1538 44.444 17.3944 43.3036 14.1968 41.167C10.9992 39.0304 8.50696 35.9936 7.03525 32.4406C5.56355 28.8876 5.17848 24.978 5.92875 21.2061C6.67902 17.4343 8.53092 13.9696 11.2503 11.2503C13.9696 8.53091 17.4343 6.67901 21.2062 5.92874C24.978 5.17847 28.8876 5.56354 32.4406 7.03524C35.9937 8.50695 39.0305 10.9992 41.167 14.1968C43.3036 17.3944 44.444 21.1538 44.444 24.9996C44.444 30.1566 42.3954 35.1023 38.7489 38.7489C35.1023 42.3954 30.1566 44.444 24.9996 44.444Z" fill="black"/>
<path d="M26.2778 25.5549V14.9299C26.2778 14.5615 26.1314 14.2083 25.871 13.9478C25.6105 13.6873 25.2572 13.541 24.8889 13.541C24.5205 13.541 24.1673 13.6873 23.9068 13.9478C23.6463 14.2083 23.5 14.5615 23.5 14.9299V27.041L31.6944 32.5966C31.8454 32.7101 32.0179 32.7917 32.2014 32.8362C32.385 32.8808 32.5757 32.8875 32.7619 32.8559C32.9481 32.8242 33.1259 32.755 33.2844 32.6523C33.443 32.5496 33.5789 32.4156 33.6839 32.2586C33.7888 32.1016 33.8607 31.9248 33.895 31.7391C33.9294 31.5534 33.9255 31.3626 33.8836 31.1784C33.8417 30.9943 33.7626 30.8206 33.6513 30.668C33.54 30.5154 33.3987 30.3871 33.2361 30.291L26.2778 25.5549Z" fill="black"/>
<path d="M11.1107 24.9174C11.098 22.4188 11.7636 19.9636 13.0366 17.8136C14.3096 15.6636 16.1421 13.8994 18.339 12.709C20.5358 11.5187 23.0145 10.9468 25.5107 11.0545C28.007 11.1621 30.4273 11.9451 32.5135 13.3201L33.694 11.4313C31.7124 10.1332 29.4679 9.29014 27.1217 8.96264C24.7756 8.63513 22.386 8.83132 20.1247 9.53709C17.8633 10.2429 15.7864 11.4407 14.043 13.0446C12.2996 14.6485 10.9331 16.6185 10.0416 18.8133C9.1501 21.0081 8.75576 23.373 8.88691 25.7383C9.01805 28.1036 9.67142 30.4105 10.8001 32.4933C11.9287 34.576 13.5047 36.3829 15.4147 37.7843C17.3247 39.1856 19.5213 40.1465 21.8468 40.5979L22.2218 38.4729C19.094 37.8345 16.2816 36.1381 14.2579 33.6692C12.2343 31.2003 11.1228 28.1096 11.1107 24.9174Z" fill="black"/>
</g>
<defs>
<clipPath id="clip0_626_2899">
<rect width="50" height="50" rx="10" fill="white"/>
</clipPath>
</defs>
</svg>
