<svg width="51" height="50" viewBox="0 0 51 50" fill="none" xmlns="http://www.w3.org/2000/svg">
<g clip-path="url(#clip0_626_2880)">
<rect width="50.142" height="50" transform="translate(0.431641)" fill="white"/>
<path d="M36.4712 14.6484L50.5492 21.6797V40.7715L36.4712 47.8027L22.3688 40.8203V32.9834L14.5341 36.8652L0.431641 29.8828L0.456124 10.7422L14.5341 3.71094L28.6121 10.7422L28.6365 18.5791L36.4712 14.6484ZM45.4811 22.6318L36.4712 18.1641L27.4613 22.6318L36.4712 27.124L45.4811 22.6318ZM23.544 11.6943L14.5341 7.22656L5.52419 11.6943L14.5341 16.1865L23.544 11.6943ZM3.59 14.2334L3.56552 27.9297L12.9672 32.5928V18.8965L3.59 14.2334ZM16.101 32.5928L22.3933 29.4922V21.6797L25.5027 20.1416L25.4782 14.2334L16.101 18.8965V32.5928ZM25.5271 25.1709L25.5027 38.8672L34.9043 43.5303V29.834L25.5271 25.1709ZM38.0382 43.5303L47.4153 38.8428V25.1709L38.0382 29.834V43.5303Z" fill="black"/>
</g>
<defs>
<clipPath id="clip0_626_2880">
<rect width="50.142" height="50" fill="white" transform="translate(0.431641)"/>
</clipPath>
</defs>
</svg>
