<svg width="54" height="50" viewBox="0 0 54 50" fill="none" xmlns="http://www.w3.org/2000/svg">
<rect width="54" height="50" fill="white"/>
<path d="M28.7775 43.7493L6.75 23.3535V27.5202C6.75 28.6243 7.2225 29.6868 8.0775 30.4577L25.605 46.6868C27.36 48.3118 30.2175 48.3118 31.9725 46.6868L45.945 33.7494C47.7 32.1244 47.7 29.4785 45.945 27.8535L28.7775 43.7493Z" fill="black"/>
<path d="M25.605 36.2708C26.4825 37.0833 27.63 37.5 28.7775 37.5C29.925 37.5 31.0725 37.0833 31.95 36.2708L45.9225 23.3333C47.6775 21.7083 47.6775 19.0625 45.9225 17.4375L28.395 1.20833C27.5625 0.4375 26.415 0 25.2225 0H11.25C8.775 0 6.75 1.875 6.75 4.16667V17.1042C6.75 18.2083 7.2225 19.2708 8.0775 20.0417L25.605 36.2708ZM11.25 4.16667H25.2225L42.75 20.3958L28.7775 33.3333L11.25 17.1042V4.16667Z" fill="black"/>
<path d="M16.3125 11.4583C17.8658 11.4583 19.125 10.2924 19.125 8.85417C19.125 7.41593 17.8658 6.25 16.3125 6.25C14.7592 6.25 13.5 7.41593 13.5 8.85417C13.5 10.2924 14.7592 11.4583 16.3125 11.4583Z" fill="black"/>
</svg>
