<svg width="69" height="50" viewBox="0 0 69 50" fill="none" xmlns="http://www.w3.org/2000/svg">
<rect width="50" height="50" transform="translate(19)" fill="white"/>
<path d="M23.1663 6.24935V4.16602C22.6138 4.16602 22.0839 4.38551 21.6932 4.77621C21.3025 5.16691 21.083 5.69681 21.083 6.24935H23.1663ZM46.083 6.24935H48.1663C48.1663 5.69681 47.9468 5.16691 47.5561 4.77621C47.1654 4.38551 46.6355 4.16602 46.083 4.16602V6.24935ZM46.083 18.7493V16.666C45.5305 16.666 45.0006 16.8855 44.6099 17.2762C44.2192 17.6669 43.9997 18.1968 43.9997 18.7493H46.083ZM23.1663 8.33268H46.083V4.16602H23.1663V8.33268ZM43.9997 6.24935V39.5827H48.1663V6.24935H43.9997ZM25.2497 35.416V6.24935H21.083V35.416H25.2497ZM46.083 20.8327H56.4997V16.666H46.083V20.8327ZM62.7497 27.0827V35.416H66.9163V27.0827H62.7497ZM48.1663 39.5827V18.7493H43.9997V39.5827H48.1663ZM57.9726 41.0556C57.5819 41.4462 57.0521 41.6656 56.4997 41.6656C55.9472 41.6656 55.4174 41.4462 55.0268 41.0556L52.0809 44.0014C53.253 45.1731 54.8424 45.8313 56.4997 45.8313C58.1569 45.8313 59.7464 45.1731 60.9184 44.0014L57.9726 41.0556ZM55.0268 38.1098C55.4174 37.7192 55.9472 37.4998 56.4997 37.4998C57.0521 37.4998 57.5819 37.7192 57.9726 38.1098L60.9184 35.1639C59.7464 33.9922 58.1569 33.334 56.4997 33.334C54.8424 33.334 53.253 33.9922 52.0809 35.1639L55.0268 38.1098ZM32.9726 41.0556C32.5819 41.4462 32.0521 41.6656 31.4997 41.6656C30.9472 41.6656 30.4174 41.4462 30.0268 41.0556L27.0809 44.0014C28.253 45.1731 29.8424 45.8313 31.4997 45.8313C33.1569 45.8313 34.7464 45.1731 35.9184 44.0014L32.9726 41.0556ZM30.0268 38.1098C30.4174 37.7192 30.9472 37.4998 31.4997 37.4998C32.0521 37.4998 32.5819 37.7192 32.9726 38.1098L35.9184 35.1639C34.7464 33.9922 33.1569 33.334 31.4997 33.334C29.8424 33.334 28.253 33.9922 27.0809 35.1639L30.0268 38.1098ZM57.9726 38.1098C58.3809 38.516 58.583 39.0473 58.583 39.5827H62.7497C62.7497 37.9869 62.1393 36.3827 60.9184 35.1639L57.9726 38.1098ZM58.583 39.5827C58.5836 39.8563 58.53 40.1274 58.4252 40.3802C58.3205 40.6331 58.1666 40.8626 57.9726 41.0556L60.9184 44.0014C61.4994 43.4216 61.9602 42.7328 62.2744 41.9746C62.5887 41.2163 62.7502 40.4035 62.7497 39.5827H58.583ZM52.333 37.4994H46.083V41.666H52.333V37.4994ZM55.0268 41.0556C54.8327 40.8626 54.6789 40.6331 54.5741 40.3802C54.4693 40.1274 54.4157 39.8563 54.4163 39.5827H50.2497C50.2497 41.1785 50.8601 42.7827 52.0809 44.0014L55.0268 41.0556ZM54.4163 39.5827C54.4153 39.3089 54.4687 39.0377 54.5735 38.7849C54.6783 38.532 54.8324 38.3025 55.0268 38.1098L52.0809 35.1639C51.5 35.7438 51.0392 36.4325 50.7249 37.1908C50.4107 37.9491 50.2492 38.7619 50.2497 39.5827H54.4163ZM30.0268 41.0556C29.8327 40.8626 29.6789 40.6331 29.5741 40.3802C29.4693 40.1274 29.4157 39.8563 29.4163 39.5827H25.2497C25.2497 41.1785 25.8601 42.7827 27.0809 44.0014L30.0268 41.0556ZM29.4163 39.5827C29.4153 39.3089 29.4687 39.0377 29.5735 38.7849C29.6783 38.532 29.8324 38.3025 30.0268 38.1098L27.0809 35.1639C26.5 35.7438 26.0392 36.4325 25.7249 37.1908C25.4107 37.9491 25.2492 38.7619 25.2497 39.5827H29.4163ZM46.083 37.4994H35.6663V41.666H46.083V37.4994ZM32.9726 38.1098C33.3809 38.516 33.583 39.0473 33.583 39.5827H37.7497C37.7497 37.9869 37.1393 36.3827 35.9184 35.1639L32.9726 38.1098ZM33.583 39.5827C33.5836 39.8563 33.53 40.1274 33.4252 40.3802C33.3205 40.6331 33.1666 40.8626 32.9726 41.0556L35.9184 44.0014C36.4994 43.4216 36.9602 42.7328 37.2744 41.9746C37.5887 41.2163 37.7502 40.4035 37.7497 39.5827H33.583ZM62.7497 35.416C62.7497 35.9686 62.5302 36.4985 62.1395 36.8892C61.7488 37.2799 61.2189 37.4994 60.6663 37.4994V41.666C62.3239 41.666 63.9137 41.0075 65.0858 39.8354C66.2579 38.6633 66.9163 37.0736 66.9163 35.416H62.7497ZM56.4997 20.8327C58.1573 20.8327 59.747 21.4912 60.9191 22.6633C62.0912 23.8354 62.7497 25.4251 62.7497 27.0827H66.9163C66.9163 25.7147 66.6469 24.3602 66.1234 23.0964C65.5999 21.8326 64.8326 20.6843 63.8654 19.717C62.8981 18.7497 61.7498 17.9824 60.486 17.4589C59.2222 16.9355 57.8676 16.666 56.4997 16.666V20.8327ZM21.083 35.416C21.083 37.0736 21.7415 38.6633 22.9136 39.8354C24.0857 41.0075 25.6754 41.666 27.333 41.666V37.4994C26.7805 37.4994 26.2506 37.2799 25.8599 36.8892C25.4692 36.4985 25.2497 35.9686 25.2497 35.416H21.083Z" fill="black"/>
<path d="M15.043 13L40 13L15.043 13ZM1 24H30.0018H1Z" fill="black"/>
<path d="M15.043 13L40 13M1 24H30.0018M6.00678 18.6571H35.0086" stroke="black" stroke-width="2" stroke-linecap="round" stroke-linejoin="round"/>
</svg>
