<svg width="10" height="10" viewBox="0 0 10 10" fill="none" xmlns="http://www.w3.org/2000/svg">
<path d="M5.57367 4.99761L9.88136 0.688264C9.95736 0.611937 9.99999 0.508622 9.99992 0.400946C9.99984 0.29327 9.95708 0.190011 9.88098 0.113786C9.72866 -0.0376738 9.46039 -0.0384387 9.30654 0.114551L5 4.4239L0.691933 0.113404C0.538853 -0.0376738 0.270579 -0.0369089 0.118264 0.114169C0.0804576 0.151802 0.0505295 0.196583 0.0302261 0.2459C0.00992265 0.295217 -0.000349455 0.348081 9.07158e-06 0.401407C9.07158e-06 0.51003 0.0421062 0.611769 0.118264 0.687116L4.42595 4.99723L0.118647 9.30772C0.0426364 9.38416 6.99373e-05 9.48762 0.000285173 9.59539C0.000500409 9.70315 0.0434799 9.80644 0.119795 9.88258C0.193656 9.95563 0.298133 9.9977 0.406055 9.9977H0.408352C0.516656 9.99732 0.621134 9.95487 0.693464 9.88105L5 5.5717L9.30807 9.8822C9.38423 9.95792 9.48603 10 9.59395 10C9.64732 10.0001 9.70019 9.98976 9.74952 9.96942C9.79885 9.94908 9.84367 9.91919 9.88141 9.88148C9.91914 9.84376 9.94905 9.79897 9.9694 9.74967C9.98975 9.70036 10.0001 9.64753 10 9.59419C10 9.48595 9.9579 9.38383 9.88136 9.30848L5.57367 4.99761Z" fill="black"/>
</svg>
