<svg width="149" height="27" viewBox="0 0 149 27" fill="none" xmlns="http://www.w3.org/2000/svg">
<path d="M3.48 1.36V10.128H0.28V1.36H3.48ZM12.046 0.943998V23.024C12.046 23.92 12.1953 24.528 12.494 24.848C12.814 25.168 13.3473 25.328 14.094 25.328V26C13.6887 25.9787 13.0807 25.9573 12.27 25.936C11.4593 25.8933 10.638 25.872 9.806 25.872C8.974 25.872 8.13133 25.8933 7.278 25.936C6.446 25.9573 5.81667 25.9787 5.39 26V25.328C6.13667 25.328 6.65933 25.168 6.958 24.848C7.278 24.528 7.438 23.92 7.438 23.024V4.784C7.438 3.824 7.28867 3.12 6.99 2.672C6.71267 2.20267 6.17933 1.968 5.39 1.968V1.296C6.07267 1.36 6.734 1.392 7.374 1.392C8.24867 1.392 9.08067 1.36 9.87 1.296C10.6593 1.21067 11.3847 1.09333 12.046 0.943998ZM23.399 9.008C24.9563 9.008 26.3217 9.296 27.495 9.872C28.6683 10.448 29.5857 11.376 30.247 12.656C30.9083 13.936 31.239 15.632 31.239 17.744C31.239 19.856 30.9083 21.552 30.247 22.832C29.5857 24.0907 28.6683 25.008 27.495 25.584C26.3217 26.16 24.9563 26.448 23.399 26.448C21.8843 26.448 20.5297 26.16 19.335 25.584C18.1617 25.008 17.2337 24.0907 16.551 22.832C15.8897 21.552 15.559 19.856 15.559 17.744C15.559 15.632 15.8897 13.936 16.551 12.656C17.2337 11.376 18.1617 10.448 19.335 9.872C20.5297 9.296 21.8843 9.008 23.399 9.008ZM23.399 9.648C22.5457 9.648 21.831 10.288 21.255 11.568C20.679 12.8267 20.391 14.8853 20.391 17.744C20.391 20.6027 20.679 22.6613 21.255 23.92C21.831 25.1787 22.5457 25.808 23.399 25.808C24.2737 25.808 24.9883 25.1787 25.543 23.92C26.119 22.6613 26.407 20.6027 26.407 17.744C26.407 14.8853 26.119 12.8267 25.543 11.568C24.9883 10.288 24.2737 9.648 23.399 9.648ZM42.0688 6.32H22.8687V4.368H42.0688V6.32ZM41.4928 9.008C43.0501 9.008 44.4154 9.296 45.5888 9.872C46.7621 10.448 47.6794 11.376 48.3408 12.656C49.0021 13.936 49.3328 15.632 49.3328 17.744C49.3328 19.856 49.0021 21.552 48.3408 22.832C47.6794 24.0907 46.7621 25.008 45.5888 25.584C44.4154 26.16 43.0501 26.448 41.4928 26.448C39.9781 26.448 38.6234 26.16 37.4288 25.584C36.2554 25.008 35.3274 24.0907 34.6448 22.832C33.9834 21.552 33.6528 19.856 33.6528 17.744C33.6528 15.632 33.9834 13.936 34.6448 12.656C35.3274 11.376 36.2554 10.448 37.4288 9.872C38.6234 9.296 39.9781 9.008 41.4928 9.008ZM41.4928 9.648C40.6394 9.648 39.9248 10.288 39.3488 11.568C38.7728 12.8267 38.4848 14.8853 38.4848 17.744C38.4848 20.6027 38.7728 22.6613 39.3488 23.92C39.9248 25.1787 40.6394 25.808 41.4928 25.808C42.3674 25.808 43.0821 25.1787 43.6368 23.92C44.2128 22.6613 44.5008 20.6027 44.5008 17.744C44.5008 14.8853 44.2128 12.8267 43.6368 11.568C43.0821 10.288 42.3674 9.648 41.4928 9.648ZM62.9465 9.008C63.8425 9.008 64.5678 9.12533 65.1225 9.36C65.6772 9.57333 66.1252 9.872 66.4665 10.256C66.8078 10.6613 67.0532 11.1947 67.2025 11.856C67.3518 12.496 67.4265 13.3493 67.4265 14.416V23.024C67.4265 23.92 67.5652 24.528 67.8425 24.848C68.1198 25.168 68.5998 25.328 69.2825 25.328V26C68.8985 25.9787 68.3118 25.9573 67.5225 25.936C66.7545 25.8933 65.9972 25.872 65.2505 25.872C64.4825 25.872 63.7252 25.8933 62.9785 25.936C62.2318 25.9573 61.6665 25.9787 61.2825 26V25.328C61.8585 25.328 62.2532 25.168 62.4665 24.848C62.7012 24.528 62.8185 23.92 62.8185 23.024V13.072C62.8185 12.5387 62.7758 12.08 62.6905 11.696C62.6052 11.2907 62.4345 10.9813 62.1785 10.768C61.9438 10.5333 61.5812 10.416 61.0905 10.416C60.5358 10.416 60.0238 10.576 59.5545 10.896C59.0852 11.216 58.7012 11.664 58.4025 12.24C58.1252 12.7947 57.9865 13.424 57.9865 14.128V23.024C57.9865 23.92 58.1038 24.528 58.3385 24.848C58.5732 25.168 58.9678 25.328 59.5225 25.328V26C59.1812 25.9787 58.6478 25.9573 57.9225 25.936C57.2185 25.8933 56.4932 25.872 55.7465 25.872C54.9358 25.872 54.1038 25.8933 53.2505 25.936C52.3972 25.9573 51.7572 25.9787 51.3305 26V25.328C52.0772 25.328 52.5998 25.168 52.8985 24.848C53.2185 24.528 53.3785 23.92 53.3785 23.024V12.944C53.3785 11.984 53.2292 11.28 52.9305 10.832C52.6532 10.3627 52.1198 10.128 51.3305 10.128V9.456C52.0132 9.52 52.6745 9.552 53.3145 9.552C54.2105 9.552 55.0425 9.52 55.8105 9.456C56.5998 9.37067 57.3252 9.25333 57.9865 9.104V11.984C58.4985 10.9173 59.1918 10.16 60.0665 9.712C60.9412 9.24267 61.9012 9.008 62.9465 9.008ZM72.5785 9.008C73.4745 9.008 74.1998 9.12533 74.7545 9.36C75.3092 9.57333 75.7572 9.872 76.0985 10.256C76.4398 10.6613 76.6852 11.1947 76.8345 11.856C76.9838 12.496 77.0585 13.3493 77.0585 14.416V23.024C77.0585 23.92 77.2078 24.528 77.5065 24.848C77.8265 25.168 78.3598 25.328 79.1065 25.328V26C78.7012 25.9787 78.0932 25.9573 77.2825 25.936C76.4718 25.8933 75.6718 25.872 74.8825 25.872C74.1145 25.872 73.3572 25.8933 72.6105 25.936C71.8638 25.9573 71.2985 25.9787 70.9145 26V25.328C71.4905 25.328 71.8852 25.168 72.0985 24.848C72.3332 24.528 72.4505 23.92 72.4505 23.024V13.072C72.4505 12.5387 72.3972 12.08 72.2905 11.696C72.2052 11.2907 72.0238 10.9813 71.7465 10.768C71.4905 10.5333 71.0852 10.416 70.5305 10.416C69.9758 10.416 69.4638 10.5867 68.9945 10.928C68.5252 11.2693 68.1412 11.728 67.8425 12.304C67.5652 12.88 67.4158 13.52 67.3945 14.224L67.2345 12.272C67.8105 10.992 68.5678 10.128 69.5065 9.68C70.4665 9.232 71.4905 9.008 72.5785 9.008ZM88.4913 26.448C85.9313 26.448 83.9899 25.68 82.6673 24.144C81.3446 22.608 80.6939 20.2827 80.7153 17.168H93.0673L93.1313 17.776H85.5793C85.5366 20.3573 85.7819 22.3413 86.3153 23.728C86.8486 25.1147 87.5953 25.808 88.5553 25.808C89.4939 25.808 90.2299 25.1573 90.7633 23.856C91.2966 22.5547 91.5633 20.656 91.5633 18.16C91.5633 15.4507 91.1899 13.424 90.4433 12.08C89.6966 10.7147 88.6086 10.032 87.1793 10.032C86.3686 10.032 85.6219 10.256 84.9393 10.704C84.2779 11.1307 83.7339 11.728 83.3073 12.496C82.9019 13.264 82.6779 14.1493 82.6353 15.152H81.8993C81.8993 14.0427 81.8886 13.1147 81.8673 12.368C81.8673 11.6213 81.8566 11.0027 81.8353 10.512C81.8139 10.0213 81.7819 9.60533 81.7393 9.264H82.4753C82.5393 9.776 82.6246 10.1387 82.7313 10.352C82.8379 10.5653 82.9873 10.672 83.1793 10.672C83.3073 10.672 83.4566 10.64 83.6273 10.576C83.7979 10.4907 84.0326 10.352 84.3313 10.16C85.0353 9.73333 85.7179 9.43467 86.3793 9.264C87.0406 9.09333 87.7659 9.008 88.5553 9.008C91.0513 9.008 92.9819 9.73333 94.3473 11.184C95.7126 12.6133 96.3953 14.7893 96.3953 17.712C96.3953 20.528 95.7446 22.6933 94.4433 24.208C93.1633 25.7013 91.1793 26.448 88.4913 26.448ZM110.266 9.008C111.162 9.008 111.887 9.12533 112.442 9.36C113.018 9.57333 113.466 9.872 113.786 10.256C114.127 10.6613 114.372 11.184 114.522 11.824C114.692 12.464 114.778 13.328 114.778 14.416V23.024C114.778 23.92 114.927 24.528 115.226 24.848C115.546 25.168 116.079 25.328 116.826 25.328V26C116.42 25.9787 115.812 25.9573 115.002 25.936C114.191 25.8933 113.391 25.872 112.602 25.872C111.791 25.872 110.991 25.8933 110.202 25.936C109.434 25.9573 108.847 25.9787 108.442 26V25.328C109.082 25.328 109.53 25.168 109.786 24.848C110.042 24.528 110.17 23.92 110.17 23.024V13.072C110.17 12.5387 110.116 12.08 110.01 11.696C109.903 11.2907 109.711 10.9813 109.434 10.768C109.156 10.5333 108.74 10.416 108.186 10.416C107.61 10.416 107.076 10.576 106.586 10.896C106.116 11.216 105.732 11.664 105.434 12.24C105.156 12.7947 105.018 13.424 105.018 14.128V23.024C105.018 23.92 105.146 24.528 105.402 24.848C105.679 25.168 106.127 25.328 106.746 25.328V26C106.362 25.9787 105.796 25.9573 105.05 25.936C104.324 25.8933 103.567 25.872 102.778 25.872C101.967 25.872 101.135 25.8933 100.282 25.936C99.4284 25.9573 98.7884 25.9787 98.3618 26V25.328C99.1084 25.328 99.6311 25.168 99.9298 24.848C100.25 24.528 100.41 23.92 100.41 23.024V12.944C100.41 11.984 100.26 11.28 99.9618 10.832C99.6844 10.3627 99.1511 10.128 98.3618 10.128V9.456C99.0444 9.52 99.7058 9.552 100.346 9.552C101.242 9.552 102.074 9.52 102.842 9.456C103.631 9.37067 104.356 9.25333 105.018 9.104V11.984C105.551 10.896 106.276 10.128 107.194 9.68C108.111 9.232 109.135 9.008 110.266 9.008ZM126.21 26.448C123.65 26.448 121.709 25.68 120.386 24.144C119.063 22.608 118.413 20.2827 118.434 17.168H130.786L130.85 17.776H123.298C123.255 20.3573 123.501 22.3413 124.034 23.728C124.567 25.1147 125.314 25.808 126.274 25.808C127.213 25.808 127.949 25.1573 128.482 23.856C129.015 22.5547 129.282 20.656 129.282 18.16C129.282 15.4507 128.909 13.424 128.162 12.08C127.415 10.7147 126.327 10.032 124.898 10.032C124.087 10.032 123.341 10.256 122.658 10.704C121.997 11.1307 121.453 11.728 121.026 12.496C120.621 13.264 120.397 14.1493 120.354 15.152H119.618C119.618 14.0427 119.607 13.1147 119.586 12.368C119.586 11.6213 119.575 11.0027 119.554 10.512C119.533 10.0213 119.501 9.60533 119.458 9.264H120.194C120.258 9.776 120.343 10.1387 120.45 10.352C120.557 10.5653 120.706 10.672 120.898 10.672C121.026 10.672 121.175 10.64 121.346 10.576C121.517 10.4907 121.751 10.352 122.05 10.16C122.754 9.73333 123.437 9.43467 124.098 9.264C124.759 9.09333 125.485 9.008 126.274 9.008C128.77 9.008 130.701 9.73333 132.066 11.184C133.431 12.6133 134.114 14.7893 134.114 17.712C134.114 20.528 133.463 22.6933 132.162 24.208C130.882 25.7013 128.898 26.448 126.21 26.448ZM142.417 9.008C143.313 9.008 144.091 9.12533 144.753 9.36C145.435 9.57333 145.926 9.78667 146.225 10C146.95 10.4907 147.398 10.1707 147.569 9.04H148.241C148.198 9.63733 148.166 10.3733 148.145 11.248C148.123 12.1013 148.113 13.2427 148.113 14.672H147.441C147.334 13.8827 147.131 13.104 146.833 12.336C146.534 11.568 146.097 10.9387 145.521 10.448C144.966 9.95733 144.241 9.712 143.345 9.712C142.726 9.712 142.203 9.89333 141.777 10.256C141.35 10.5973 141.137 11.0987 141.137 11.76C141.137 12.4 141.329 12.9653 141.713 13.456C142.097 13.9253 142.587 14.384 143.185 14.832C143.803 15.2587 144.443 15.7173 145.105 16.208C145.809 16.7413 146.449 17.2747 147.025 17.808C147.601 18.32 148.059 18.8853 148.401 19.504C148.742 20.1227 148.913 20.8587 148.913 21.712C148.913 22.672 148.635 23.5147 148.081 24.24C147.526 24.944 146.79 25.488 145.873 25.872C144.977 26.256 143.974 26.448 142.865 26.448C142.225 26.448 141.649 26.384 141.137 26.256C140.646 26.128 140.219 25.968 139.857 25.776C139.579 25.648 139.313 25.5307 139.057 25.424C138.822 25.296 138.598 25.1893 138.385 25.104C138.171 25.04 137.979 25.1147 137.809 25.328C137.659 25.5413 137.542 25.84 137.457 26.224H136.785C136.827 25.5413 136.859 24.7093 136.881 23.728C136.902 22.7467 136.913 21.4453 136.913 19.824H137.585C137.713 20.976 137.947 22 138.289 22.896C138.63 23.7707 139.089 24.464 139.665 24.976C140.262 25.4667 141.009 25.712 141.905 25.712C142.267 25.712 142.619 25.6373 142.961 25.488C143.302 25.3387 143.579 25.0933 143.793 24.752C144.027 24.4107 144.145 23.9733 144.145 23.44C144.145 22.5013 143.835 21.7227 143.217 21.104C142.619 20.4853 141.851 19.8133 140.913 19.088C140.23 18.5333 139.579 17.9893 138.961 17.456C138.363 16.9013 137.873 16.304 137.489 15.664C137.105 15.0027 136.913 14.256 136.913 13.424C136.913 12.464 137.169 11.6533 137.681 10.992C138.193 10.3307 138.865 9.84 139.697 9.52C140.55 9.17867 141.457 9.008 142.417 9.008Z" fill="black"/>
</svg>
