<svg width="28" height="28" viewBox="0 0 28 28" fill="none" xmlns="http://www.w3.org/2000/svg">
<g id="shopping-cart">
<path id="Vector" d="M10.4997 25.6663C11.144 25.6663 11.6663 25.144 11.6663 24.4997C11.6663 23.8553 11.144 23.333 10.4997 23.333C9.85534 23.333 9.33301 23.8553 9.33301 24.4997C9.33301 25.144 9.85534 25.6663 10.4997 25.6663Z" stroke="black" stroke-width="2" stroke-linecap="round" stroke-linejoin="round"/>
<path id="Vector_2" d="M23.3337 25.6663C23.978 25.6663 24.5003 25.144 24.5003 24.4997C24.5003 23.8553 23.978 23.333 23.3337 23.333C22.6893 23.333 22.167 23.8553 22.167 24.4997C22.167 25.144 22.6893 25.6663 23.3337 25.6663Z" stroke="black" stroke-width="2" stroke-linecap="round" stroke-linejoin="round"/>
<path id="Vector_3" d="M1.16699 1.16699H5.83366L8.96033 16.7887C9.06701 17.3258 9.35922 17.8083 9.7858 18.1517C10.2124 18.4951 10.7461 18.6775 11.2937 18.667H22.6337C23.1812 18.6775 23.7149 18.4951 24.1415 18.1517C24.5681 17.8083 24.8603 17.3258 24.967 16.7887L26.8337 7.00033H7.00033" stroke="black" stroke-width="2" stroke-linecap="round" stroke-linejoin="round"/>
</g>
</svg>
