<svg width="14" height="14" viewBox="0 0 14 14" fill="none" xmlns="http://www.w3.org/2000/svg">
<path d="M6.99964 6.47539C5.41064 6.47539 5.08864 4.06739 5.08864 4.06739C4.89964 2.81439 5.47364 1.40039 6.97864 1.40039C8.49064 1.40039 9.06464 2.81439 8.87564 4.06739C8.87564 4.06739 8.58864 6.47539 6.99964 6.47539ZM6.99964 8.27439L8.90364 7.00039C10.5766 7.00039 12.0676 8.63139 12.0676 10.1714V11.9144C12.0676 11.9144 9.51264 12.7054 6.99964 12.7054C4.44464 12.7054 1.93164 11.9144 1.93164 11.9144V10.1714C1.93164 8.59639 3.28964 7.03539 5.06064 7.03539L6.99964 8.27439Z" fill="white"/>
</svg>
