<svg width="16" height="16" viewBox="0 0 16 16" fill="none" xmlns="http://www.w3.org/2000/svg">
<path d="M1.33301 12.6673C1.33301 13.8007 2.19967 14.6673 3.33301 14.6673H12.6663C13.7997 14.6673 14.6663 13.8007 14.6663 12.6673V7.33398H1.33301V12.6673ZM12.6663 2.66732H11.333V2.00065C11.333 1.60065 11.0663 1.33398 10.6663 1.33398C10.2663 1.33398 9.99967 1.60065 9.99967 2.00065V2.66732H5.99967V2.00065C5.99967 1.60065 5.73301 1.33398 5.33301 1.33398C4.93301 1.33398 4.66634 1.60065 4.66634 2.00065V2.66732H3.33301C2.19967 2.66732 1.33301 3.53398 1.33301 4.66732V6.00065H14.6663V4.66732C14.6663 3.53398 13.7997 2.66732 12.6663 2.66732Z" fill="white"/>
</svg>
