<svg width="14" height="14" viewBox="0 0 14 14" fill="none" xmlns="http://www.w3.org/2000/svg">
<path d="M0 11.3333C0 12.4667 0.866667 13.3333 2 13.3333H11.3333C12.4667 13.3333 13.3333 12.4667 13.3333 11.3333V6H0V11.3333ZM11.3333 1.33333H10V0.666667C10 0.266667 9.73333 0 9.33333 0C8.93333 0 8.66667 0.266667 8.66667 0.666667V1.33333H4.66667V0.666667C4.66667 0.266667 4.4 0 4 0C3.6 0 3.33333 0.266667 3.33333 0.666667V1.33333H2C0.866667 1.33333 0 2.2 0 3.33333V4.66667H13.3333V3.33333C13.3333 2.2 12.4667 1.33333 11.3333 1.33333Z" fill="#9F9F9F"/>
</svg>
