<svg width="73" height="20" viewBox="0 0 73 20" fill="none" xmlns="http://www.w3.org/2000/svg">
<path d="M10 0.5H63C68.2467 0.5 72.5 4.7533 72.5 10C72.5 15.2467 68.2467 19.5 63 19.5H10C4.7533 19.5 0.5 15.2467 0.5 10C0.5 4.7533 4.75329 0.5 10 0.5Z" stroke="black"/>
<path d="M14.9648 13H13.8984L12.4609 10.6602L11.0156 13H10.0117L11.9102 10.0391L10.1406 7.28906H11.1758L12.5039 9.45312L13.8242 7.28906H14.8281L13.0508 10.0664L14.9648 13ZM17.3633 8.59375C17.7487 8.59375 18.0794 8.67318 18.3555 8.83203C18.6315 8.99089 18.8438 9.21615 18.9922 9.50781C19.1406 9.79948 19.2148 10.1484 19.2148 10.5547V11.0469H16.3281C16.3385 11.4661 16.4505 11.7891 16.6641 12.0156C16.8802 12.2422 17.1823 12.3555 17.5703 12.3555C17.8464 12.3555 18.0938 12.3294 18.3125 12.2773C18.5339 12.2227 18.7617 12.1432 18.9961 12.0391V12.7852C18.7799 12.8867 18.5599 12.9609 18.3359 13.0078C18.112 13.0547 17.8438 13.0781 17.5312 13.0781C17.1068 13.0781 16.7331 12.9961 16.4102 12.832C16.0898 12.6654 15.8385 12.418 15.6562 12.0898C15.4766 11.7617 15.3867 11.3542 15.3867 10.8672C15.3867 10.3828 15.4688 9.97135 15.6328 9.63281C15.7969 9.29427 16.0273 9.03646 16.3242 8.85938C16.6211 8.68229 16.9674 8.59375 17.3633 8.59375ZM17.3633 9.28516C17.0742 9.28516 16.8398 9.37891 16.6602 9.56641C16.4831 9.75391 16.3789 10.0286 16.3477 10.3906H18.3164C18.3138 10.1745 18.2773 9.98307 18.207 9.81641C18.1393 9.64974 18.0352 9.51953 17.8945 9.42578C17.7565 9.33203 17.5794 9.28516 17.3633 9.28516ZM25.1367 8.59375C25.6211 8.59375 25.9857 8.71875 26.2305 8.96875C26.4779 9.21875 26.6016 9.61979 26.6016 10.1719V13H25.6836V10.3359C25.6836 10.0078 25.6198 9.76042 25.4922 9.59375C25.3646 9.42708 25.1706 9.34375 24.9102 9.34375C24.5456 9.34375 24.2826 9.46094 24.1211 9.69531C23.9622 9.92708 23.8828 10.2643 23.8828 10.707V13H22.9648V10.3359C22.9648 10.1172 22.9362 9.9349 22.8789 9.78906C22.8242 9.64062 22.7396 9.52995 22.625 9.45703C22.5104 9.38151 22.3659 9.34375 22.1914 9.34375C21.9388 9.34375 21.737 9.40104 21.5859 9.51562C21.4375 9.63021 21.3307 9.79948 21.2656 10.0234C21.2005 10.2448 21.168 10.5169 21.168 10.8398V13H20.25V8.67578H20.9648L21.0938 9.25781H21.1445C21.2331 9.10677 21.3424 8.98307 21.4727 8.88672C21.6055 8.78776 21.7526 8.71484 21.9141 8.66797C22.0755 8.61849 22.2435 8.59375 22.418 8.59375C22.7409 8.59375 23.013 8.65104 23.2344 8.76562C23.4557 8.8776 23.6211 9.04948 23.7305 9.28125H23.8008C23.9362 9.04688 24.125 8.8737 24.3672 8.76172C24.6094 8.64974 24.8659 8.59375 25.1367 8.59375ZM31.5703 12.3359C31.6901 12.3359 31.8086 12.3255 31.9258 12.3047C32.043 12.2812 32.1497 12.2539 32.2461 12.2227V12.918C32.1445 12.9622 32.013 13 31.8516 13.0312C31.6901 13.0625 31.5221 13.0781 31.3477 13.0781C31.1029 13.0781 30.8828 13.0378 30.6875 12.957C30.4922 12.8737 30.3372 12.7318 30.2227 12.5312C30.1081 12.3307 30.0508 12.0534 30.0508 11.6992V9.375H29.4609V8.96484L30.0938 8.64062L30.3945 7.71484H30.9727V8.67578H32.2109V9.375H30.9727V11.6875C30.9727 11.9062 31.0273 12.069 31.1367 12.1758C31.2461 12.2826 31.3906 12.3359 31.5703 12.3359ZM34.043 6.92188V8.44922C34.043 8.60807 34.0378 8.76302 34.0273 8.91406C34.0195 9.0651 34.0104 9.18229 34 9.26562H34.0508C34.1419 9.11458 34.2539 8.99089 34.3867 8.89453C34.5195 8.79557 34.668 8.72135 34.832 8.67188C34.9987 8.6224 35.1758 8.59766 35.3633 8.59766C35.694 8.59766 35.9753 8.65365 36.207 8.76562C36.4388 8.875 36.6159 9.04557 36.7383 9.27734C36.8633 9.50911 36.9258 9.8099 36.9258 10.1797V13H36.0078V10.3516C36.0078 10.0156 35.9388 9.76432 35.8008 9.59766C35.6628 9.42839 35.4492 9.34375 35.1602 9.34375C34.8815 9.34375 34.6602 9.40234 34.4961 9.51953C34.3346 9.63411 34.2188 9.80469 34.1484 10.0312C34.0781 10.2552 34.043 10.5286 34.043 10.8516V13H33.125V6.92188H34.043ZM39.9336 8.59375C40.319 8.59375 40.6497 8.67318 40.9258 8.83203C41.2018 8.99089 41.4141 9.21615 41.5625 9.50781C41.7109 9.79948 41.7852 10.1484 41.7852 10.5547V11.0469H38.8984C38.9089 11.4661 39.0208 11.7891 39.2344 12.0156C39.4505 12.2422 39.7526 12.3555 40.1406 12.3555C40.4167 12.3555 40.6641 12.3294 40.8828 12.2773C41.1042 12.2227 41.332 12.1432 41.5664 12.0391V12.7852C41.3503 12.8867 41.1302 12.9609 40.9062 13.0078C40.6823 13.0547 40.4141 13.0781 40.1016 13.0781C39.6771 13.0781 39.3034 12.9961 38.9805 12.832C38.6602 12.6654 38.4089 12.418 38.2266 12.0898C38.0469 11.7617 37.957 11.3542 37.957 10.8672C37.957 10.3828 38.0391 9.97135 38.2031 9.63281C38.3672 9.29427 38.5977 9.03646 38.8945 8.85938C39.1914 8.68229 39.5378 8.59375 39.9336 8.59375ZM39.9336 9.28516C39.6445 9.28516 39.4102 9.37891 39.2305 9.56641C39.0534 9.75391 38.9492 10.0286 38.918 10.3906H40.8867C40.8841 10.1745 40.8477 9.98307 40.7773 9.81641C40.7096 9.64974 40.6055 9.51953 40.4648 9.42578C40.3268 9.33203 40.1497 9.28516 39.9336 9.28516ZM40.3984 6.87109C40.4688 6.99089 40.5625 7.1237 40.6797 7.26953C40.7995 7.41536 40.9232 7.55859 41.0508 7.69922C41.181 7.83724 41.2956 7.95573 41.3945 8.05469V8.15234H40.7695C40.6289 8.0638 40.4792 7.95833 40.3203 7.83594C40.1641 7.71094 40.0169 7.57682 39.8789 7.43359C39.7383 7.57682 39.5911 7.70964 39.4375 7.83203C39.2865 7.95443 39.1419 8.0612 39.0039 8.15234H38.3828V8.05469C38.4818 7.95312 38.5951 7.83333 38.7227 7.69531C38.8503 7.55729 38.9727 7.41536 39.0898 7.26953C39.207 7.1237 39.3008 6.99089 39.3711 6.87109H40.3984ZM47.707 8.59375C48.1914 8.59375 48.556 8.71875 48.8008 8.96875C49.0482 9.21875 49.1719 9.61979 49.1719 10.1719V13H48.2539V10.3359C48.2539 10.0078 48.1901 9.76042 48.0625 9.59375C47.9349 9.42708 47.7409 9.34375 47.4805 9.34375C47.1159 9.34375 46.8529 9.46094 46.6914 9.69531C46.5326 9.92708 46.4531 10.2643 46.4531 10.707V13H45.5352V10.3359C45.5352 10.1172 45.5065 9.9349 45.4492 9.78906C45.3945 9.64062 45.3099 9.52995 45.1953 9.45703C45.0807 9.38151 44.9362 9.34375 44.7617 9.34375C44.5091 9.34375 44.3073 9.40104 44.1562 9.51562C44.0078 9.63021 43.901 9.79948 43.8359 10.0234C43.7708 10.2448 43.7383 10.5169 43.7383 10.8398V13H42.8203V8.67578H43.5352L43.6641 9.25781H43.7148C43.8034 9.10677 43.9128 8.98307 44.043 8.88672C44.1758 8.78776 44.3229 8.71484 44.4844 8.66797C44.6458 8.61849 44.8138 8.59375 44.9883 8.59375C45.3112 8.59375 45.5833 8.65104 45.8047 8.76562C46.026 8.8776 46.1914 9.04948 46.3008 9.28125H46.3711C46.5065 9.04688 46.6953 8.8737 46.9375 8.76172C47.1797 8.64974 47.4362 8.59375 47.707 8.59375Z" fill="black"/>
<path d="M59 7L62 9.33333L59 12" stroke="black"/>
<circle cx="60" cy="10" r="6.5" stroke="black"/>
</svg>
