<svg width="27" height="21" viewBox="0 0 27 21" fill="none" xmlns="http://www.w3.org/2000/svg">
<path d="M25.4767 4.64244C25.3417 4.10316 25.0668 3.60905 24.6797 3.21002C24.2926 2.81099 23.8071 2.52116 23.2722 2.36983C21.3178 1.89258 13.5 1.89258 13.5 1.89258C13.5 1.89258 5.68222 1.89258 3.72778 2.41528C3.19286 2.56662 2.70735 2.85644 2.32029 3.25547C1.93323 3.6545 1.65833 4.14861 1.52335 4.68789C1.16566 6.67137 0.990691 8.68349 1.00065 10.6989C0.987899 12.7296 1.16288 14.757 1.52335 16.7554C1.67216 17.278 1.95322 17.7533 2.33938 18.1355C2.72554 18.5176 3.20374 18.7938 3.72778 18.9371C5.68222 19.4598 13.5 19.4598 13.5 19.4598C13.5 19.4598 21.3178 19.4598 23.2722 18.9371C23.8071 18.7858 24.2926 18.496 24.6797 18.097C25.0668 17.6979 25.3417 17.2038 25.4767 16.6645C25.8316 14.696 26.0065 12.6992 25.9994 10.6989C26.0121 8.66831 25.8371 6.64085 25.4767 4.64244Z" stroke="black" stroke-width="2" stroke-linecap="round" stroke-linejoin="round"/>
<path d="M11 14.4314L17.5338 10.7157L11 7V14.4314Z" stroke="black" stroke-width="2" stroke-linecap="round" stroke-linejoin="round"/>
</svg>
